<svg width="119" height="101" viewBox="0 0 119 101" fill="none" xmlns="http://www.w3.org/2000/svg">
<path opacity="0.6" d="M116.795 24.0972C116.9 24.4098 116.979 24.7309 117.029 25.0568C117.152 25.704 117.386 26.6301 117.554 27.8575C118.111 31.3034 118.391 34.7885 118.391 38.2793C118.401 43.4605 117.847 48.6274 116.739 53.6888C116.12 56.6884 115.281 59.6384 114.229 62.5149C113.131 65.5971 111.78 68.5828 110.189 71.4415C108.579 74.3105 106.735 77.0423 104.677 79.6093C102.729 81.9767 100.626 84.2132 98.3839 86.3043C94.5471 89.7811 90.3019 92.7786 85.7417 95.2309C82.6679 96.894 79.4295 98.2327 76.0786 99.2255C75.1725 99.5065 74.2526 99.7412 73.3226 99.9285C73.005 100.019 72.6802 100.083 72.3518 100.118C72.6618 99.9993 72.9785 99.8987 73.3003 99.8169C73.914 99.6272 74.8512 99.4263 76.0117 99.0135C79.3118 97.9379 82.5024 96.5518 85.5408 94.8738C90.043 92.3755 94.2309 89.3488 98.0157 85.8579C100.231 83.764 102.307 81.5276 104.231 79.163C108.334 74.1149 111.548 68.4061 113.738 62.2806C114.786 59.4286 115.629 56.5051 116.259 53.5326C118.12 45.1078 118.498 36.4231 117.375 27.8687C117.253 26.6412 117.041 25.704 116.962 25.0568C116.88 24.7422 116.824 24.4212 116.795 24.0972Z" fill="#1850DB"/>
<path opacity="0.6" d="M6.16055 69.5445C6.04842 69.3846 5.95483 69.2124 5.8816 69.0313C5.69191 68.6073 5.44643 68.1051 5.16747 67.4803C4.77557 66.666 4.43641 65.8274 4.15209 64.9697C3.80618 63.9766 3.34869 62.8608 3.03626 61.6222C2.85773 60.975 2.6792 60.3055 2.47835 59.6137C2.2775 58.9219 2.16591 58.1743 1.99854 57.3821C1.64148 55.8646 1.44064 54.202 1.20631 52.4613C0.344824 44.8652 1.02028 37.1733 3.19248 29.8436C3.72807 28.1699 4.20788 26.5742 4.83274 25.1348C5.13401 24.4207 5.37948 23.7066 5.69191 23.0482L6.59572 21.1737C7.10625 20.0961 7.67237 19.0459 8.29178 18.027C8.72439 17.2562 9.20127 16.5111 9.72003 15.7954L10.7354 14.3002C10.8419 14.1288 10.9693 13.9713 11.1148 13.8315C11.0443 14.0209 10.9506 14.2008 10.8359 14.3671L9.95436 15.8177C9.56382 16.4426 9.09518 17.2125 8.61538 18.1498C8.13557 19.0871 7.49955 20.1025 7.00859 21.3187C6.72963 21.9212 6.43951 22.5461 6.1494 23.1933C5.85929 23.8405 5.6138 24.5657 5.32369 25.2799C4.7323 26.7081 4.27483 28.3038 3.75039 29.9663C1.64705 37.2365 0.976282 44.846 1.77538 52.372C2.0097 54.1016 2.17708 55.7195 2.51182 57.2593C2.66804 58.0181 2.77962 58.7546 2.95815 59.491C3.13668 60.2274 3.31521 60.8523 3.48259 61.4883C3.7727 62.7715 4.1967 63.8873 4.52029 64.8358C4.84388 65.7842 5.14517 66.6769 5.42412 67.3575C5.70308 68.0382 5.8816 68.4734 6.03781 68.942C6.10553 69.1365 6.14681 69.3391 6.16055 69.5445Z" fill="#1850DB"/>
<path opacity="0.6" d="M15.8985 81.696C15.0037 81.4988 14.1948 81.022 13.5888 80.3347C12.473 79.3193 11.9262 78.2258 12.0489 78.103C12.1717 77.9803 12.9416 78.9064 13.9905 79.866C15.0393 80.8256 15.9766 81.5509 15.8985 81.696Z" fill="#1850DB"/>
<path opacity="0.6" d="M86.9791 18.1721H72.3953V70.7385H86.9791V18.1721Z" fill="#1850DB"/>
<path opacity="0.6" d="M41.2872 49.114H26.7034V72.9815H41.2872V49.114Z" fill="#1850DB"/>
<path opacity="0.6" d="M63.8258 36.137H49.2419V72.9703H63.8258V36.137Z" fill="#1850DB"/>
<path d="M81.5909 0.810059C81.488 0.974507 81.3684 1.12782 81.2338 1.26754L80.118 2.55074L76.0006 7.27066C72.4189 11.3099 67.4423 16.9114 61.7069 23.3943L61.5396 23.5728L61.3387 23.4389L52.4122 17.592H52.7915L52.4568 17.9937L33.4878 40.1986L33.3651 40.3436L33.22 40.2321L26.1011 34.9431L24.1818 33.4813C23.9517 33.321 23.7352 33.1419 23.5347 32.9457C23.7886 33.0675 24.0281 33.2172 24.2488 33.3921L26.235 34.7645L33.4543 39.8973H33.1754L51.977 17.5809L52.3229 17.1792L52.4791 16.9895L52.7023 17.1234L61.6288 22.9926H61.2606L75.7663 7.01403C77.5405 5.0725 78.9687 3.5215 80.0064 2.40568L81.1222 1.18943C81.2627 1.04469 81.4201 0.91732 81.5909 0.810059Z" fill="#263238"/>
<path d="M82.0459 11.9013C81.8858 10.793 81.8186 9.67325 81.8451 8.55378C81.7893 6.47835 81.7558 3.59953 81.7558 0.419432L82.0905 0.698388H81.8004C78.598 1.22282 75.6857 1.66915 73.5656 1.97042C72.4318 2.1836 71.2823 2.30302 70.1289 2.32749C71.2215 1.97875 72.3412 1.72123 73.4764 1.55758C75.5741 1.16704 78.4753 0.653759 81.6888 0.118164H81.979H82.3137V0.464066C82.3137 3.64416 82.3137 6.52298 82.2244 8.59841C82.2625 9.70247 82.2027 10.8077 82.0459 11.9013Z" fill="#263238"/>
</svg>
