<svg width="73" height="101" viewBox="0 0 73 101" fill="none" xmlns="http://www.w3.org/2000/svg">
<g opacity="0.6">
<path d="M12.958 46.1433H3.51489V82.9906H12.958V46.1433Z" fill="#1850DB"/>
<path d="M12.958 84.8088H3.51489V90.8752H12.958V84.8088Z" fill="#1850DB"/>
<path d="M12.958 92.699H3.51489V96.4383H12.958V92.699Z" fill="#1850DB"/>
<path d="M12.958 98.262H3.51489V100.118H12.958V98.262Z" fill="#1850DB"/>
<path d="M16.1074 46.1434H0.365234L8.23362 35.25L16.1074 46.1434Z" fill="#1850DB"/>
<path d="M31.7569 34.4329H22.3137V82.9907H31.7569V34.4329Z" fill="#1850DB"/>
<path d="M31.7569 84.8088H22.3137V90.8752H31.7569V84.8088Z" fill="#1850DB"/>
<path d="M31.7569 92.699H22.3137V96.4383H31.7569V92.699Z" fill="#1850DB"/>
<path d="M31.7569 98.262H22.3137V100.118H31.7569V98.262Z" fill="#1850DB"/>
<path d="M34.9063 34.4273H19.1641L27.0324 23.5393L34.9063 34.4273Z" fill="#1850DB"/>
<path d="M50.5584 42.8625H41.1152V83.1325H50.5584V42.8625Z" fill="#1850DB"/>
<path d="M50.5578 84.8088H41.1146V90.8752H50.5578V84.8088Z" fill="#1850DB"/>
<path d="M50.5578 92.699H41.1146V96.4383H50.5578V92.699Z" fill="#1850DB"/>
<path d="M50.5578 98.262H41.1146V100.118H50.5578V98.262Z" fill="#1850DB"/>
<path d="M53.7052 42.8626H37.9684L45.8368 31.9746L53.7052 42.8626Z" fill="#1850DB"/>
<path d="M69.3523 11.0117H59.9092V82.9907H69.3523V11.0117Z" fill="#1850DB"/>
<path d="M69.3523 84.8088H59.9092V90.8752H69.3523V84.8088Z" fill="#1850DB"/>
<path d="M69.3523 92.699H59.9092V96.4383H69.3523V92.699Z" fill="#1850DB"/>
<path d="M69.3523 98.262H59.9092V100.118H69.3523V98.262Z" fill="#1850DB"/>
<path d="M72.5005 11.0116H56.7637L64.6321 0.118164L72.5005 11.0116Z" fill="#1850DB"/>
</g>
</svg>
