<svg width="784" height="76" viewBox="0 0 784 76" fill="none" xmlns="http://www.w3.org/2000/svg">
<g clip-path="url(#clip0_619_19501)">
<g clip-path="url(#clip1_619_19501)">
<g clip-path="url(#clip2_619_19501)">
<path d="M782.378 72.3482L783.369 72.2152C783.503 73.2152 783.605 74.2272 783.669 75.2352L782.669 75.3012C782.608 74.3112 782.509 73.3222 782.378 72.3482ZM781.187 66.5482L782.149 66.2762C782.419 67.2372 782.66 68.2292 782.863 69.2272L781.884 69.4272C781.685 68.4512 781.45 67.4802 781.187 66.5452V66.5482ZM779.144 60.9992L780.051 60.5772C780.471 61.4832 780.863 62.4262 781.216 63.3852L780.278 63.7312C779.933 62.7942 779.553 61.8772 779.143 60.9962L779.144 60.9992ZM776.186 55.8932L777.001 55.3133C777.583 56.1313 778.137 56.9943 778.647 57.8762L777.781 58.3762C777.287 57.5192 776.75 56.6832 776.185 55.8902L776.186 55.8932ZM772.321 51.4443L773.008 50.7173C773.743 51.4173 774.452 52.1523 775.117 52.9173L774.362 53.5743C773.719 52.8303 773.033 52.1113 772.321 51.4413V51.4443ZM767.665 47.8303L768.201 46.9843C769.062 47.5323 769.9 48.1193 770.694 48.7353L770.081 49.5262C769.311 48.9282 768.499 48.3573 767.665 47.8283V47.8303ZM762.416 45.1193L762.799 44.1953C763.744 44.5863 764.672 45.0153 765.558 45.4723L765.101 46.3613C764.238 45.9113 763.336 45.4983 762.416 45.1173V45.1193ZM756.791 43.2673L757.037 42.2973C758.03 42.5493 759.01 42.8323 759.952 43.1413L759.64 44.0913C758.721 43.7893 757.759 43.5113 756.791 43.2653V43.2673ZM750.957 42.1673L751.088 41.1753C752.102 41.3083 753.107 41.4683 754.078 41.6493L753.893 42.6323C752.941 42.4483 751.953 42.2913 750.959 42.1623L750.957 42.1673ZM745.027 41.6873L745.062 40.6873C746.082 40.7243 747.096 40.7803 748.079 40.8593L748 41.8593C747.031 41.7733 746.031 41.7163 745.028 41.6823L745.027 41.6873ZM739.048 41.6433V40.6433H742.058V41.6433H739.048ZM733.048 41.6433V40.6433H736.056V41.6433H733.048ZM727.048 41.6433V40.6433H730.048V41.6433H727.048ZM721.041 41.6433V40.6433H724.041V41.6433H721.041ZM715.041 41.6433V40.6433H718.041V41.6433H715.041ZM709.041 41.6433V40.6433H712.041V41.6433H709.041ZM703.041 41.6433V40.6433H706.041V41.6433H703.041ZM697.041 41.6433V40.6433H700.041V41.6433H697.041ZM691.041 41.6433V40.6433H694.041V41.6433H691.041ZM685.041 41.6433V40.6433H688.041V41.6433H685.041ZM679.041 41.6433V40.6433H682.041V41.6433H679.041ZM673.041 41.6433V40.6433H676.041V41.6433H673.041ZM667.041 41.6433V40.6433H670.041V41.6433H667.041ZM661.041 41.6433V40.6433H664.041V41.6433H661.041ZM655.041 41.6433V40.6433H658.041V41.6433H655.041ZM649.041 41.6433V40.6433H652.041V41.6433H649.041ZM643.041 41.6433V40.6433H646.041V41.6433H643.041ZM637.041 41.6433V40.6433H640.041V41.6433H637.041ZM631.041 41.6433V40.6433H634.041V41.6433H631.041ZM625.041 41.6433V40.6433H628.041V41.6433H625.041ZM619.041 41.6433V40.6433H622.041V41.6433H619.041ZM613.041 41.6433V40.6433H616.041V41.6433H613.041ZM607.041 41.6433V40.6433H610.041V41.6433H607.041ZM601.041 41.6433V40.6433H604.041V41.6433H601.041ZM595.041 41.6433V40.6433H598.041V41.6433H595.041ZM589.041 41.6433V40.6433H592.041V41.6433H589.041ZM583.041 41.6433V40.6433H586.041V41.6433H583.041ZM577.041 41.6433V40.6433H580.041V41.6433H577.041ZM571.041 41.6433V40.6433H574.041V41.6433H571.041ZM565.041 41.6433V40.6433H568.041V41.6433H565.041ZM559.041 41.6433V40.6433H562.041V41.6433H559.041ZM553.041 41.6433V40.6433H556.041V41.6433H553.041ZM547.036 41.6433V40.6433H550.036V41.6433H547.036ZM541.036 41.6433V40.6433H544.036V41.6433H541.036ZM535.036 41.6433V40.6433H538.036V41.6433H535.036ZM529.036 41.6433V40.6433H532.036V41.6433H529.036ZM523.036 41.6433V40.6433H526.036V41.6433H523.036ZM517.036 41.6433V40.6433H520.036V41.6433H517.036ZM511.036 41.6433V40.6433H514.036V41.6433H511.036ZM505.029 41.6433V40.6433H508.038V41.6433H505.029ZM499.029 41.6433V40.6433H502.041V41.6433H499.029ZM493.029 41.6433V40.6433H496.029V41.6433H493.029ZM487.529 41.6433H485.807V40.6433H490.026V41.6433H487.529ZM479.798 41.6433V40.6433H482.811V41.6433H479.798ZM473.813 41.6433V40.6433H476.813V41.6433H473.813ZM467.809 41.6433V40.6433H470.809V41.6433H467.809ZM461.794 41.6433V40.6433H464.801V41.6433H461.794ZM455.813 41.6433V40.6433H458.813V41.6433H455.813ZM449.794 41.6433V40.6433H452.807V41.6433H449.794ZM443.81 41.6433V40.6433H446.81V41.6433H443.81ZM437.81 41.6433V40.6433H440.794V41.6433H437.81ZM431.801 41.6433V40.6433H434.801V41.6433H431.801ZM425.793 41.6433V40.6433H428.81V41.6433H425.793ZM419.801 41.6433V40.6433H422.809V41.6433H419.801ZM413.801 41.6433V40.6433H416.801V41.6433H413.801ZM407.801 41.6433V40.6433H410.795V41.6433H407.801ZM401.801 41.6433V40.6433H404.792V41.6433H401.801ZM395.801 41.6433V40.6433H398.79V41.6433H395.801ZM389.801 41.6433V40.6433H392.789V41.6433H389.801ZM383.801 41.6433V40.6433H386.79V41.6433H383.801ZM377.801 41.6433V40.6433H380.792V41.6433H377.801ZM371.801 41.6433V40.6433H374.794V41.6433H371.801ZM365.801 41.6433V40.6433H368.796V41.6433H365.801ZM359.801 41.6433V40.6433H362.801V41.6433H359.801ZM353.801 41.6433V40.6433H356.801V41.6433H353.801ZM347.801 41.6433V40.6433H350.807V41.6433H347.801ZM341.801 41.6433V40.6433H344.81V41.6433H341.801ZM335.801 41.6433V40.6433H338.801V41.6433H335.801ZM329.801 41.6433V40.6433H332.801V41.6433H329.801ZM323.801 41.6433V40.6433H326.801V41.6433H323.801ZM317.801 41.6433V40.6433H320.801V41.6433H317.801ZM311.801 41.6433V40.6433H314.801V41.6433H311.801ZM305.801 41.6433V40.6433H308.801V41.6433H305.801ZM299.801 41.6433V40.6433H302.801V41.6433H299.801ZM293.801 41.6433V40.6433H296.801V41.6433H293.801ZM287.801 41.6433V40.6433H290.801V41.6433H287.801ZM281.801 41.6433V40.6433H284.801V41.6433H281.801ZM275.801 41.6433V40.6433H278.801V41.6433H275.801ZM269.801 41.6433V40.6433H272.801V41.6433H269.801ZM263.801 41.6433V40.6433H266.801V41.6433H263.801ZM257.801 41.6433V40.6433H260.801V41.6433H257.801ZM251.801 41.6433V40.6433H254.801V41.6433H251.801ZM245.801 41.6433V40.6433H248.801V41.6433H245.801ZM239.801 41.6433V40.6433H242.801V41.6433H239.801ZM233.801 41.6433V40.6433H236.801V41.6433H233.801ZM227.801 41.6433V40.6433H230.801V41.6433H227.801ZM221.801 41.6433V40.6433H224.801V41.6433H221.801ZM215.801 41.6433V40.6433H218.801V41.6433H215.801ZM209.801 41.6433V40.6433H212.801V41.6433H209.801ZM203.801 41.6433V40.6433H206.801V41.6433H203.801ZM197.802 41.6433V40.6433H200.802V41.6433H197.802ZM191.802 41.6433V40.6433H194.802V41.6433H191.802ZM185.802 41.6433V40.6433H188.81V41.6433H185.802ZM179.802 41.6433V40.6433H182.81V41.6433H179.802ZM173.802 41.6433V40.6433H176.802V41.6433H173.802ZM167.802 41.6433V40.6433H170.802V41.6433H167.802ZM161.802 41.6433V40.6433H164.802V41.6433H161.802ZM155.802 41.6433V40.6433H158.797V41.6433H155.802ZM149.802 41.6433V40.6433H152.794V41.6433H149.802ZM143.802 41.6433V40.6433H146.792V41.6433H143.802ZM137.802 41.6433V40.6433H140.791V41.6433H137.802ZM131.802 41.6433V40.6433H134.792V41.6433H131.802ZM125.802 41.6433V40.6433H128.793V41.6433H125.802ZM119.802 41.6433V40.6433H122.797V41.6433H119.802ZM113.802 41.6433V40.6433H116.802V41.6433H113.802ZM107.802 41.6433V40.6433H110.808V41.6433H107.802ZM101.802 41.6433V40.6433H104.817V41.6433H101.802ZM95.8019 41.6433V40.6433H98.8109V41.6433H95.8019ZM89.8149 41.6433V40.6433H92.8009V41.6433H89.8149ZM83.802 41.6433V40.6433H86.8019V41.6433H83.802ZM77.802 41.6433V40.6433H80.8169V41.6433H77.802ZM71.814 41.6433V40.6433H74.801V41.6433H71.814ZM65.8001 41.6433V40.6433H68.8111V41.6433H65.8001ZM59.8001 41.6433V40.6433H62.8001V41.6433H59.8001ZM53.8001 41.6433V40.6433H56.8001V41.6433H53.8001ZM47.8001 41.6433V40.6433H50.8001V41.6433H47.8001ZM41.8002 41.6433V40.6433H44.8231V41.6433H41.8002ZM35.7912 41.4293L35.8703 40.4293C36.8373 40.5063 37.8372 40.5633 38.8422 40.5993L38.8073 41.5993C37.7543 41.5593 36.7401 41.5013 35.7621 41.4243L35.7912 41.4293ZM29.7912 40.6373L29.9762 39.6553C30.9282 39.8333 31.9163 39.9913 32.9113 40.1203L32.7821 41.1123C31.7341 40.9743 30.7291 40.8113 29.7621 40.6323L29.7912 40.6373ZM23.9182 39.1433L24.2302 38.1923C25.1502 38.4923 26.1073 38.7723 27.0783 39.0163L26.8322 39.9873C25.8062 39.7313 24.8252 39.4473 23.8852 39.1383L23.9182 39.1433ZM18.3112 36.8113L18.7693 35.9223C19.6302 36.3653 20.5333 36.7843 21.4533 37.1643L21.0703 38.0883C20.0923 37.6933 19.1623 37.2643 18.2783 36.8113H18.3112ZM13.1763 33.5493L13.7893 32.7573C14.5583 33.3573 15.3713 33.9243 16.2053 34.4573L15.6692 35.3023C14.7752 34.7483 13.9373 34.1603 13.1423 33.5453L13.1763 33.5493ZM8.7522 29.3673L9.5083 28.7113C10.1503 29.4513 10.8363 30.1663 11.5483 30.8403L10.8623 31.5664C10.0923 30.8664 9.38326 30.1274 8.71826 29.3634L8.7522 29.3673ZM5.22438 24.4084L6.08937 23.9084C6.58436 24.7634 7.12033 25.5993 7.68433 26.3933L6.86915 26.9724C6.25315 26.1484 5.7002 25.2854 5.1902 24.4044L5.22438 24.4084ZM2.6553 18.8994L3.59328 18.5534C3.93628 19.4864 4.31731 20.4054 4.72731 21.2864L3.82131 21.7084C3.36231 20.7964 2.97336 19.8534 2.62136 18.8954L2.6553 18.8994ZM1.00638 13.0564L1.98538 12.8564C2.18538 13.8304 2.42033 14.8014 2.68533 15.7374L1.7222 16.0084C1.4162 15.0434 1.1772 14.0504 0.972199 13.0524L1.00638 13.0564ZM0.196323 7.04743L1.19632 6.98142C1.26232 7.96542 1.36337 8.95942 1.49637 9.93441L0.505404 10.0674C0.333404 9.06641 0.231387 8.05143 0.162387 7.04343L0.196323 7.04743ZM0.0962256 4.01644C0.0889318 2.99782 0.13369 1.97951 0.230258 0.965454L1.2244 1.07944C1.13271 2.05635 1.08982 3.03727 1.09622 4.01845L0.0962256 4.01644Z" fill="url(#paint0_linear_619_19501)"/>
</g>
</g>
</g>
<defs>
<linearGradient id="paint0_linear_619_19501" x1="391.882" y1="0.965454" x2="391.882" y2="75.3012" gradientUnits="userSpaceOnUse">
<stop stop-color="#0335B2"/>
<stop offset="1" stop-color="#5888FF"/>
</linearGradient>
<clipPath id="clip0_619_19501">
<rect width="783.61" height="74.34" fill="white" transform="translate(0.0622559 0.961426)"/>
</clipPath>
<clipPath id="clip1_619_19501">
<rect width="783.61" height="74.34" fill="white" transform="translate(0.0622559 0.961426)"/>
</clipPath>
<clipPath id="clip2_619_19501">
<rect width="783.61" height="74.3397" fill="white" transform="translate(0.0622559 0.961548)"/>
</clipPath>
</defs>
</svg>
