<svg width="40" height="45" viewBox="0 0 40 45" fill="none" xmlns="http://www.w3.org/2000/svg">
<g clip-path="url(#clip0_619_18799)">
<path opacity="0.9" fill-rule="evenodd" clip-rule="evenodd" d="M9.30472 34.2645C9.40624 34.3069 9.67695 34.4255 9.91383 34.5358C10.1422 34.6375 10.3707 34.7308 10.4214 34.7477C10.4637 34.7562 11.1321 34.9936 11.9019 35.2733C12.6717 35.5531 13.6362 35.8753 14.0592 35.9939C14.4737 36.1211 15.0828 36.2822 15.4127 36.35C15.7342 36.4263 16.3856 36.562 16.8509 36.6467C17.3162 36.7315 18.213 36.8502 18.839 36.9011C19.5412 36.9689 20.5817 36.9943 21.5462 36.9604C22.4175 36.935 23.6357 36.8333 24.2956 36.74C24.947 36.6467 26.1652 36.3924 27.0028 36.1805C27.8403 35.9685 28.5848 35.7735 28.6524 35.765C28.7201 35.7481 29.067 35.6294 29.4138 35.5107C29.7607 35.3835 30.0483 35.2818 30.0483 35.2903C30.0483 35.2988 30.1583 35.2564 30.3021 35.2055C30.4375 35.1546 30.649 35.0868 30.7674 35.0614C30.8858 35.036 31.0127 34.9851 31.0635 34.9512C31.1058 34.9173 31.4611 34.7816 31.8503 34.646C32.3832 34.4595 32.5778 34.4171 32.6963 34.4934C32.7724 34.5442 33.2462 35.392 34.659 38.1728L34.3629 39.0629C34.2021 39.5546 34.0668 39.987 34.0668 40.0379C34.0668 40.0972 35.0143 40.1142 36.7908 40.0972C39.3373 40.0803 39.5234 40.0887 39.5403 40.2244C39.5572 40.3176 39.2019 40.767 38.6097 41.3943C38.0937 41.9624 37.6791 42.4286 37.7045 42.4456C37.7299 42.4541 38.0091 42.7084 38.339 43.0051C38.6605 43.3018 39.1765 43.7766 39.4642 44.0564C39.9041 44.4718 39.9971 44.6074 39.9041 44.955H34.5744C30.3444 44.955 29.2193 44.9296 29.1347 44.8448C29.0839 44.7855 28.737 43.8614 28.3733 42.7932C28.0095 41.7165 27.7049 40.8348 27.6965 40.8348C27.688 40.8263 27.2396 40.9111 26.7067 41.0213C26.1737 41.123 25.2939 41.2672 24.7609 41.3435C24.2279 41.4113 23.1789 41.513 22.4344 41.5724C21.6392 41.6317 20.4548 41.6487 19.5581 41.6232C18.7206 41.5893 17.4262 41.4876 16.6817 41.3943C15.9373 41.3011 14.9475 41.1485 14.4822 41.0552C14.0169 40.962 13.577 40.8602 13.5093 40.8348C13.4247 40.8094 13.3485 40.8772 13.2809 41.0298C13.2216 41.157 12.9086 42.0471 12.5787 43.0051C12.2488 43.9631 11.9357 44.7939 11.8765 44.8533C11.7919 44.9381 10.7091 44.9635 1.15787 44.955L1.06481 44.76C0.980208 44.599 0.997128 44.5396 1.25092 44.3277C1.41166 44.192 1.92771 43.7088 2.40993 43.2679C2.88368 42.8186 3.28129 42.4371 3.28129 42.4117C3.28129 42.3862 2.87522 41.9284 2.38455 41.3943C1.76698 40.7246 1.49626 40.3685 1.51318 40.2498C1.53856 40.0803 1.59778 40.0803 7.07977 40.1227L6.85982 39.4614C6.74138 39.1053 6.62294 38.6136 6.59756 38.3847C6.55526 37.9608 6.56372 37.9608 7.66351 36.2229C8.27262 35.2649 8.84789 34.4171 8.94095 34.3408C9.06784 34.239 9.16936 34.2136 9.30472 34.2645ZM8.24724 36.2992C7.73118 37.1215 7.29127 37.8252 7.27435 37.876C7.25743 37.9184 7.93422 38.2575 8.78867 38.6221C9.64312 38.9951 10.8952 39.4783 11.5804 39.7072C12.621 40.0548 12.8579 40.1057 12.9763 40.0124C13.0609 39.9446 13.3824 39.9107 13.8815 39.9192C14.5668 39.9361 14.6006 39.9277 14.2284 39.8598C13.9915 39.8175 13.2555 39.614 12.5787 39.402C11.9019 39.1816 11.259 39.0121 11.1405 39.0205C11.0221 39.0205 10.7683 38.9103 10.5652 38.7662C10.3707 38.6306 10.1592 38.5119 10.0999 38.5119C10.0492 38.5119 9.75309 38.4186 9.44854 38.2914C9.14398 38.1728 8.84789 38.0286 8.78867 37.9778C8.72945 37.9184 8.67869 37.7913 8.68715 37.681C8.68715 37.5793 8.85635 37.2063 9.06784 36.8587C9.42316 36.2652 9.44008 36.2229 9.27934 36.1805C9.1609 36.155 9.1186 36.0787 9.12706 35.9516C9.14398 35.8329 9.22858 35.7396 9.36394 35.7057C9.48238 35.6718 9.81231 35.6464 10.0999 35.6379C10.396 35.6294 10.6498 35.6548 10.6668 35.6887C10.6837 35.7311 10.6668 35.8414 10.6245 35.9431C10.5652 36.0872 10.4806 36.1381 10.2691 36.1466C10.1253 36.1466 10.0492 36.1635 10.0999 36.1889C10.1592 36.2059 10.2099 36.2568 10.2099 36.3076C10.2099 36.35 10.0746 36.5704 9.91383 36.7909C9.75309 37.0198 9.61773 37.2148 9.61773 37.2402C9.61773 37.2656 9.77847 37.3335 9.97305 37.3928C10.2184 37.4691 10.4722 37.486 10.7598 37.4437C10.9882 37.4097 11.2759 37.3928 11.3943 37.4013C11.5127 37.4182 11.6566 37.4691 11.7242 37.52C11.7835 37.5793 11.9019 37.7573 11.978 37.9184C12.0965 38.1728 12.1895 38.2321 12.7225 38.4017C13.2555 38.5712 13.3485 38.5797 13.3824 38.4695C13.4078 38.4017 13.4247 38.2406 13.4247 38.1049C13.4247 37.9778 13.4585 37.8336 13.4924 37.7828C13.5262 37.7234 13.7208 37.6726 13.9323 37.6556C14.3045 37.6217 14.313 37.6302 14.3383 37.876C14.3553 38.0117 14.3045 38.2575 14.2284 38.4017C14.1607 38.5543 14.1015 38.6984 14.1015 38.7238C14.1015 38.7492 14.1353 38.7662 14.1861 38.7662C14.2284 38.7662 14.3468 38.6814 14.4314 38.5712C14.5668 38.4186 14.6767 38.3847 15.0997 38.3847C15.4889 38.3847 15.6496 38.4271 15.785 38.5543C15.8865 38.6475 15.9626 38.8001 15.9626 38.8934C15.9626 38.9866 16.0049 39.1053 16.0642 39.1647C16.1488 39.2494 16.1065 39.3427 15.8527 39.6564C15.5735 40.004 15.5143 40.0294 15.2605 39.987C15.0405 39.9446 14.9813 39.9701 14.9221 40.1142C14.8713 40.2753 14.7952 40.2922 14.2876 40.2922C13.9746 40.2922 13.7377 40.3092 13.7631 40.3261C13.7885 40.3516 14.2453 40.4448 14.7783 40.5466C15.3112 40.6398 16.1488 40.7755 16.6394 40.8348C17.4685 40.945 17.5362 40.945 17.6546 40.8009C17.7223 40.7161 17.8576 40.6313 17.9507 40.6059C18.0691 40.5805 18.0438 40.5635 17.8661 40.555C17.7223 40.555 17.4177 40.4872 17.1893 40.4194C16.9524 40.3516 16.6986 40.2244 16.614 40.1396C16.5294 40.0633 16.4618 39.8768 16.4702 39.7157C16.4702 39.5292 16.5464 39.3681 16.7325 39.1901C16.8763 39.046 17.054 38.9358 17.1301 38.9358C17.2062 38.9358 17.2993 38.9612 17.3331 38.9951C17.367 39.029 17.3331 39.1731 17.2655 39.3173C17.1893 39.4529 17.1639 39.6055 17.2062 39.6394C17.2401 39.6733 17.46 39.7242 17.6969 39.7412C17.9253 39.7666 18.0691 39.7666 18.0099 39.7412C17.9592 39.7157 17.9084 39.6309 17.9084 39.5462C17.9084 39.4699 17.993 39.3173 18.0945 39.2071C18.2891 39.0205 18.306 39.0205 19.7696 39.0799C21.1401 39.1308 21.2416 39.1223 21.1401 38.9951C21.0555 38.8679 21.0809 38.8256 21.3093 38.6814C21.4616 38.5882 21.6477 38.5203 21.7153 38.5288C21.783 38.5458 21.9099 38.6899 21.9861 38.851C22.0707 39.0205 22.1383 39.3427 22.1383 39.5886V40.0379C20.9878 40.1227 20.4294 40.1227 20.1503 40.1057C19.7442 40.0718 19.6088 40.0887 19.4735 40.2074C19.3804 40.2922 19.1351 40.4024 18.9236 40.4533L18.5429 40.5381C19.4735 40.4618 19.5158 40.4787 19.5158 40.6313C19.5158 40.7246 19.4566 40.8178 19.3889 40.8433C19.3212 40.8687 19.1266 40.8857 18.9659 40.8857C18.8052 40.8857 18.6444 40.9281 18.6021 40.9874C18.5598 41.0637 19.1435 41.0722 21.0809 41.0213C22.4767 40.9874 23.7542 40.945 23.9149 40.9281C24.0757 40.9196 24.2702 40.8857 24.3379 40.8602C24.4056 40.8348 24.6932 40.7924 24.9724 40.767C25.2516 40.75 26.0299 40.6144 26.7067 40.4703C27.3835 40.3346 28.314 40.1142 28.7793 39.9955C29.2446 39.8768 29.9891 39.6479 30.429 39.4953C30.8689 39.3342 31.8418 38.9782 32.5863 38.6899C33.3307 38.4017 33.9483 38.1473 33.9568 38.1304C33.9737 38.1049 33.6353 37.4013 33.2208 36.562C32.5947 35.3072 32.434 35.0444 32.3071 35.0868C32.231 35.1123 31.2665 35.4344 30.1752 35.8074C29.0839 36.172 27.6373 36.6044 26.9605 36.7654C26.2837 36.918 25.3616 37.1215 24.9132 37.2063C24.4563 37.2995 24.0587 37.3419 24.0249 37.308C23.9911 37.2741 23.898 37.2741 23.8303 37.3165C23.7626 37.3589 23.052 37.4352 22.2652 37.4945C21.1908 37.5708 20.4887 37.5708 19.4735 37.503C18.729 37.4521 17.6462 37.3335 17.0624 37.2402C16.4787 37.1385 15.5481 36.9519 14.9898 36.8078C14.4314 36.6637 13.247 36.3076 12.3672 36.0109C11.4789 35.7142 10.4045 35.3157 9.97305 35.1377L9.19474 34.7986L8.24724 36.2992ZM20.5648 0.988942C20.9117 1.02285 21.0386 1.0822 21.2247 1.29414C21.4108 1.50609 21.4531 1.63326 21.4531 1.98085C21.4531 2.20975 21.4023 2.50648 21.3347 2.63364C21.2754 2.76081 21.1147 2.92189 20.9878 2.99819C20.8609 3.06601 20.5902 3.12536 20.3871 3.12536C20.0911 3.12536 19.9726 3.07449 19.7611 2.87102C19.575 2.68451 19.4819 2.50648 19.4481 2.23518C19.4143 1.98933 19.4396 1.74347 19.5158 1.55696C19.5835 1.39588 19.7527 1.19241 19.888 1.10763C20.0826 0.988942 20.2518 0.963508 20.5648 0.988942ZM20.0065 1.98085C20.0149 2.11649 20.0572 2.31149 20.0995 2.40474C20.1587 2.50648 20.2687 2.5743 20.421 2.5743C20.5563 2.5743 20.7086 2.52343 20.7594 2.46409C20.8186 2.40474 20.8609 2.21823 20.8609 2.04019C20.8609 1.86216 20.8017 1.66717 20.734 1.59935C20.6663 1.52305 20.5648 1.47218 20.5056 1.47218C20.4464 1.4637 20.311 1.53152 20.1926 1.59935C20.0488 1.6926 19.998 1.80281 20.0065 1.98085ZM22.096 1.03981C22.2652 1.07372 22.3921 1.20937 22.849 2.10802L22.8744 1.68412C22.8913 1.44675 22.942 1.21784 22.9759 1.17545C23.0182 1.12459 23.1451 1.09915 23.2635 1.11611C23.475 1.15002 23.475 1.1585 23.4327 1.87912C23.4073 2.28605 23.3735 2.73538 23.3566 2.88798C23.3227 3.14231 23.2889 3.15927 23.0436 3.14231C22.8067 3.12536 22.7305 3.05754 22.2568 2.1928L22.2399 2.5743C22.2314 2.77777 22.1722 2.99819 22.113 3.05754C22.0453 3.11688 21.9268 3.13384 21.8084 3.09992C21.6138 3.04058 21.6138 3.0321 21.673 2.10802C21.7069 1.59087 21.7576 1.13307 21.7999 1.0822C21.8338 1.02285 21.9607 1.0059 22.096 1.03981ZM18.5514 1.13307H18.8221C19.0251 1.13307 19.0928 1.17545 19.1266 1.31958C19.152 1.42131 19.2028 1.85368 19.2451 2.27757C19.3212 2.94732 19.3127 3.04906 19.1858 3.14231C19.1097 3.20166 18.9913 3.24405 18.9236 3.22709C18.8559 3.21861 18.7713 3.07449 18.7375 2.91341C18.6952 2.74386 18.6444 2.27757 18.6106 1.87064L18.5514 1.13307ZM18.0945 1.22632C18.2468 1.21784 18.3399 1.26871 18.3568 1.37044C18.3737 1.44675 18.3652 1.55696 18.3399 1.60782C18.306 1.65869 18.1876 1.72651 17.8576 1.81129L18.0099 2.54886C18.1284 3.15079 18.1368 3.31187 18.0522 3.36274C17.993 3.39665 17.8661 3.4136 17.7731 3.40513C17.6462 3.38817 17.5785 3.26948 17.5023 2.91341C17.4431 2.65908 17.367 2.33692 17.3331 2.20127C17.2739 1.98085 17.2232 1.94694 16.9694 1.94694C16.7325 1.93846 16.6733 1.90455 16.6563 1.75195C16.6394 1.63326 16.6902 1.53152 16.7832 1.49761C16.8594 1.4637 17.1386 1.39588 17.3924 1.33653C17.6462 1.28567 17.9676 1.2348 18.0945 1.22632ZM24.837 1.34501C24.9555 1.37892 25.057 1.41283 25.0739 1.41283C25.0824 1.42131 25.1839 1.90455 25.4885 3.54925L25.7845 2.65908C25.9537 2.14193 26.1314 1.76043 26.1991 1.74347C26.2668 1.73499 26.3852 1.7689 26.4698 1.82825C26.6136 1.93846 26.6136 1.97237 26.4021 2.65908C26.2837 3.05754 26.1991 3.37969 26.2075 3.37969C26.2245 3.37969 26.4021 3.43904 26.6136 3.50686C26.8251 3.57468 27.0028 3.69337 27.0197 3.7612C27.0281 3.82902 27.0028 3.94771 26.9605 4.01553C26.8928 4.12574 26.8167 4.12574 26.3429 3.98162C26.0553 3.89684 25.7253 3.76967 25.6238 3.71033C25.5138 3.64251 25.3446 3.59164 25.2431 3.59164C25.1331 3.59164 25.0062 3.54925 24.947 3.48991C24.8878 3.43056 24.837 3.31187 24.837 3.23557C24.837 3.13384 24.7355 3.05754 24.524 2.99819C24.2364 2.92189 24.1856 2.93885 24.0334 3.13384C23.8895 3.32035 23.8388 3.3373 23.6357 3.261C23.5088 3.21014 23.4158 3.11688 23.4327 3.06601C23.4496 3.00667 23.678 2.63364 23.9488 2.23518C24.2195 1.83673 24.4733 1.4637 24.524 1.40436C24.5832 1.33653 24.7017 1.3111 24.837 1.34501ZM15.8696 1.72651C15.895 1.72651 16.2249 2.08258 16.614 2.53191C16.9947 2.97276 17.3078 3.37969 17.3078 3.42208C17.3078 3.47295 17.2485 3.52382 17.1809 3.54925C17.1132 3.57468 16.9863 3.59164 16.9101 3.59164C16.8255 3.59164 16.6986 3.53229 16.631 3.46447C16.5379 3.36274 16.4364 3.35426 16.208 3.40513C15.9711 3.46447 15.9119 3.51534 15.895 3.70185C15.878 3.86293 15.8019 3.95619 15.6412 4.01553C15.5143 4.0664 15.3789 4.07488 15.3535 4.04097C15.3197 4.00705 15.3197 3.51534 15.3535 2.9558C15.4043 1.98933 15.4127 1.93846 15.6158 1.83673C15.7342 1.77738 15.8442 1.72651 15.8696 1.72651ZM14.2622 2.44713C14.4229 2.47256 14.6175 2.54886 14.6852 2.61669C14.7867 2.71842 14.7952 2.77777 14.719 2.89646C14.6429 3.00667 14.5245 3.0321 14.2284 3.02362C13.9153 3.00667 13.8223 3.0321 13.7546 3.16775C13.6954 3.29491 13.7123 3.42208 13.8223 3.65946C13.9407 3.92228 14.0084 3.97314 14.2199 3.97314C14.406 3.97314 14.4822 3.93075 14.4991 3.80359C14.516 3.71033 14.5921 3.58316 14.6767 3.52382C14.7529 3.46447 14.8798 3.42208 14.9644 3.42208C15.0744 3.42208 15.1082 3.49838 15.1082 3.74424C15.1167 3.97314 15.0574 4.11727 14.8798 4.2953C14.7275 4.43942 14.5245 4.54116 14.3045 4.57507C14.0592 4.60898 13.8984 4.57507 13.7123 4.46486C13.577 4.3716 13.3908 4.15965 13.3147 3.9901C13.2301 3.82054 13.1624 3.53229 13.1624 3.36274C13.1624 3.1847 13.2216 2.9558 13.2978 2.84559C13.3739 2.73538 13.56 2.59125 13.7039 2.52343C13.8477 2.45561 14.1015 2.4217 14.2622 2.44713ZM28.737 2.65908C28.7793 2.65908 28.9316 2.7269 29.067 2.81168C29.2108 2.88798 29.3208 2.99819 29.3208 3.04058C29.3208 3.09145 29.27 3.30339 29.1939 3.53229C29.1262 3.75272 29.1008 3.93075 29.1347 3.93075C29.1685 3.93923 29.3377 3.78663 29.8284 3.25253L30.1245 3.40513C30.2937 3.48143 30.4206 3.59164 30.4206 3.63403C30.4206 3.6849 30.2514 4.02401 30.0483 4.39703C29.8368 4.77006 29.6253 5.14308 29.5576 5.23634C29.4815 5.34655 29.3885 5.37199 29.2616 5.33807C29.1177 5.30416 29.0754 5.23634 29.1008 5.1007C29.1177 4.99048 29.16 4.8294 29.2023 4.73615C29.2446 4.62594 29.1939 4.65985 29.0501 4.82093C28.8555 5.05831 28.8132 5.06678 28.6101 4.97353C28.4156 4.87179 28.3986 4.8294 28.4832 4.1427L28.3056 4.42247C28.2125 4.56659 28.1195 4.69376 28.0941 4.69376C28.0687 4.69376 27.9757 4.65985 27.8826 4.60898C27.7895 4.56659 27.7049 4.49029 27.6965 4.43942C27.688 4.39703 27.8995 3.97314 28.1702 3.50686C28.4409 3.04058 28.6947 2.65908 28.737 2.65908ZM12.401 3.25253C12.4772 3.25253 12.6971 3.54077 12.934 3.94771C13.154 4.33769 13.3316 4.71071 13.3401 4.77854C13.3401 4.84636 13.2555 5.01592 13.1455 5.15156C13.044 5.28721 12.8325 5.45676 12.6802 5.51611C12.5279 5.57545 12.3418 5.62632 12.2741 5.62632C12.2065 5.62632 12.0457 5.54154 11.9188 5.43133C11.7919 5.32112 11.5381 4.98201 11.3605 4.68528C11.1236 4.2953 11.0559 4.10879 11.1151 4.01553C11.1574 3.94771 11.2759 3.87989 11.3774 3.87141C11.5212 3.85445 11.6227 3.96466 11.8765 4.39703C12.0457 4.70224 12.2657 4.97353 12.3587 4.99896C12.4603 5.02439 12.5787 4.99048 12.6548 4.91418C12.7733 4.80397 12.7479 4.72767 12.4264 4.19357C12.2234 3.86293 12.0542 3.56621 12.0457 3.52382C12.0373 3.48991 12.088 3.4136 12.1472 3.35426C12.2149 3.30339 12.3249 3.25253 12.401 3.25253ZM31.0043 4.18509C31.1735 4.18509 31.4357 4.26139 31.588 4.35465C31.7403 4.4479 31.918 4.65985 31.9856 4.82093C32.0871 5.04983 32.0956 5.19395 32.0364 5.43981C31.9856 5.60937 31.8418 5.85522 31.7149 5.98239C31.588 6.10956 31.385 6.2452 31.2665 6.29607C31.1312 6.34694 30.9535 6.34694 30.7589 6.29607C30.5982 6.25368 30.4036 6.1689 30.336 6.10956C30.2598 6.05869 30.1414 5.91457 30.0568 5.79588C29.9806 5.67719 29.913 5.4822 29.913 5.35503C29.913 5.21939 29.9637 5.01592 30.0314 4.88875C30.0906 4.7531 30.2683 4.54964 30.4206 4.42247C30.6067 4.25291 30.7843 4.18509 31.0043 4.18509ZM30.6913 4.98201C30.5898 5.08374 30.5052 5.24482 30.5052 5.35503C30.5052 5.45676 30.5644 5.60089 30.6321 5.66871C30.6997 5.73653 30.8351 5.79588 30.9281 5.79588C31.0212 5.79588 31.1989 5.66871 31.3173 5.52459C31.4357 5.37199 31.5203 5.177 31.5119 5.08374C31.495 4.99896 31.4019 4.88027 31.3088 4.82093C31.2158 4.76158 31.0804 4.73615 31.0127 4.76158C30.9451 4.77854 30.8013 4.88027 30.6913 4.98201ZM20.8101 4.35465C20.8609 4.35465 20.9963 4.64289 21.3262 5.6348L21.9861 5.62632C22.3414 5.62632 22.6544 5.66871 22.6798 5.7111C22.7052 5.76197 22.4852 5.97391 22.1976 6.18586C21.9015 6.39781 21.6561 6.58432 21.6477 6.5928C21.6392 6.5928 21.7238 6.88952 21.8338 7.23711C21.9522 7.5847 22.0453 7.88143 22.0453 7.89838C22.0453 7.90686 21.9776 7.91534 21.9015 7.91534C21.8169 7.91534 21.5546 7.76274 21.3093 7.57622C21.0639 7.38971 20.8355 7.23711 20.8017 7.23711C20.7678 7.24559 20.5056 7.41515 20.2264 7.61861C19.9472 7.83056 19.685 7.97468 19.6511 7.94077C19.6088 7.90686 19.6596 7.62709 19.7527 7.32189C19.8542 7.01669 19.9303 6.71996 19.9303 6.6691C19.9303 6.60975 19.7019 6.39781 19.4312 6.20282C19.152 5.99935 18.9236 5.7874 18.9236 5.73653C18.9151 5.66023 19.1182 5.61784 20.311 5.58393L20.5056 4.97353C20.6156 4.63441 20.7509 4.35465 20.8101 4.35465ZM10.6075 4.6768C10.7344 4.70224 10.929 4.77854 11.039 4.85484C11.149 4.93114 11.3097 5.10917 11.3943 5.24482C11.4789 5.38894 11.555 5.66023 11.555 5.8637C11.555 6.18586 11.5212 6.25368 11.1321 6.60127C10.9036 6.81322 10.6668 6.98278 10.6075 6.98278C10.5483 6.98278 10.2691 6.71149 9.98997 6.37237C9.71079 6.04174 9.42316 5.68567 9.35548 5.60089C9.23704 5.43981 9.25396 5.4059 9.56698 5.14308C9.75309 4.98201 10.0153 4.80397 10.1422 4.74463C10.2776 4.68528 10.4891 4.65137 10.6075 4.6768ZM10.1169 5.60089C10.1845 5.68567 10.3453 5.88066 10.4722 6.03326C10.6921 6.28759 10.726 6.29607 10.8783 6.17738C10.9713 6.10956 11.0475 5.97391 11.0475 5.88066C11.0475 5.7874 10.9375 5.60089 10.7937 5.45676C10.6583 5.32112 10.4976 5.20243 10.4383 5.20243C10.3791 5.21091 10.2522 5.26177 10.1592 5.3296C10.0069 5.43981 10.0069 5.46524 10.1169 5.60089ZM32.967 5.49915L32.747 6.00782C32.6286 6.28759 32.5524 6.52497 32.5778 6.54193C32.6032 6.55041 32.8316 6.44867 33.0854 6.30455C33.483 6.08413 33.5761 6.06717 33.7199 6.16043C33.813 6.21129 33.906 6.31303 33.9314 6.37237C33.9568 6.43172 33.8214 6.55888 33.6184 6.67757C33.4154 6.78779 32.9924 7.00821 32.6624 7.17777C32.1041 7.45754 32.0618 7.46601 31.8757 7.33037C31.7741 7.25407 31.6895 7.16081 31.6895 7.10994C31.6895 7.06755 31.8503 6.64366 32.0449 6.17738C32.2394 5.7111 32.434 5.27873 32.4848 5.21939C32.5609 5.13461 32.6117 5.15156 32.967 5.49915ZM8.9917 5.79588C9.05092 5.79588 9.14398 5.8637 9.18628 5.94848C9.2455 6.05869 9.19474 6.16043 8.93249 6.43172C8.74637 6.61823 8.59409 6.79626 8.59409 6.83865C8.59409 6.87256 8.64485 6.898 8.70407 6.898C8.76329 6.898 8.94941 6.75387 9.1186 6.57584C9.39778 6.30455 9.44854 6.27912 9.56698 6.38085C9.64312 6.44019 9.70233 6.56736 9.70233 6.65214C9.69387 6.7454 9.55852 6.91495 9.39778 7.0506C9.13552 7.25407 9.1186 7.29646 9.22858 7.40667C9.33856 7.51688 9.38932 7.49992 9.67695 7.21168C9.87153 7.00821 10.0576 6.898 10.1592 6.91495C10.2522 6.93191 10.3368 7.01669 10.3537 7.10994C10.3791 7.22863 10.2268 7.4321 9.88845 7.77122C9.61773 8.03403 9.36394 8.25445 9.31318 8.25445C9.27088 8.25445 8.90711 7.93229 7.7904 6.80474L8.33184 6.29607C8.62793 6.02478 8.92403 5.79588 8.9917 5.79588ZM34.1937 6.75387C34.2529 6.76235 34.4898 6.99973 34.7266 7.2795C34.9635 7.55927 35.1581 7.83904 35.1581 7.89838C35.1581 7.94925 35.0819 8.04251 34.9889 8.0849C34.8451 8.1612 34.7774 8.11881 34.5236 7.83056C34.3629 7.64405 34.1937 7.49145 34.1429 7.49145C34.1006 7.49145 34.0583 7.54231 34.0668 7.60166C34.0668 7.65253 34.1852 7.83904 34.5828 8.29684L34.219 8.63596L33.906 8.27989C33.6691 8.00859 33.5676 7.94077 33.4661 8.00012C33.3815 8.05946 33.3646 8.11881 33.4238 8.20359C33.4746 8.26293 33.6184 8.45792 33.7453 8.62748C33.9314 8.88181 33.9568 8.95811 33.8722 9.06833C33.813 9.13615 33.7199 9.19549 33.6607 9.19549C33.6015 9.18701 33.3392 8.94116 33.0854 8.63596C32.8316 8.33075 32.6286 8.05098 32.6455 8.00012C32.654 7.95773 32.9839 7.65253 33.3815 7.32189C33.7791 6.99973 34.1429 6.73692 34.1937 6.75387ZM17.3162 7.3558C17.3585 7.38971 17.4685 7.67796 17.7308 8.59357L18.4245 8.619C18.8052 8.62748 19.1266 8.67834 19.1435 8.72073C19.1605 8.7716 18.9236 8.98355 18.0691 9.61091L18.2806 10.2298C18.3991 10.5604 18.4921 10.8656 18.4921 10.908C18.4921 10.9419 18.4498 10.9674 18.3906 10.9674C18.3314 10.9674 18.0522 10.7978 17.2655 10.2213L16.7579 10.5943C16.4787 10.7978 16.208 10.9674 16.1488 10.9674C16.0895 10.9674 16.0388 10.9335 16.0303 10.8995C16.0219 10.8572 16.1149 10.5519 16.4618 9.61091L15.9119 9.2294C15.6073 9.01746 15.3789 8.79703 15.3958 8.74617C15.4127 8.66987 15.6412 8.62748 16.7579 8.59357L16.8763 8.2375C16.9355 8.03403 17.0455 7.74578 17.1132 7.59318C17.1809 7.44058 17.2739 7.33037 17.3162 7.3558ZM23.9149 7.3558C23.9572 7.38971 24.0757 7.67796 24.3717 8.59357H25.0316C25.3869 8.59357 25.6999 8.63596 25.7253 8.67834C25.7507 8.72921 25.5392 8.94116 25.26 9.17006C24.9809 9.39048 24.7524 9.61938 24.7524 9.67873C24.7524 9.7296 24.8286 10.0178 24.9216 10.3146C25.0147 10.6028 25.057 10.8741 25.0232 10.908C24.9893 10.9504 24.7186 10.8063 24.414 10.5943C24.1095 10.3824 23.8303 10.2383 23.7796 10.2637C23.7373 10.2976 23.4835 10.4672 23.2297 10.6537C22.9759 10.8402 22.739 10.9504 22.7052 10.9165C22.6713 10.8741 22.739 10.5604 23.0605 9.61091L22.536 9.2294C22.2399 9.01746 22.003 8.79703 22.003 8.73769C22.003 8.66987 22.2229 8.62748 23.3566 8.59357L23.475 8.2375C23.5342 8.03403 23.6442 7.74578 23.7119 7.59318C23.7796 7.44058 23.8726 7.33037 23.9149 7.3558ZM35.4542 8.33923C35.5049 8.33923 35.6149 8.4664 35.8772 8.93268L35.5388 9.28027C35.2342 9.60243 35.2258 9.62786 35.4119 9.577C35.5303 9.55156 35.7587 9.5007 35.9195 9.47526C36.1902 9.43287 36.2325 9.45831 36.3678 9.68721C36.444 9.83133 36.4947 9.99241 36.4694 10.0348C36.444 10.0857 36.0633 10.3315 35.6234 10.5859C34.955 10.9758 34.8028 11.0352 34.6928 10.9504C34.6166 10.8911 34.5659 10.7724 34.5659 10.6961C34.5659 10.6113 34.6759 10.4841 35.0312 10.2891L34.7774 10.34C34.642 10.3739 34.5067 10.4163 34.4813 10.4333C34.4559 10.4502 34.3713 10.3909 34.2867 10.3146C34.2106 10.2298 34.1429 10.1111 34.1429 10.0602C34.1429 10.0009 34.2529 9.85676 34.3798 9.73807C34.5067 9.61938 34.5744 9.52613 34.5236 9.52613C34.4813 9.53461 34.3629 9.58547 34.2698 9.66177C34.1767 9.7296 34.0668 9.78894 34.016 9.78894C33.9737 9.78894 33.8891 9.68721 33.8299 9.56852C33.7368 9.38201 33.7453 9.34809 33.9145 9.23788C34.016 9.17006 34.3882 8.94116 34.7351 8.72921C35.0819 8.51727 35.4119 8.33923 35.4542 8.33923ZM6.5468 8.59357C6.58064 8.59357 6.89366 8.78008 7.875 9.43287L8.12034 9.0768C8.2557 8.88181 8.38259 8.71226 8.39951 8.70378C8.41643 8.68682 8.50103 8.72073 8.59409 8.76312C8.68715 8.81399 8.76329 8.89029 8.76329 8.93268C8.76329 8.98355 8.60255 9.25484 8.40797 9.55156C8.22186 9.83981 8.03574 10.0941 8.01036 10.1196C7.98498 10.145 7.90038 10.2807 7.8327 10.4163C7.73118 10.6113 7.63813 10.6791 7.42663 10.6961C7.22359 10.713 7.13053 10.7724 7.02902 10.9674C6.91904 11.1963 6.91904 11.2387 7.02902 11.3913C7.14745 11.5439 7.13899 11.6117 6.96134 12.0949C6.85136 12.3832 6.69908 12.7986 6.62294 13.0275C6.5468 13.2479 6.43682 13.4514 6.3776 13.4768C6.31839 13.5022 5.88693 13.3835 5.42164 13.214C4.95635 13.0444 4.55027 12.8834 4.50797 12.8494C4.47413 12.8155 4.55027 12.4849 4.68563 12.1119C4.88021 11.5693 4.96481 11.4336 5.10862 11.4167C5.21014 11.3997 5.32012 11.4421 5.3455 11.5015C5.37088 11.5523 5.33704 11.7982 5.2609 12.0271C5.1763 12.3069 5.15938 12.4849 5.21014 12.5358C5.26654 12.5923 5.33422 12.5216 5.41318 12.3238C5.4724 12.1627 5.54854 11.9593 5.58238 11.883C5.60776 11.7982 5.70928 11.7304 5.80233 11.7304C5.89539 11.7304 5.99691 11.7812 6.02229 11.8406C6.04767 11.8914 6.01383 12.1203 5.93769 12.3492C5.86155 12.5697 5.81925 12.7477 5.84463 12.7477C5.87001 12.7477 5.94615 12.7647 6.01383 12.7901C6.10689 12.824 6.18303 12.7138 6.28455 12.434C6.36069 12.2051 6.48758 11.9847 6.55526 11.9254C6.6737 11.8321 6.61448 11.7388 6.08151 11.1454C5.48086 10.4756 5.4724 10.4502 5.57392 10.2044C5.63314 10.0602 5.71774 9.94154 5.76003 9.95002C5.81079 9.95002 6.26763 9.99241 6.77522 10.0348C7.29127 10.0857 7.71426 10.1196 7.73118 10.1026C7.73964 10.0857 7.42663 9.85676 7.02902 9.59395C6.63986 9.32266 6.30993 9.05985 6.30147 9.00898C6.30147 8.96659 6.33531 8.8479 6.39453 8.75465C6.44528 8.66987 6.51296 8.59357 6.5468 8.59357ZM20.4548 9.95002C20.8524 9.95002 20.954 9.98393 20.9963 10.1026C21.0216 10.1789 21.0301 12.0101 21.0132 14.1635C21.0047 16.3169 21.0047 18.0972 21.0301 18.1311C21.0555 18.1566 21.5292 17.9192 23.1028 17.0036L23.1451 14.1635C23.1704 12.6036 23.2043 11.298 23.2297 11.2726C23.255 11.2387 23.4581 11.2132 23.6865 11.1963C23.9149 11.1878 24.1603 11.2217 24.2195 11.2641C24.3125 11.3319 24.3379 11.6795 24.3379 12.9003C24.3294 13.7481 24.3633 14.4433 24.3971 14.4433C24.431 14.4348 26.0722 13.6379 28.0518 12.6714C30.8435 11.298 31.6726 10.925 31.7572 11.0013C31.8249 11.0521 31.8587 11.1454 31.8418 11.1963C31.8334 11.2556 30.6744 12.0949 29.27 13.0614C27.8741 14.0363 26.7236 14.8502 26.7151 14.8926C26.7067 14.9265 26.9266 15.0706 27.2058 15.2063C27.6203 15.4182 27.7134 15.4945 27.6965 15.6556C27.6796 15.8082 27.3665 16.0032 26.0214 16.6984C24.7101 17.3766 24.3717 17.5886 24.3548 17.7327C24.3295 17.9107 24.3802 17.8938 25.0316 17.5462C25.4123 17.3427 26.8336 16.6136 28.1787 15.9184C29.5323 15.2232 30.6659 14.6722 30.6997 14.6807C30.7336 14.6891 30.7589 14.6722 30.7589 14.6383C30.7589 14.5959 30.9112 14.4941 31.0973 14.4009C31.3765 14.2652 31.4611 14.2568 31.5457 14.3415C31.6134 14.4178 31.6219 14.4941 31.5626 14.5874C31.5203 14.6552 29.8791 15.6387 24.3717 18.8263L24.3294 29.7882L27.3327 29.8306L27.375 30.8903H14.1776L14.2199 29.8306L16.8848 29.7882V27.5415C16.8848 26.3038 16.8763 25.2949 16.8678 25.2949C16.8509 25.2949 15.4381 25.9816 13.7123 26.8294C11.995 27.6772 10.1084 28.5928 9.52468 28.8726C8.94095 29.1439 8.42489 29.3558 8.36567 29.3304C8.30646 29.3049 8.2557 29.2286 8.2557 29.1778C8.2557 29.1184 8.31492 29.0082 8.39105 28.9404C8.47565 28.8726 9.32164 28.2706 10.2776 27.6094C11.242 26.9481 12.5702 26.0325 14.4483 24.7439L13.78 24.4471C13.4162 24.2776 13.0947 24.0995 13.0609 24.0402C13.0271 23.9893 13.0186 23.8876 13.0355 23.8367C13.0609 23.7774 13.9407 23.2857 14.9813 22.7516C16.6817 21.8783 16.8848 21.7512 16.8848 21.5647C16.8932 21.4036 16.8678 21.3782 16.7832 21.446C16.724 21.4968 15.6158 22.0818 14.3299 22.7431C13.0355 23.3959 11.9442 23.9215 11.8934 23.8961C11.8511 23.8706 11.8088 23.7859 11.8088 23.7096C11.8088 23.5993 12.5364 23.1331 16.8932 20.5897V15.9099C16.8848 11.5184 16.8932 11.2217 17.037 11.1878C17.1132 11.1708 17.3331 11.1624 17.5193 11.1793C17.7054 11.1963 17.8915 11.2132 17.9253 11.2132C17.9592 11.2217 17.993 13.1886 18.0268 19.9454L19.8457 18.8941L19.8288 14.4772C19.8288 12.0525 19.8542 10.0348 19.888 10.0094C19.9303 9.97545 20.1841 9.95002 20.4548 9.95002ZM24.3379 15.7997C24.3379 16.0286 24.3633 16.2236 24.3971 16.2236C24.431 16.2236 24.5832 16.1473 24.7355 16.0541C24.9301 15.9354 24.9893 15.8506 24.9301 15.7828C24.8878 15.7234 24.7355 15.6047 24.6002 15.52L24.3464 15.3674L24.3379 15.7997ZM21.0978 19.2078C21.0978 19.1824 21.0724 19.2333 21.0386 19.3265C20.9963 19.4198 20.9793 19.5215 20.9963 19.5554C21.0216 19.5893 21.4785 19.3859 22.0284 19.0976C22.5698 18.8094 23.052 18.555 23.0858 18.5296C23.1281 18.4957 23.1451 18.4109 23.1197 18.3346C23.0943 18.2159 22.9167 18.2837 22.0876 18.7246C21.5377 19.0213 21.0893 19.2417 21.0978 19.2078ZM21.0555 20.7508C21.0386 20.7593 21.0301 22.4803 21.0301 24.5828C21.0301 26.6768 21.0301 28.7115 21.0301 29.093V29.7966H23.1451C23.1451 21.9123 23.1197 19.6232 23.0858 19.6232C23.052 19.6232 22.5783 19.8776 22.0453 20.1828C21.5123 20.488 21.0639 20.7423 21.0555 20.7508ZM18.0268 20.9288C17.9845 20.9966 17.9592 21.073 17.9845 21.0984C18.0099 21.1323 18.4414 20.9543 18.9405 20.6999C19.6934 20.3354 19.8457 20.2252 19.8457 20.0641C19.8457 19.9624 19.8373 19.8776 19.8288 19.8776C19.8119 19.8776 19.4227 20.0895 18.9574 20.3439C18.4921 20.5897 18.0776 20.8525 18.0268 20.9288ZM17.9676 22.5311L17.9845 29.7966H19.8457C19.8457 23.3535 19.8373 21.4884 19.8288 21.4884C19.8119 21.4884 19.3889 21.7173 18.8898 22.0055L17.9676 22.5311ZM16.4364 23.4213L16.0472 23.6502L16.8425 24.2776C16.8848 23.7859 16.8763 23.5485 16.8594 23.4213L16.8255 23.1924L16.4364 23.4213ZM36.7147 10.5774C36.8162 10.5859 36.9516 10.7893 37.1208 11.1878C37.2646 11.5184 37.3577 11.8491 37.3238 11.9254C37.2984 12.0101 37.1969 12.078 37.1039 12.078C36.9854 12.078 36.8839 11.9593 36.757 11.671C36.6639 11.4506 36.5709 11.2641 36.5455 11.2471C36.5286 11.2387 36.4778 11.2471 36.4271 11.2726C36.3763 11.298 36.4101 11.476 36.5201 11.7134C36.6809 12.1034 36.6809 12.1203 36.537 12.2306C36.4524 12.2899 36.3509 12.3238 36.3002 12.3069C36.2579 12.2899 36.131 12.0949 36.0294 11.883C35.8941 11.6117 35.7926 11.493 35.708 11.5269C35.6403 11.5523 35.5811 11.5947 35.5811 11.6286C35.5811 11.671 35.6572 11.8745 35.7503 12.0949C35.8856 12.4256 35.9026 12.5273 35.818 12.629C35.7587 12.7053 35.6572 12.7647 35.6065 12.7562C35.5472 12.7562 35.3611 12.4679 35.2004 12.1203C35.0396 11.7728 34.8958 11.4336 34.8874 11.3743C34.8874 11.3065 35.2258 11.12 35.7164 10.908C36.1733 10.713 36.6216 10.5604 36.7147 10.5774ZM37.4253 12.3408C37.4761 12.3323 37.5776 12.4256 37.6368 12.5358C37.7299 12.7308 37.7045 12.7816 37.3407 13.214C37.1123 13.4768 36.9431 13.6887 36.96 13.6887C36.9685 13.6887 37.1715 13.6294 37.3999 13.5531C37.806 13.4175 37.8314 13.4175 37.9329 13.5701C37.9921 13.6548 38.0344 13.782 38.0344 13.8329C38.0344 13.9007 37.6622 14.0533 37.1715 14.1974C36.6893 14.3415 36.2663 14.4772 36.2156 14.4941C36.1733 14.5111 36.0802 14.4772 36.021 14.4263C35.9618 14.367 35.9195 14.2483 35.9195 14.155C35.9195 14.0618 36.0717 13.8074 36.2579 13.5785C36.444 13.3581 36.5878 13.1801 36.5793 13.1801C36.5624 13.1801 36.3763 13.2394 36.1563 13.3072C35.7926 13.4175 35.7418 13.4175 35.6657 13.3072C35.6234 13.2394 35.5895 13.1123 35.6065 13.036C35.6149 12.9342 35.8687 12.8155 36.4694 12.6205C36.9347 12.4679 37.3661 12.3408 37.4253 12.3408ZM5.21014 13.409C5.37088 13.4344 5.62468 13.5192 5.76003 13.5955C5.90385 13.6718 6.06459 13.8498 6.13227 13.9855C6.22533 14.1889 6.22533 14.3246 6.14919 14.7061C6.08997 14.9604 6.01383 15.2317 5.97153 15.2995C5.90385 15.4098 5.76849 15.3928 4.92251 15.1893C4.3134 15.0452 3.94116 14.918 3.94116 14.8502C3.94116 14.7993 4.00038 14.5365 4.06806 14.2822C4.13574 14.0279 4.2711 13.7311 4.37262 13.6294C4.46567 13.5277 4.62641 13.4259 4.72793 13.409C4.82945 13.392 5.04941 13.392 5.21014 13.409ZM4.60103 14.3246C4.58411 14.4687 4.66025 14.5111 5.05787 14.6213C5.32858 14.6891 5.557 14.7315 5.58238 14.7061C5.5993 14.6807 5.63314 14.5789 5.66698 14.4687C5.70082 14.3331 5.66698 14.2483 5.53162 14.1635C5.42164 14.1042 5.23552 14.0279 5.11708 13.994C4.99019 13.9685 4.83791 13.994 4.76177 14.0533C4.69409 14.1042 4.61795 14.2313 4.60103 14.3246ZM37.9329 14.3839C38.1529 14.4094 38.1613 14.4433 38.2629 15.13C38.3221 15.5284 38.3475 15.9015 38.3305 15.9523C38.3052 16.0117 38.1952 16.0625 38.0767 16.0625C37.9075 16.0625 37.8568 16.0117 37.8229 15.8082C37.7891 15.5878 37.7553 15.5539 37.5522 15.5878C37.4169 15.6132 37.0531 15.6556 36.1563 15.7658L36.1902 15.4691C36.2156 15.1808 36.224 15.1724 36.6809 15.1045C36.9347 15.0706 37.2731 15.0198 37.4253 15.0028C37.6707 14.9604 37.696 14.935 37.7045 14.6552C37.713 14.3839 37.7299 14.3585 37.9329 14.3839ZM4.26264 15.3504C4.44029 15.3758 4.88021 15.4352 5.25244 15.4945C5.90385 15.5878 5.92923 15.6047 5.95461 15.8252C5.96307 15.9608 5.92077 16.0795 5.87001 16.1134C5.81079 16.1388 5.45548 16.1134 5.08325 16.0625C4.71101 16.0117 4.27956 15.9523 4.13574 15.9354C3.92424 15.9015 3.85656 15.8506 3.85656 15.7234C3.85656 15.6302 3.88194 15.4945 3.90732 15.4267C3.94116 15.3335 4.03422 15.308 4.26264 15.3504ZM15.9119 31.7889L15.9373 33.7982C15.9457 35.1038 15.9288 35.8159 15.8696 35.8159C15.8273 35.8159 15.4973 35.8159 15.1505 35.8159C14.8036 35.8159 14.4822 35.8159 14.4314 35.8159C14.3806 35.8159 14.3468 35.1207 14.3468 33.9084C14.3468 32.8571 14.3722 31.9415 14.3976 31.8737C14.4399 31.7635 14.5921 31.7466 15.9119 31.7889ZM20.734 31.7889V32.7215L19.5919 32.7639C18.4837 32.8063 18.4498 32.8148 18.4329 32.9928C18.4075 33.1878 18.4245 33.1878 20.5648 33.2302V34.1627L18.4075 34.2051L18.4498 34.7901L20.8186 34.841L20.844 35.2818C20.8609 35.6803 20.8355 35.7396 20.6748 35.8074C20.5648 35.8498 19.7611 35.8837 18.8728 35.8922C17.993 35.8922 17.1639 35.8753 16.8002 35.8159L16.7832 33.8406C16.7832 32.7469 16.8086 31.8313 16.8425 31.7974C16.8848 31.772 17.7731 31.755 20.734 31.7889ZM23.3989 31.7466L23.6527 32.5689C23.788 33.0267 23.9234 33.5099 23.9572 33.6541C24.0164 33.883 24.0587 33.7897 24.7101 31.7889H26.6559L26.6813 33.7982C26.6982 35.3581 26.6728 35.8159 26.5967 35.8329C26.5375 35.8329 26.3006 35.8498 26.0637 35.8668C25.8353 35.8753 25.5731 35.8668 25.4969 35.8498C25.3616 35.8159 25.3446 35.6803 25.3023 33.5862L24.9639 34.7053C24.7778 35.3157 24.5917 35.8244 24.5409 35.8244C24.4986 35.8244 24.2871 35.8414 24.0757 35.8583C23.8642 35.8753 23.6357 35.8753 23.5681 35.8583C23.4919 35.8329 23.3143 35.409 22.7644 33.5693L22.7475 34.6884C22.7221 35.782 22.7221 35.8159 22.536 35.8414C22.426 35.8498 22.1214 35.8498 21.3685 35.8159L21.3516 33.8406C21.3516 32.7469 21.377 31.8313 21.4108 31.8059C21.4531 31.772 21.9099 31.7466 23.3989 31.7466ZM16.8594 41.92C16.9186 41.92 17.0032 41.9878 17.037 42.0641C17.0793 42.1489 17.1047 42.3862 17.1047 42.5897C17.0963 42.844 17.054 42.9882 16.9524 43.056C16.8425 43.1238 16.7579 43.1238 16.6563 43.056C16.5464 42.9882 16.4956 42.8356 16.4872 42.5473C16.4702 42.2336 16.5041 42.1065 16.6056 42.0217C16.6902 41.9708 16.8002 41.92 16.8594 41.92ZM17.367 41.92C17.4093 41.92 17.477 41.9539 17.5193 41.9878C17.57 42.0217 17.5954 42.2845 17.5869 42.5728C17.5616 43.0221 17.5362 43.1069 17.4177 43.0814C17.2993 43.0645 17.257 42.9627 17.2316 42.6067C17.2147 42.3523 17.2232 42.098 17.2485 42.0387C17.2824 41.9708 17.3331 41.92 17.367 41.92ZM21.3516 41.92C21.4023 41.92 21.5123 41.9793 21.58 42.0471C21.6477 42.115 21.7069 42.2845 21.7069 42.4286C21.7069 42.5643 21.673 42.7762 21.6223 42.8949C21.5631 43.039 21.47 43.1069 21.3262 43.1069C21.2078 43.1069 21.0978 43.0645 21.0724 43.0221C21.047 42.9712 21.0216 42.7423 21.0132 42.5134C20.9963 42.2082 21.0216 42.0556 21.1147 42.0047C21.1824 41.9539 21.2924 41.92 21.3516 41.92ZM22.1214 41.9115C22.1976 41.9115 22.3075 41.9623 22.3668 42.0217C22.426 42.0895 22.4598 42.3015 22.4514 42.5473C22.4344 42.8356 22.3837 42.9882 22.2822 43.056C22.1722 43.1238 22.0876 43.1238 21.9861 43.056C21.8845 42.9882 21.8253 42.8356 21.8169 42.5473C21.7999 42.3184 21.8338 42.081 21.8845 42.0217C21.9353 41.9708 22.0453 41.92 22.1214 41.9115ZM22.8828 41.92C22.959 41.92 23.0689 41.9623 23.1281 42.0217C23.1874 42.081 23.2297 42.3269 23.2297 42.5728C23.2297 42.8949 23.1958 43.0306 23.1028 43.0645C23.0351 43.0899 22.9167 43.1069 22.849 43.1069C22.7813 43.1069 22.6713 43.0051 22.6206 42.8864C22.5275 42.7084 22.536 42.6575 22.629 42.6151C22.7221 42.5643 22.7221 42.5219 22.629 42.3693C22.5275 42.2167 22.5275 42.1658 22.629 42.0556C22.6882 41.9793 22.8067 41.92 22.8828 41.92ZM20.7002 42.0047C20.8355 42.0047 20.8524 42.0726 20.8355 42.5304C20.8271 42.9373 20.7932 43.0645 20.6917 43.0645C20.6071 43.0645 20.5563 42.9627 20.5394 42.7677C20.5225 42.6067 20.4717 42.4202 20.4294 42.3608C20.3871 42.3015 20.3871 42.2082 20.4464 42.1319C20.4971 42.0641 20.6156 42.0047 20.7002 42.0047ZM18.0184 42.1234C18.1453 42.1234 18.2891 42.1658 18.3314 42.2167C18.3737 42.2591 18.3991 42.471 18.3906 42.683C18.3652 43.056 18.3652 43.0645 18.0691 43.0645C17.7815 43.0645 17.7731 43.056 17.7477 42.683C17.7392 42.471 17.7392 42.2591 17.7561 42.2082C17.7731 42.1489 17.8915 42.115 18.0184 42.1234ZM18.7882 42.0895C18.8305 42.0895 18.9321 42.1234 18.9997 42.1743C19.0759 42.2252 19.1182 42.3608 19.1097 42.5304C19.1012 42.683 19.0674 42.878 19.042 42.9543C19.0167 43.039 18.9321 43.1069 18.8559 43.1069C18.7713 43.1069 18.6529 43.0645 18.5937 43.0051C18.5344 42.9458 18.4837 42.7593 18.4752 42.5897C18.4668 42.4202 18.5091 42.2506 18.5767 42.1913C18.6444 42.1319 18.7375 42.0895 18.7882 42.0895ZM19.5665 42.0895C19.6258 42.0895 19.7357 42.1489 19.8034 42.2167C19.8711 42.2845 19.9303 42.4371 19.9303 42.5558C19.9303 42.6745 19.8965 42.844 19.8457 42.9373C19.8034 43.0306 19.6934 43.1069 19.6173 43.1069C19.5327 43.1069 19.4143 43.0645 19.355 43.0051C19.2958 42.9458 19.2451 42.7593 19.2366 42.5897C19.2281 42.4202 19.2704 42.2506 19.3381 42.1913C19.4058 42.1319 19.5073 42.0895 19.5665 42.0895ZM28.6017 36.4941C28.6694 36.4941 28.7455 36.5535 28.7709 36.6213C28.7963 36.6891 28.8132 36.8163 28.8132 36.8926C28.8132 36.9774 28.7032 37.13 28.5594 37.2317C28.424 37.3419 28.2464 37.4267 28.1787 37.4267C28.111 37.4267 28.0095 37.3419 27.9587 37.2317C27.908 37.13 27.8911 36.9943 27.9164 36.935C27.9418 36.8841 28.0264 36.8502 28.0941 36.8756C28.1702 36.9011 28.221 36.8672 28.221 36.7909C28.221 36.7146 28.2717 36.6807 28.3479 36.7061C28.424 36.7315 28.4748 36.6976 28.4748 36.6213C28.4748 36.5535 28.534 36.4941 28.6017 36.4941ZM31.588 36.4941C31.6642 36.4857 31.8587 36.5789 32.0195 36.6807C32.1802 36.7909 32.3832 36.9689 32.4678 37.0876C32.5863 37.2487 32.6117 37.3674 32.5609 37.5878C32.5271 37.7489 32.4002 37.9693 32.2817 38.088C32.1633 38.1982 31.9856 38.3254 31.8841 38.3677C31.7741 38.4101 31.478 38.444 31.2242 38.444C30.9704 38.444 30.7589 38.4017 30.7589 38.3593C30.7589 38.3084 30.9366 38.1728 31.1566 38.0371C31.3681 37.9099 31.6219 37.7234 31.7065 37.6132C31.7911 37.5115 31.8418 37.3843 31.8164 37.3419C31.7911 37.2911 31.6388 37.2571 31.478 37.2571C31.2665 37.2571 31.1819 37.2148 31.1735 37.1215C31.1735 37.0537 31.2327 36.8841 31.3088 36.74C31.3765 36.6044 31.5034 36.4941 31.588 36.4941ZM29.693 36.918C29.7438 36.918 29.8707 37.0028 29.9722 37.1045C30.0737 37.2148 30.2514 37.5115 30.3698 37.7658C30.4882 38.0202 30.5644 38.2575 30.5475 38.2914C30.5221 38.3338 30.226 38.4356 29.896 38.5373C29.3715 38.6899 29.3039 38.7238 29.4308 38.8086C29.5661 38.9019 29.5661 38.9273 29.4477 39.0968C29.3546 39.241 29.2362 39.2918 29.0247 39.2918C28.8639 39.2918 28.7117 39.2494 28.6863 39.2071C28.6609 39.1562 28.6947 39.0629 28.754 38.9866C28.8047 38.9188 28.8386 38.8595 28.8132 38.8679C28.7878 38.8679 28.5848 38.9273 28.3479 38.9951C28.1195 39.0629 27.7642 39.1223 27.5696 39.1223C27.2989 39.1223 27.155 39.0714 26.9943 38.9103C26.8759 38.7916 26.7828 38.5966 26.7828 38.461C26.7744 38.3338 26.8505 38.1388 27.1212 37.8082L27.4173 38.2067L28.3648 37.9184C29.1262 37.6895 29.2954 37.6132 29.2108 37.5284C29.1347 37.4437 29.16 37.3674 29.3546 37.1724C29.4984 37.0282 29.6507 36.918 29.693 36.918ZM25.8015 37.503C25.903 37.503 26.0383 37.5624 26.106 37.6387C26.216 37.7573 26.216 37.7913 26.0637 37.9439C25.9453 38.0625 25.8353 38.0965 25.683 38.0625C25.5646 38.0286 25.4377 37.9693 25.3869 37.9269C25.3362 37.8845 25.3616 37.7913 25.4631 37.681C25.5561 37.5878 25.7084 37.5115 25.8015 37.503ZM20.6748 38.0202C20.7255 38.0202 20.8524 38.0541 20.9455 38.1049C21.0386 38.1473 21.1147 38.2236 21.1147 38.2745C21.1147 38.3169 21.0301 38.4186 20.9286 38.4864C20.7678 38.5966 20.7002 38.5966 20.4971 38.5119C20.3702 38.4525 20.2603 38.3593 20.2518 38.2999C20.2433 38.2406 20.311 38.1558 20.4041 38.1134C20.4887 38.0625 20.6156 38.0202 20.6748 38.0202ZM26.0214 38.1049C26.0722 38.1049 26.2075 38.1728 26.3429 38.2575C26.4698 38.3508 26.639 38.5543 26.7236 38.7238C26.8505 39.0121 26.8589 39.0629 26.7405 39.3342C26.6728 39.4953 26.4867 39.7072 26.3429 39.8005C26.1483 39.9192 25.9114 39.9701 25.5815 39.9701C25.3108 39.9701 25.0316 39.9531 24.9639 39.9277C24.8963 39.9022 24.837 39.8598 24.837 39.8175C24.8286 39.7835 25.0739 39.6394 25.3616 39.4953C25.6576 39.3512 25.9453 39.1647 26.0045 39.0884C26.0891 38.9697 26.0722 38.9358 25.8945 38.8679C25.7761 38.8171 25.6492 38.7832 25.5984 38.7832C25.5561 38.7832 25.5138 38.7323 25.5138 38.6729C25.5054 38.6136 25.6069 38.461 25.7253 38.3338C25.8438 38.2067 25.9791 38.1049 26.0214 38.1049ZM23.5004 38.2745C23.5596 38.2745 23.7373 38.3508 23.8895 38.444C24.0334 38.5373 24.2195 38.7238 24.2871 38.8679C24.3548 39.0036 24.414 39.2749 24.414 39.4614C24.414 39.6988 24.3717 39.8259 24.2702 39.8768C24.1856 39.9192 23.7796 39.987 23.3566 40.0209C22.629 40.0803 22.5952 40.0718 22.4937 39.9022C22.4344 39.8005 22.3752 39.5886 22.3668 39.436C22.3414 39.1731 22.3498 39.1647 22.7221 39.1392C22.9336 39.1308 23.1958 39.0968 23.3143 39.0799C23.4327 39.0545 23.4919 39.0036 23.4581 38.9697C23.4158 38.9358 23.3058 38.9103 23.2127 38.9103C23.1112 38.9103 23.0182 38.8595 23.0013 38.8001C22.9928 38.7492 23.0689 38.6051 23.1874 38.4864C23.2973 38.3677 23.4412 38.2745 23.5004 38.2745ZM30.1498 39.1308C30.2852 39.1223 30.3275 39.1647 30.319 39.2664C30.3021 39.3766 30.0906 39.4868 29.6169 39.6479C29.2446 39.7751 28.8555 39.8768 28.754 39.8853C28.644 39.8853 28.5594 39.8344 28.5594 39.7666C28.5594 39.6988 28.7201 39.5801 28.9147 39.5123C29.1177 39.436 29.4307 39.3257 29.6169 39.2579C29.803 39.1986 30.0399 39.1392 30.1498 39.1308ZM26.5544 39.9785C26.5882 39.9701 26.6136 40.0464 26.6136 40.1396C26.6136 40.2753 26.5206 40.3346 26.1737 40.4279C25.9284 40.4957 25.59 40.572 25.4292 40.6059C25.2685 40.6398 25.0655 40.6737 24.9893 40.6992C24.8793 40.7246 24.8455 40.6822 24.854 40.5635C24.8624 40.4448 24.9809 40.3685 25.2939 40.2753C25.5308 40.2074 25.8945 40.1142 26.106 40.0718C26.3175 40.0209 26.5121 39.987 26.5544 39.9785Z" fill="#1850DB"/>
</g>
<defs>
<clipPath id="clip0_619_18799">
<rect width="39" height="44" fill="white" transform="translate(0.978027 0.956543)"/>
</clipPath>
</defs>
</svg>
