<svg width="121" height="121" viewBox="0 0 121 121" fill="none" xmlns="http://www.w3.org/2000/svg">
<path d="M100.578 63.0329C100.566 44.6753 103.326 39.8153 93.3776 24.3065C83.4296 8.79768 59.0432 5.36328 40.6016 16.8665C22.16 28.3697 17.2016 43.1633 17.2016 43.1633C17.2016 43.1633 10.5104 60.4433 19.9136 77.8433C28.5128 93.7601 45.4472 102.803 60.1352 110.243H97.6928C99.9758 108.319 101.917 106.023 103.434 103.451C111.082 90.5801 100.592 81.3905 100.578 63.0329Z" fill="#1850DB"/>
<path opacity="0.7" d="M100.578 63.0329C100.566 44.6753 103.326 39.8153 93.3776 24.3065C83.4296 8.79768 59.0432 5.36328 40.6016 16.8665C22.16 28.3697 17.2016 43.1633 17.2016 43.1633C17.2016 43.1633 10.5104 60.4433 19.9136 77.8433C28.5128 93.7601 45.4472 102.803 60.1352 110.243H97.6928C99.9758 108.319 101.917 106.023 103.434 103.451C111.082 90.5801 100.592 81.3905 100.578 63.0329Z" fill="white"/>
<path d="M56.0481 12.8344C56.3721 14.1184 56.2137 11.7544 56.8497 8.86003C57.4857 5.96563 58.5729 7.14163 58.5729 7.14163" stroke="#263238" stroke-width="0.24" stroke-linecap="round" stroke-linejoin="round"/>
<path d="M55.8489 9.87765L57.8433 9.06165" stroke="#263238" stroke-width="0.24" stroke-linecap="round" stroke-linejoin="round"/>
<path d="M59.4922 8.0824C59.4922 8.0824 58.2922 10.5448 60.0946 11.5936" stroke="#263238" stroke-width="0.24" stroke-linecap="round" stroke-linejoin="round"/>
<path d="M61.1816 7.38159C61.1816 7.38159 63.1472 8.47359 61.916 10.84" stroke="#263238" stroke-width="0.24" stroke-linecap="round" stroke-linejoin="round"/>
<path d="M59.833 8.91528L61.2418 9.94488" stroke="#263238" stroke-width="0.24" stroke-linecap="round" stroke-linejoin="round"/>
<path d="M60.9392 8.46399L59.8352 10.2184" stroke="#263238" stroke-width="0.24" stroke-linecap="round" stroke-linejoin="round"/>
<path d="M18.0128 70.8425C18.0128 70.8425 14.6696 70.7945 14.6528 73.6793" stroke="#263238" stroke-width="0.24" stroke-linecap="round" stroke-linejoin="round"/>
<path d="M17.7345 72.6615C17.6649 72.2367 16.2105 71.7015 15.9585 72.8103C15.7065 73.9191 17.5137 73.2543 18.0729 72.7359C18.0729 72.7359 17.0361 73.7439 17.3529 74.0271" stroke="#263238" stroke-width="0.24" stroke-linecap="round" stroke-linejoin="round"/>
<path d="M17.9386 74.3417C17.9386 74.3417 17.4994 74.8913 17.0242 74.6297" stroke="#263238" stroke-width="0.24" stroke-linecap="round" stroke-linejoin="round"/>
<path d="M20.864 72.4216L18.356 74.968C18.356 74.968 19.6184 73.6888 20.3504 74.1016C21.2624 74.6008 20.0792 75.9688 19.1048 74.9896" stroke="#263238" stroke-width="0.24" stroke-linecap="round" stroke-linejoin="round"/>
<path d="M22.1312 73.1082C22.1312 73.1082 22.796 76.1538 19.364 76.2618" stroke="#263238" stroke-width="0.24" stroke-linecap="round" stroke-linejoin="round"/>
<path d="M66.9058 21.3329L68.1154 21.5321L68.1322 24.2801L70.7818 19.4489L74.9626 20.1353" stroke="#263238" stroke-width="0.24" stroke-linecap="round" stroke-linejoin="round"/>
<path d="M71.24 21.5657L73.0784 24.8105" stroke="#263238" stroke-width="0.24" stroke-linecap="round" stroke-linejoin="round"/>
<path d="M73.5511 21.9448L70.2607 24.3472" stroke="#263238" stroke-width="0.24" stroke-linecap="round" stroke-linejoin="round"/>
<path d="M50.3769 26.224C50.0673 25.8304 48.2841 26.1112 48.6465 27.3736C49.0089 28.636 50.4825 26.9536 50.7633 26.1112C50.7633 26.1112 50.2713 27.7216 50.7633 27.8296" stroke="#263238" stroke-width="0.24" stroke-linecap="round" stroke-linejoin="round"/>
<path d="M51.7424 24.9258L51.344 26.3418C51.344 26.3418 51.5432 25.6218 51.8936 25.6218C52.3232 25.6218 52.1672 26.3418 51.6176 26.193" stroke="#263238" stroke-width="0.24" stroke-linecap="round" stroke-linejoin="round"/>
<path d="M85.3617 42.3784L84.5217 45.4144L86.3577 47.4256" stroke="#263238" stroke-width="0.24" stroke-linecap="round" stroke-linejoin="round"/>
<path d="M86.4128 43.6121L88.5152 45.3713" stroke="#263238" stroke-width="0.24" stroke-linecap="round" stroke-linejoin="round"/>
<path d="M87.86 43.1801L86.9504 45.4145" stroke="#263238" stroke-width="0.24" stroke-linecap="round" stroke-linejoin="round"/>
<path d="M89.3384 45.1265C89.3384 45.1265 89.3576 45.7601 89.084 45.8465" stroke="#263238" stroke-width="0.24" stroke-linecap="round" stroke-linejoin="round"/>
<path d="M89.6047 42.9136L90.8743 43.8568" stroke="#263238" stroke-width="0.24" stroke-linecap="round" stroke-linejoin="round"/>
<path d="M91.3448 42.1384L90.092 46.6504" stroke="#263238" stroke-width="0.24" stroke-linecap="round" stroke-linejoin="round"/>
<path d="M91.4072 40.5713L93.4424 42.8753L92.576 45.3953" stroke="#263238" stroke-width="0.24" stroke-linecap="round" stroke-linejoin="round"/>
<path d="M35.3577 100.024L38.3025 91.2593L41.8737 95.2457L35.3577 100.024Z" stroke="#263238" stroke-width="0.24" stroke-linecap="round" stroke-linejoin="round"/>
<path d="M40.9977 95.8865L40.2441 95.0249L41.0481 94.3289" stroke="#263238" stroke-width="0.24" stroke-linecap="round" stroke-linejoin="round"/>
<path d="M17.9516 50.7801C19.4811 50.1466 20.2075 48.3931 19.5739 46.8636C18.9404 45.3341 17.1869 44.6078 15.6574 45.2413C14.1279 45.8748 13.4015 47.6283 14.0351 49.1578C14.6686 50.6874 16.4221 51.4137 17.9516 50.7801Z" stroke="#263238" stroke-width="0.24" stroke-linecap="round" stroke-linejoin="round"/>
<path d="M20.1296 48.712C21.9667 48.712 23.456 47.2227 23.456 45.3856C23.456 43.5485 21.9667 42.0592 20.1296 42.0592C18.2925 42.0592 16.8032 43.5485 16.8032 45.3856C16.8032 47.2227 18.2925 48.712 20.1296 48.712Z" stroke="#263238" stroke-width="0.24" stroke-linecap="round" stroke-linejoin="round"/>
<path d="M17.3936 45.0713L16.988 46.4801" stroke="#263238" stroke-width="0.24" stroke-linecap="round" stroke-linejoin="round"/>
<path d="M17.9674 45.2465L17.3938 47.2769" stroke="#263238" stroke-width="0.24" stroke-linecap="round" stroke-linejoin="round"/>
<path d="M18.5697 45.5873L17.9673 47.8841" stroke="#263238" stroke-width="0.24" stroke-linecap="round" stroke-linejoin="round"/>
<path d="M19.2392 46.2616L18.8096 48.4408" stroke="#263238" stroke-width="0.24" stroke-linecap="round" stroke-linejoin="round"/>
<path d="M19.6161 46.972L19.2393 48.592" stroke="#263238" stroke-width="0.24" stroke-linecap="round" stroke-linejoin="round"/>
<path d="M13.9376 44.1688C13.676 44.0896 12.9584 44.7712 13.5152 45.2296C14.072 45.688 14.2136 44.4664 14.0768 43.9984C14.0768 43.9984 14.3576 44.8792 14.612 44.7736" stroke="#263238" stroke-width="0.24" stroke-linecap="round" stroke-linejoin="round"/>
<path d="M17.8066 40.3217L18.7666 42.0689C18.7666 42.0689 18.2866 41.1953 18.625 40.8689C19.0378 40.4657 19.585 41.3177 18.8938 41.6753" stroke="#263238" stroke-width="0.24" stroke-linecap="round" stroke-linejoin="round"/>
<path d="M35.3481 40.1128L36.7041 41.3968" stroke="#263238" stroke-width="0.24" stroke-linecap="round" stroke-linejoin="round"/>
<path d="M36.704 39.7792L35.5688 41.4736" stroke="#263238" stroke-width="0.24" stroke-linecap="round" stroke-linejoin="round"/>
<path d="M38.0386 40.2665L39.3946 39.7601" stroke="#263238" stroke-width="0.24" stroke-linecap="round" stroke-linejoin="round"/>
<path d="M40.0449 38.3464L40.8705 39.076" stroke="#263238" stroke-width="0.24" stroke-linecap="round" stroke-linejoin="round"/>
<path d="M41.5018 37.468L40.4578 41.0536" stroke="#263238" stroke-width="0.24" stroke-linecap="round" stroke-linejoin="round"/>
<path d="M100.772 36.748L100.714 34.0072H102.786C102.786 34.0072 101.638 34.6408 102.166 36.1144C102.694 37.588 103.544 36.748 103.544 36.748" stroke="#263238" stroke-width="0.24" stroke-linecap="round" stroke-linejoin="round"/>
<path d="M97.2632 83.5025L99.62 81.8801L102.74 82.0985L102.934 86.0537L100.645 87.6929L97.8176 87.4865L97.2632 83.5025Z" stroke="#263238" stroke-width="0.24" stroke-linecap="round" stroke-linejoin="round"/>
<path d="M97.8176 87.4863L100.098 85.8447L102.934 86.0535" stroke="#263238" stroke-width="0.24" stroke-linecap="round" stroke-linejoin="round"/>
<path d="M100.1 85.8449L99.6201 81.8801" stroke="#263238" stroke-width="0.24" stroke-linecap="round" stroke-linejoin="round"/>
<path d="M97.2632 83.5025L100.376 83.8625L102.74 82.0985" stroke="#263238" stroke-width="0.24" stroke-linecap="round" stroke-linejoin="round"/>
<path d="M100.376 83.8624L100.645 87.6928" stroke="#263238" stroke-width="0.24" stroke-linecap="round" stroke-linejoin="round"/>
<path d="M97.6928 53.7953L97.592 59.0681L102.212 56.9705L97.6928 53.7953Z" stroke="#263238" stroke-width="0.24" stroke-linecap="round" stroke-linejoin="round"/>
<path d="M97.6929 53.7953L99.8937 57.9929" stroke="#263238" stroke-width="0.24" stroke-linecap="round" stroke-linejoin="round"/>
<path d="M99.5408 57.3184L100.076 57.0592L100.436 57.7768" stroke="#263238" stroke-width="0.24" stroke-linecap="round" stroke-linejoin="round"/>
<path d="M57.4111 53.296L59.3215 55.3432" stroke="#263238" stroke-width="0.24" stroke-linecap="round" stroke-linejoin="round"/>
<path d="M59.3361 53.0201L57.7305 55.2185" stroke="#263238" stroke-width="0.24" stroke-linecap="round" stroke-linejoin="round"/>
<path d="M60.1185 51.9473C60.2101 51.9048 60.3149 51.9003 60.4099 51.935C60.5048 51.9696 60.5821 52.0405 60.6249 52.1321C60.6399 52.1649 60.6504 52.1996 60.6561 52.2353C60.7497 52.6961 59.9937 53.2961 59.9937 53.2961H61.0713" stroke="#263238" stroke-width="0.24" stroke-linecap="round" stroke-linejoin="round"/>
<path d="M27.668 22.6216C27.7594 21.4587 28.1425 20.3376 28.7818 19.3619C29.4211 18.3862 30.2959 17.5874 31.3256 17.0392" stroke="#263238" stroke-width="0.24" stroke-linecap="round" stroke-linejoin="round"/>
<path d="M32.9745 29.9416C31.2241 29.5218 29.7053 28.4384 28.7385 26.92" stroke="#263238" stroke-width="0.24" stroke-linecap="round" stroke-linejoin="round"/>
<path d="M41.5305 23.728C41.3824 25.566 40.5109 27.2702 39.1074 28.4662C37.7039 29.6622 35.8832 30.2524 34.0449 30.1072" stroke="#263238" stroke-width="0.24" stroke-linecap="round" stroke-linejoin="round"/>
<path d="M35.1511 16.2449C36.7314 16.3716 38.221 17.0339 39.3736 18.1223C40.5262 19.2108 41.2727 20.6601 41.4895 22.2305" stroke="#263238" stroke-width="0.24" stroke-linecap="round" stroke-linejoin="round"/>
<path d="M37.5993 28.528C36.6291 29.0723 35.5293 29.3427 34.4174 29.3102C33.3054 29.2777 32.2232 28.9436 31.2865 28.3436C30.3498 27.7436 29.5938 26.9003 29.0993 25.9039C28.6048 24.9074 28.3905 23.7953 28.4793 22.6864" stroke="#263238" stroke-width="0.24" stroke-linecap="round" stroke-linejoin="round"/>
<path d="M28.8728 20.968C29.1957 20.1285 29.6993 19.3702 30.3478 18.7469C30.9963 18.1235 31.7739 17.6504 32.6256 17.3609C33.4772 17.0714 34.3821 16.9727 35.2761 17.0717C36.1702 17.1708 37.0315 17.4651 37.7992 17.934C38.5668 18.4028 39.222 19.0347 39.7184 19.7849C40.2147 20.5351 40.5401 21.3852 40.6715 22.275C40.8028 23.1649 40.737 24.0728 40.4786 24.9343C40.2201 25.7959 39.7754 26.5902 39.176 27.2608" stroke="#263238" stroke-width="0.24" stroke-linecap="round" stroke-linejoin="round"/>
<path d="M33.9968 18.7601L34.5992 23.1761L37.9928 22.1201" stroke="#263238" stroke-width="0.24" stroke-linecap="round" stroke-linejoin="round"/>
<path d="M87.5145 31.7584C86.5389 31.7679 85.5835 31.4807 84.7748 30.9349C83.9661 30.3892 83.3423 29.6106 82.986 28.7024C82.6298 27.7941 82.5579 26.7991 82.7798 25.8491C83.0017 24.899 83.5071 24.0388 84.2288 23.3824" stroke="#263238" stroke-width="0.24" stroke-linecap="round" stroke-linejoin="round"/>
<path d="M92.0242 28.5016C91.7903 29.1913 91.4026 29.8188 90.8903 30.3365C90.378 30.8542 89.7546 31.2485 89.0674 31.4896" stroke="#263238" stroke-width="0.24" stroke-linecap="round" stroke-linejoin="round"/>
<path d="M85.8704 22.4032C87.0747 21.9794 88.398 22.0514 89.5493 22.6031C90.7006 23.1549 91.5855 24.1414 92.0096 25.3456" stroke="#263238" stroke-width="0.24" stroke-linecap="round" stroke-linejoin="round"/>
<path d="M89.845 23.4232C90.3424 23.7594 90.763 24.1973 91.0789 24.7079C91.3948 25.2185 91.5988 25.7902 91.6776 26.3855C91.7564 26.9807 91.7081 27.5859 91.5359 28.1611C91.3637 28.7363 91.0715 29.2685 90.6787 29.7225C90.2858 30.1765 89.8011 30.5421 89.2566 30.7952C88.7121 31.0482 88.1201 31.1829 87.5198 31.1905C86.9194 31.198 86.3242 31.0782 85.7735 30.839C85.2229 30.5997 84.7291 30.2464 84.325 29.8024" stroke="#263238" stroke-width="0.24" stroke-linecap="round" stroke-linejoin="round"/>
<path d="M83.4586 28.3528C83.2031 27.626 83.1501 26.8434 83.3053 26.0888C83.4604 25.3342 83.8179 24.636 84.3394 24.0689C84.8608 23.5018 85.5267 23.0872 86.2657 22.8695C87.0047 22.6517 87.7889 22.6391 88.5346 22.8328" stroke="#263238" stroke-width="0.24" stroke-linecap="round" stroke-linejoin="round"/>
<path d="M85.8464 24.3209L87.4688 26.9441L85.9904 28.8617" stroke="#263238" stroke-width="0.24" stroke-linecap="round" stroke-linejoin="round"/>
<path d="M53.4585 98.6851C53.4562 98.0555 53.6081 97.435 53.901 96.8778C54.1938 96.3205 54.6187 95.8434 55.1385 95.4883" stroke="#263238" stroke-width="0.24" stroke-linecap="round" stroke-linejoin="round"/>
<path d="M60.1089 101.344C59.6511 101.825 59.0768 102.181 58.4417 102.375C57.8065 102.57 57.1319 102.597 56.483 102.455C55.8342 102.312 55.233 102.005 54.7376 101.562C54.2423 101.12 53.8695 100.557 53.6553 99.9281" stroke="#263238" stroke-width="0.24" stroke-linecap="round" stroke-linejoin="round"/>
<path d="M57.3105 94.8232C58.3347 94.8232 59.3169 95.2301 60.0411 95.9543C60.7653 96.6785 61.1721 97.6607 61.1721 98.6848" stroke="#263238" stroke-width="0.24" stroke-linecap="round" stroke-linejoin="round"/>
<path d="M57.3106 102.09C56.4074 102.09 55.5412 101.731 54.9025 101.093C54.2638 100.454 53.905 99.5879 53.905 98.6847" stroke="#263238" stroke-width="0.24" stroke-linecap="round" stroke-linejoin="round"/>
<path d="M54.6584 96.5462C54.9742 96.1562 55.3721 95.8407 55.8238 95.6223C56.2756 95.4039 56.77 95.2879 57.2717 95.2827C57.7735 95.2774 58.2702 95.383 58.7264 95.592C59.1826 95.8009 59.5871 96.108 59.9109 96.4913C60.2347 96.8747 60.4698 97.3248 60.5995 97.8095C60.7292 98.2942 60.7503 98.8016 60.6612 99.2954C60.5722 99.7893 60.3751 100.257 60.0843 100.666C59.7934 101.075 59.4158 101.415 58.9784 101.661" stroke="#263238" stroke-width="0.24" stroke-linecap="round" stroke-linejoin="round"/>
<path d="M56.7825 100.998L57.3105 98.6847L56.5737 96.7935" stroke="#263238" stroke-width="0.24" stroke-linecap="round" stroke-linejoin="round"/>
<path d="M12.3489 110.33H109.448" stroke="#263238" stroke-width="0.24" stroke-linecap="round" stroke-linejoin="round"/>
<path d="M61.616 59.7208L60.0344 89.8336L39.9968 88.7824L40.1648 85.5904L41.5784 58.6672L54.1952 59.3296L61.616 59.7208Z" fill="white"/>
<mask id="mask0_619_20264" style="mask-type:luminance" maskUnits="userSpaceOnUse" x="39" y="58" width="23" height="32">
<path d="M61.6163 59.7211L60.0347 89.8339L39.9971 88.7827L40.1651 85.5907L41.5787 58.6675L54.1955 59.3299L61.6163 59.7211Z" fill="white"/>
</mask>
<g mask="url(#mask0_619_20264)">
<path opacity="0.2" d="M55.3618 77.3635L50.8474 77.7355L52.165 83.4211L40.165 85.5907L41.5786 58.6675L54.1954 59.3299L55.3618 77.3635Z" fill="black" fill-opacity="0.7"/>
</g>
<path d="M61.616 59.7208L60.0344 89.8336L39.9968 88.7824L40.1648 85.5904L41.5784 58.6672L54.1952 59.3296L61.616 59.7208Z" stroke="#263238" stroke-width="0.24" stroke-linecap="round" stroke-linejoin="round"/>
<path d="M42.9922 60.7264L48.2074 61" stroke="#263238" stroke-width="0.48" stroke-linecap="round" stroke-linejoin="round"/>
<path d="M42.9392 61.7272L46.4864 61.9144" stroke="#263238" stroke-width="0.48" stroke-linecap="round" stroke-linejoin="round"/>
<path d="M44.0864 64.1586L59.0864 64.9458" stroke="#263238" stroke-width="0.48" stroke-linecap="round" stroke-linejoin="round"/>
<path d="M44.0337 65.1593L59.0337 65.9465" stroke="#263238" stroke-width="0.48" stroke-linecap="round" stroke-linejoin="round"/>
<path d="M43.9736 66.3278L56.7656 66.9974" stroke="#263238" stroke-width="0.48" stroke-linecap="round" stroke-linejoin="round"/>
<path d="M43.9789 67.3941L43.9148 68.614L45.1347 68.6782L45.1989 67.4582L43.9789 67.3941Z" stroke="#263238" stroke-width="0.24" stroke-linecap="round" stroke-linejoin="round"/>
<path d="M46.1901 67.5113L46.126 68.7312L47.3459 68.7953L47.41 67.5754L46.1901 67.5113Z" stroke="#263238" stroke-width="0.24" stroke-linecap="round" stroke-linejoin="round"/>
<path d="M48.3986 67.6285L48.3345 68.8484L49.5544 68.9125L49.6185 67.6926L48.3986 67.6285Z" stroke="#263238" stroke-width="0.24" stroke-linecap="round" stroke-linejoin="round"/>
<path d="M50.6098 67.7457L50.5457 68.9656L51.7656 69.0297L51.8297 67.8098L50.6098 67.7457Z" stroke="#263238" stroke-width="0.24" stroke-linecap="round" stroke-linejoin="round"/>
<path d="M43.2871 64.1153C43.2856 64.155 43.2762 64.194 43.2596 64.2301C43.2429 64.2662 43.2193 64.2987 43.1901 64.3256C43.1609 64.3526 43.1267 64.3736 43.0894 64.3873C43.0521 64.401 43.0124 64.4073 42.9727 64.4057C42.8919 64.4015 42.816 64.3654 42.7617 64.3054C42.7075 64.2453 42.6794 64.1661 42.6835 64.0853C42.6876 64.0044 42.7237 63.9285 42.7838 63.8743C42.8439 63.8201 42.9231 63.7919 43.0039 63.7961C43.0436 63.7979 43.0826 63.8076 43.1186 63.8245C43.1546 63.8414 43.1869 63.8653 43.2136 63.8947C43.2404 63.9241 43.2611 63.9586 43.2745 63.996C43.2879 64.0334 43.2938 64.0731 43.2919 64.1129L43.2871 64.1153Z" fill="#263238"/>
<path d="M43.7793 69.9976L58.7793 70.7848" stroke="#263238" stroke-width="0.48" stroke-linecap="round" stroke-linejoin="round"/>
<path d="M43.7263 70.9985L58.7263 71.7857" stroke="#263238" stroke-width="0.48" stroke-linecap="round" stroke-linejoin="round"/>
<path d="M43.6665 72.1671L56.4585 72.8367" stroke="#263238" stroke-width="0.48" stroke-linecap="round" stroke-linejoin="round"/>
<path d="M43.6691 73.237L43.605 74.4569L44.8249 74.5211L44.889 73.3011L43.6691 73.237Z" stroke="#263238" stroke-width="0.24" stroke-linecap="round" stroke-linejoin="round"/>
<path d="M45.8828 73.3517L45.8186 74.5717L47.0385 74.6358L47.1027 73.4159L45.8828 73.3517Z" stroke="#263238" stroke-width="0.24" stroke-linecap="round" stroke-linejoin="round"/>
<path d="M48.0912 73.4667L48.0271 74.6866L49.247 74.7508L49.3112 73.5309L48.0912 73.4667Z" stroke="#263238" stroke-width="0.24" stroke-linecap="round" stroke-linejoin="round"/>
<path d="M50.3 73.5837L50.2358 74.8036L51.4558 74.8677L51.5199 73.6478L50.3 73.5837Z" stroke="#263238" stroke-width="0.24" stroke-linecap="round" stroke-linejoin="round"/>
<path d="M42.9825 69.9543C42.9807 69.9943 42.971 70.0336 42.9539 70.0699C42.9369 70.1061 42.9128 70.1387 42.8832 70.1657C42.8535 70.1927 42.8188 70.2135 42.7811 70.2271C42.7434 70.2406 42.7034 70.2466 42.6633 70.2447C42.6027 70.2418 42.5442 70.2209 42.4954 70.1848C42.4466 70.1487 42.4095 70.0989 42.389 70.0418C42.3684 69.9847 42.3653 69.9227 42.3799 69.8638C42.3945 69.8048 42.4263 69.7515 42.4712 69.7107C42.5161 69.6698 42.5722 69.6431 42.6322 69.6341C42.6923 69.625 42.7536 69.6339 42.8086 69.6597C42.8636 69.6856 42.9097 69.7271 42.9411 69.7791C42.9724 69.8311 42.9877 69.8912 42.9849 69.9519L42.9825 69.9543Z" fill="#263238"/>
<path d="M43.4744 75.8367L58.472 76.6239" stroke="#263238" stroke-width="0.48" stroke-linecap="round" stroke-linejoin="round"/>
<path d="M43.4216 76.8375L58.4192 77.6247" stroke="#263238" stroke-width="0.48" stroke-linecap="round" stroke-linejoin="round"/>
<path d="M43.3591 78.004L56.1511 78.676" stroke="#263238" stroke-width="0.48" stroke-linecap="round" stroke-linejoin="round"/>
<path d="M43.3642 79.0727L43.3 80.2926L44.52 80.3567L44.5841 79.1368L43.3642 79.0727Z" stroke="#263238" stroke-width="0.24" stroke-linecap="round" stroke-linejoin="round"/>
<path d="M45.8343 79.1827L45.7732 80.4052L46.9957 80.4662L47.0567 79.2438L45.8343 79.1827Z" stroke="#263238" stroke-width="0.2403" stroke-linecap="round" stroke-linejoin="round"/>
<path d="M47.7839 79.3073L47.7197 80.5272L48.9396 80.5914L49.0038 79.3715L47.7839 79.3073Z" stroke="#263238" stroke-width="0.24" stroke-linecap="round" stroke-linejoin="round"/>
<path d="M49.9975 79.4217L49.9333 80.6416L51.1533 80.7057L51.2174 79.4858L49.9975 79.4217Z" stroke="#263238" stroke-width="0.24" stroke-linecap="round" stroke-linejoin="round"/>
<path d="M42.6755 75.7937C42.6736 75.8338 42.6639 75.873 42.6468 75.9093C42.6298 75.9456 42.6058 75.9782 42.5761 76.0051C42.5465 76.0321 42.5118 76.053 42.4741 76.0665C42.4363 76.0801 42.3963 76.0861 42.3563 76.0841C42.2748 76.0841 42.1967 76.0518 42.139 75.9941C42.0814 75.9365 42.0491 75.8584 42.0491 75.7769C42.0491 75.6955 42.0814 75.6173 42.139 75.5597C42.1967 75.5021 42.2748 75.4697 42.3563 75.4697H42.3995C42.4395 75.4716 42.4788 75.4813 42.5151 75.4983C42.5513 75.5154 42.5839 75.5394 42.6109 75.5691C42.6379 75.5987 42.6587 75.6334 42.6723 75.6711C42.6858 75.7089 42.6918 75.7489 42.6899 75.7889L42.6755 75.7937Z" fill="#263238"/>
<path d="M43.1575 81.8417L58.1551 82.6313" stroke="#263238" stroke-width="0.48" stroke-linecap="round" stroke-linejoin="round"/>
<path d="M43.1047 82.8424L58.1047 83.632" stroke="#263238" stroke-width="0.48" stroke-linecap="round" stroke-linejoin="round"/>
<path d="M43.0449 84.0112L55.8369 84.6832" stroke="#263238" stroke-width="0.48" stroke-linecap="round" stroke-linejoin="round"/>
<path d="M43.0461 85.0807L42.9819 86.3007L44.2018 86.3648L44.266 85.1449L43.0461 85.0807Z" stroke="#263238" stroke-width="0.24" stroke-linecap="round" stroke-linejoin="round"/>
<path d="M45.2602 85.1954L45.196 86.4153L46.416 86.4794L46.4801 85.2595L45.2602 85.1954Z" stroke="#263238" stroke-width="0.24" stroke-linecap="round" stroke-linejoin="round"/>
<path d="M47.4736 85.3101L47.4094 86.53L48.6293 86.5942L48.6935 85.3743L47.4736 85.3101Z" stroke="#263238" stroke-width="0.24" stroke-linecap="round" stroke-linejoin="round"/>
<path d="M49.6823 85.4297L49.6182 86.6497L50.8381 86.7138L50.9022 85.4939L49.6823 85.4297Z" stroke="#263238" stroke-width="0.24" stroke-linecap="round" stroke-linejoin="round"/>
<path d="M42.3586 81.8009C42.3552 81.8611 42.3341 81.9189 42.2978 81.967C42.2616 82.0151 42.2119 82.0514 42.1551 82.0713C42.0982 82.0913 42.0367 82.0939 41.9784 82.0789C41.92 82.0639 41.8674 82.0319 41.8273 81.987C41.7871 81.9421 41.7611 81.8864 41.7526 81.8267C41.7441 81.7671 41.7534 81.7063 41.7795 81.6519C41.8055 81.5976 41.8471 81.5522 41.8989 81.5215C41.9507 81.4908 42.0105 81.4761 42.0706 81.4793C42.1107 81.4815 42.1499 81.4915 42.1861 81.5088C42.2222 81.5262 42.2546 81.5505 42.2814 81.5803C42.3081 81.6102 42.3287 81.6451 42.342 81.6829C42.3552 81.7208 42.3609 81.7609 42.3586 81.8009Z" fill="#263238"/>
<path d="M44.3936 67.9025L44.552 68.1761L45.2024 67.4585" stroke="#263238" stroke-width="0.48" stroke-linecap="round" stroke-linejoin="round"/>
<path d="M48.512 73.8999L48.6704 74.1735L49.3208 73.4559" stroke="#263238" stroke-width="0.48" stroke-linecap="round" stroke-linejoin="round"/>
<path d="M50.5784 80.0631L50.7368 80.3367L51.3872 79.6167" stroke="#263238" stroke-width="0.48" stroke-linecap="round" stroke-linejoin="round"/>
<path d="M45.6824 85.564L45.8408 85.8352L46.4912 85.1176" stroke="#263238" stroke-width="0.48" stroke-linecap="round" stroke-linejoin="round"/>
<path d="M48.3009 81.3112L28.9689 86.6848L20.8953 57.628L28.8993 55.4032L40.2273 52.2568L47.5521 78.6184L48.3009 81.3112Z" fill="white"/>
<mask id="mask1_619_20264" style="mask-type:luminance" maskUnits="userSpaceOnUse" x="20" y="52" width="29" height="35">
<path d="M48.3009 81.3112L28.9689 86.6848L20.8953 57.628L28.8993 55.4032L40.2273 52.2568L47.5521 78.6184L48.3009 81.3112Z" fill="white"/>
</mask>
<g mask="url(#mask1_619_20264)">
<path opacity="0.2" d="M47.5522 78.6183L32.605 79.5855L28.8994 55.4031L40.2274 52.2567L47.5522 78.6183Z" fill="black" fill-opacity="0.7"/>
</g>
<path d="M48.3009 81.3112L28.9689 86.6848L20.8953 57.628L28.8993 55.4032L40.2273 52.2568L47.5521 78.6184L48.3009 81.3112Z" stroke="#263238" stroke-width="0.24" stroke-linecap="round" stroke-linejoin="round"/>
<path d="M22.8921 59.1304L27.9225 57.7336" stroke="#263238" stroke-width="0.48" stroke-linecap="round" stroke-linejoin="round"/>
<path d="M23.1584 60.0976L26.5808 59.1472" stroke="#263238" stroke-width="0.48" stroke-linecap="round" stroke-linejoin="round"/>
<path d="M25.0186 62.0368L39.4906 58.0168" stroke="#263238" stroke-width="0.48" stroke-linecap="round" stroke-linejoin="round"/>
<path d="M25.2871 63.0017L39.7591 58.9817" stroke="#263238" stroke-width="0.48" stroke-linecap="round" stroke-linejoin="round"/>
<path d="M25.5994 64.1296L37.9426 60.7" stroke="#263238" stroke-width="0.48" stroke-linecap="round" stroke-linejoin="round"/>
<path d="M27.1245 64.8123L25.9475 65.1394L26.2746 66.3164L27.4516 65.9893L27.1245 64.8123Z" stroke="#263238" stroke-width="0.24" stroke-linecap="round" stroke-linejoin="round"/>
<path d="M29.2583 64.2172L28.0813 64.5443L28.4084 65.7213L29.5854 65.3942L29.2583 64.2172Z" stroke="#263238" stroke-width="0.24" stroke-linecap="round" stroke-linejoin="round"/>
<path d="M31.3928 63.6237L30.2158 63.9508L30.5429 65.1278L31.7199 64.8007L31.3928 63.6237Z" stroke="#263238" stroke-width="0.24" stroke-linecap="round" stroke-linejoin="round"/>
<path d="M33.5237 63.0321L32.3467 63.3591L32.6738 64.5361L33.8508 64.2091L33.5237 63.0321Z" stroke="#263238" stroke-width="0.24" stroke-linecap="round" stroke-linejoin="round"/>
<path d="M24.248 62.2504C24.2697 62.3283 24.2595 62.4117 24.2196 62.4822C24.1798 62.5526 24.1136 62.6043 24.0356 62.626C23.9577 62.6476 23.8743 62.6374 23.8039 62.5976C23.7334 62.5577 23.6817 62.4915 23.66 62.4136C23.6384 62.3356 23.6486 62.2522 23.6885 62.1818C23.7283 62.1113 23.7945 62.0596 23.8724 62.038C23.9504 62.0163 24.0338 62.0265 24.1042 62.0664C24.1747 62.1062 24.2264 62.1724 24.248 62.2504Z" fill="#263238"/>
<path d="M26.5833 67.6697L41.0553 63.6497" stroke="#263238" stroke-width="0.48" stroke-linecap="round" stroke-linejoin="round"/>
<path d="M26.8521 68.6368L41.3241 64.6144" stroke="#263238" stroke-width="0.48" stroke-linecap="round" stroke-linejoin="round"/>
<path d="M27.1665 69.7624L39.5073 66.3328" stroke="#263238" stroke-width="0.48" stroke-linecap="round" stroke-linejoin="round"/>
<path d="M28.6907 70.4439L27.5137 70.771L27.8407 71.948L29.0177 71.6209L28.6907 70.4439Z" stroke="#263238" stroke-width="0.24" stroke-linecap="round" stroke-linejoin="round"/>
<path d="M30.8228 69.8516L29.6458 70.1787L29.9728 71.3557L31.1498 71.0286L30.8228 69.8516Z" stroke="#263238" stroke-width="0.24" stroke-linecap="round" stroke-linejoin="round"/>
<path d="M32.9575 69.2589L31.7805 69.5859L32.1076 70.7629L33.2846 70.4359L32.9575 69.2589Z" stroke="#263238" stroke-width="0.24" stroke-linecap="round" stroke-linejoin="round"/>
<path d="M35.0937 68.663L33.9167 68.9901L34.2438 70.1671L35.4208 69.84L35.0937 68.663Z" stroke="#263238" stroke-width="0.24" stroke-linecap="round" stroke-linejoin="round"/>
<path d="M25.8154 67.8855C25.8316 67.944 25.8301 68.006 25.8112 68.0636C25.7922 68.1213 25.7565 68.1721 25.7087 68.2095C25.6609 68.2469 25.6031 68.2693 25.5426 68.2739C25.482 68.2785 25.4215 68.265 25.3686 68.2353C25.3157 68.2055 25.2728 68.1607 25.2454 68.1065C25.2179 68.0523 25.2071 67.9913 25.2143 67.931C25.2216 67.8707 25.2465 67.8139 25.286 67.7678C25.3255 67.7217 25.3777 67.6883 25.4362 67.6719C25.4748 67.6609 25.5152 67.6577 25.555 67.6624C25.5949 67.6671 25.6334 67.6796 25.6684 67.6992C25.7035 67.7188 25.7342 67.7452 25.7591 67.7767C25.7839 67.8083 25.8022 67.8444 25.813 67.8831L25.8154 67.8855Z" fill="#263238"/>
<path d="M28.1504 73.3049L42.62 69.2825" stroke="#263238" stroke-width="0.48" stroke-linecap="round" stroke-linejoin="round"/>
<path d="M28.4192 74.2696L42.8888 70.2496" stroke="#263238" stroke-width="0.48" stroke-linecap="round" stroke-linejoin="round"/>
<path d="M28.7312 75.3974L41.0744 71.9678" stroke="#263238" stroke-width="0.48" stroke-linecap="round" stroke-linejoin="round"/>
<path d="M30.2544 76.0766L29.0774 76.4037L29.4045 77.5807L30.5815 77.2536L30.2544 76.0766Z" stroke="#263238" stroke-width="0.24" stroke-linecap="round" stroke-linejoin="round"/>
<path d="M32.3914 75.4831L31.2144 75.8102L31.5414 76.9872L32.7184 76.6601L32.3914 75.4831Z" stroke="#263238" stroke-width="0.24" stroke-linecap="round" stroke-linejoin="round"/>
<path d="M34.5212 74.8912L33.3442 75.2183L33.6713 76.3953L34.8483 76.0682L34.5212 74.8912Z" stroke="#263238" stroke-width="0.24" stroke-linecap="round" stroke-linejoin="round"/>
<path d="M36.6558 74.2982L35.4788 74.6252L35.8058 75.8022L36.9828 75.4752L36.6558 74.2982Z" stroke="#263238" stroke-width="0.24" stroke-linecap="round" stroke-linejoin="round"/>
<path d="M27.3801 73.5184C27.3963 73.5769 27.3948 73.6389 27.3759 73.6966C27.3569 73.7542 27.3212 73.805 27.2734 73.8424C27.2256 73.8798 27.1678 73.9023 27.1073 73.9069C27.0467 73.9114 26.9862 73.898 26.9333 73.8682C26.8804 73.8384 26.8375 73.7936 26.8101 73.7394C26.7826 73.6853 26.7718 73.6242 26.779 73.5639C26.7863 73.5037 26.8112 73.4469 26.8507 73.4007C26.8902 73.3546 26.9424 73.3212 27.0009 73.3048C27.0395 73.2938 27.0799 73.2906 27.1197 73.2953C27.1596 73.3 27.1981 73.3125 27.2331 73.3321C27.2682 73.3518 27.2989 73.3781 27.3237 73.4097C27.3485 73.4412 27.3669 73.4773 27.3777 73.516L27.3801 73.5184Z" fill="#263238"/>
<path d="M29.7607 79.0984L44.2303 75.0784" stroke="#263238" stroke-width="0.48" stroke-linecap="round" stroke-linejoin="round"/>
<path d="M30.0271 80.0656L44.4991 76.0432" stroke="#263238" stroke-width="0.48" stroke-linecap="round" stroke-linejoin="round"/>
<path d="M30.3418 81.1912L42.685 77.7616" stroke="#263238" stroke-width="0.48" stroke-linecap="round" stroke-linejoin="round"/>
<path d="M31.8652 81.8731L30.6882 82.2002L31.0153 83.3772L32.1923 83.0501L31.8652 81.8731Z" stroke="#263238" stroke-width="0.24" stroke-linecap="round" stroke-linejoin="round"/>
<path d="M33.9995 81.2797L32.8225 81.6068L33.1496 82.7838L34.3266 82.4567L33.9995 81.2797Z" stroke="#263238" stroke-width="0.24" stroke-linecap="round" stroke-linejoin="round"/>
<path d="M36.134 80.6867L34.957 81.0138L35.2841 82.1908L36.4611 81.8637L36.134 80.6867Z" stroke="#263238" stroke-width="0.24" stroke-linecap="round" stroke-linejoin="round"/>
<path d="M38.2666 80.0947L37.0896 80.4218L37.4167 81.5988L38.5937 81.2717L38.2666 80.0947Z" stroke="#263238" stroke-width="0.24" stroke-linecap="round" stroke-linejoin="round"/>
<path d="M28.9906 79.312C29.0131 79.3903 29.0037 79.4744 28.9643 79.5457C28.925 79.617 28.8588 79.6698 28.7806 79.6924C28.7023 79.715 28.6182 79.7056 28.5469 79.6662C28.4755 79.6268 28.4227 79.5607 28.4001 79.4824C28.3779 79.4038 28.3876 79.3196 28.4271 79.2481C28.4667 79.1766 28.5329 79.1237 28.6114 79.1008C28.689 79.0792 28.772 79.089 28.8425 79.1281C28.913 79.1672 28.9653 79.2323 28.9882 79.3096L28.9906 79.312Z" fill="#263238"/>
<path d="M28.5081 64.9288L28.7457 65.1376L29.1345 64.2496" stroke="#263238" stroke-width="0.48" stroke-linecap="round" stroke-linejoin="round"/>
<path d="M27.9297 71.2144L28.1673 71.4232L28.5537 70.5352" stroke="#263238" stroke-width="0.48" stroke-linecap="round" stroke-linejoin="round"/>
<path d="M29.4944 76.7897L29.732 76.9985L30.1184 76.1105" stroke="#263238" stroke-width="0.48" stroke-linecap="round" stroke-linejoin="round"/>
<path d="M35.3672 81.3567L35.6048 81.5655L35.9936 80.6775" stroke="#263238" stroke-width="0.48" stroke-linecap="round" stroke-linejoin="round"/>
<path d="M50.1888 45.5447L30.2168 47.4642L33.1019 77.4819L53.0738 75.5623L50.1888 45.5447Z" fill="white" stroke="#263238" stroke-width="0.24" stroke-linecap="round" stroke-linejoin="round"/>
<path d="M31.9185 49.2952L37.1169 48.796" stroke="#263238" stroke-width="0.48" stroke-linecap="round" stroke-linejoin="round"/>
<path d="M32.0144 50.2937L35.5496 49.9529" stroke="#263238" stroke-width="0.48" stroke-linecap="round" stroke-linejoin="round"/>
<path d="M33.5073 52.5281L48.4569 51.0905" stroke="#263238" stroke-width="0.48" stroke-linecap="round" stroke-linejoin="round"/>
<path d="M33.6033 53.5239L48.5529 52.0887" stroke="#263238" stroke-width="0.48" stroke-linecap="round" stroke-linejoin="round"/>
<path d="M33.7161 54.688L46.4673 53.464" stroke="#263238" stroke-width="0.48" stroke-linecap="round" stroke-linejoin="round"/>
<path d="M35.1003 55.6241L33.8843 55.741L34.0012 56.957L35.2171 56.8401L35.1003 55.6241Z" stroke="#263238" stroke-width="0.24" stroke-linecap="round" stroke-linejoin="round"/>
<path d="M37.3041 55.4116L36.0881 55.5284L36.205 56.7444L37.421 56.6276L37.3041 55.4116Z" stroke="#263238" stroke-width="0.24" stroke-linecap="round" stroke-linejoin="round"/>
<path d="M39.5082 55.2019L38.2922 55.3187L38.4091 56.5347L39.6251 56.4179L39.5082 55.2019Z" stroke="#263238" stroke-width="0.24" stroke-linecap="round" stroke-linejoin="round"/>
<path d="M41.7121 54.9871L40.4961 55.104L40.613 56.32L41.829 56.2031L41.7121 54.9871Z" stroke="#263238" stroke-width="0.24" stroke-linecap="round" stroke-linejoin="round"/>
<path d="M32.7128 52.6048C32.7187 52.6652 32.7065 52.7261 32.6778 52.7796C32.6491 52.8331 32.6052 52.877 32.5516 52.9055C32.498 52.9341 32.4372 52.9462 32.3767 52.9402C32.3163 52.9342 32.259 52.9104 32.2121 52.8719C32.1651 52.8333 32.1307 52.7817 32.1131 52.7236C32.0954 52.6655 32.0955 52.6034 32.1131 52.5453C32.1307 52.4872 32.1652 52.4356 32.2121 52.3971C32.2591 52.3585 32.3164 52.3348 32.3768 52.3288C32.4167 52.3248 32.457 52.3287 32.4953 52.3403C32.5337 52.3519 32.5694 52.371 32.6003 52.3964C32.6313 52.4218 32.657 52.4531 32.6759 52.4884C32.6948 52.5238 32.7065 52.5625 32.7104 52.6024L32.7128 52.6048Z" fill="#263238"/>
<path d="M34.0664 58.348L49.016 56.9128" stroke="#263238" stroke-width="0.48" stroke-linecap="round" stroke-linejoin="round"/>
<path d="M34.1624 59.3464L49.112 57.9088" stroke="#263238" stroke-width="0.48" stroke-linecap="round" stroke-linejoin="round"/>
<path d="M34.2751 60.5103L47.0263 59.2839" stroke="#263238" stroke-width="0.48" stroke-linecap="round" stroke-linejoin="round"/>
<path d="M35.6591 61.4432L34.4431 61.5601L34.56 62.7761L35.776 62.6592L35.6591 61.4432Z" stroke="#263238" stroke-width="0.24" stroke-linecap="round" stroke-linejoin="round"/>
<path d="M37.8632 61.233L36.6472 61.3499L36.7641 62.5659L37.9801 62.449L37.8632 61.233Z" stroke="#263238" stroke-width="0.24" stroke-linecap="round" stroke-linejoin="round"/>
<path d="M40.0673 61.0208L38.8513 61.1377L38.9682 62.3537L40.1842 62.2368L40.0673 61.0208Z" stroke="#263238" stroke-width="0.24" stroke-linecap="round" stroke-linejoin="round"/>
<path d="M42.2717 60.8133L41.0557 60.9302L41.1725 62.1462L42.3885 62.0293L42.2717 60.8133Z" stroke="#263238" stroke-width="0.24" stroke-linecap="round" stroke-linejoin="round"/>
<path d="M33.2721 58.4247C33.278 58.4852 33.2658 58.546 33.2371 58.5995C33.2085 58.6531 33.1645 58.6969 33.111 58.7255C33.0574 58.7541 32.9965 58.7661 32.9361 58.7601C32.8756 58.7541 32.8183 58.7304 32.7714 58.6918C32.7245 58.6532 32.69 58.6016 32.6724 58.5435C32.6548 58.4854 32.6548 58.4234 32.6724 58.3652C32.69 58.3071 32.7245 58.2555 32.7714 58.217C32.8184 58.1784 32.8757 58.1547 32.9361 58.1487C32.9763 58.1447 33.0169 58.1487 33.0556 58.1604C33.0942 58.1722 33.1302 58.1914 33.1614 58.217C33.1926 58.2427 33.2184 58.2742 33.2374 58.3098C33.2564 58.3455 33.2682 58.3845 33.2721 58.4247Z" fill="#263238"/>
<path d="M34.6257 64.168L49.5753 62.7328" stroke="#263238" stroke-width="0.48" stroke-linecap="round" stroke-linejoin="round"/>
<path d="M34.7217 65.1665L49.6713 63.7289" stroke="#263238" stroke-width="0.48" stroke-linecap="round" stroke-linejoin="round"/>
<path d="M34.8345 66.3304L47.5857 65.104" stroke="#263238" stroke-width="0.48" stroke-linecap="round" stroke-linejoin="round"/>
<path d="M36.2182 67.2646L35.0022 67.3815L35.1191 68.5975L36.3351 68.4806L36.2182 67.2646Z" stroke="#263238" stroke-width="0.24" stroke-linecap="round" stroke-linejoin="round"/>
<path d="M38.4223 67.0522L37.2063 67.1691L37.3232 68.3851L38.5392 68.2682L38.4223 67.0522Z" stroke="#263238" stroke-width="0.24" stroke-linecap="round" stroke-linejoin="round"/>
<path d="M40.6264 66.8422L39.4104 66.9591L39.5273 68.1751L40.7433 68.0582L40.6264 66.8422Z" stroke="#263238" stroke-width="0.24" stroke-linecap="round" stroke-linejoin="round"/>
<path d="M42.8305 66.6301L41.6145 66.7469L41.7314 67.9629L42.9474 67.8461L42.8305 66.6301Z" stroke="#263238" stroke-width="0.24" stroke-linecap="round" stroke-linejoin="round"/>
<path d="M33.8288 64.2448C33.8343 64.3048 33.8218 64.3651 33.793 64.4181C33.7641 64.471 33.7203 64.5142 33.6669 64.5422C33.6135 64.5702 33.553 64.5818 33.4931 64.5754C33.4332 64.5691 33.3764 64.5451 33.3301 64.5065C33.2838 64.4679 33.25 64.4164 33.2329 64.3586C33.2159 64.3008 33.2163 64.2392 33.2342 64.1817C33.2522 64.1241 33.2868 64.0732 33.3336 64.0353C33.3805 63.9974 33.4376 63.9743 33.4976 63.9688C33.5375 63.9652 33.5777 63.9694 33.6159 63.9813C33.6541 63.9932 33.6896 64.0125 33.7204 64.0382C33.7511 64.0638 33.7765 64.0952 33.7952 64.1307C33.8138 64.1661 33.8252 64.2049 33.8288 64.2448Z" fill="#263238"/>
<path d="M35.2017 70.1561L50.1513 68.7185" stroke="#263238" stroke-width="0.48" stroke-linecap="round" stroke-linejoin="round"/>
<path d="M35.2976 71.1519L50.2472 69.7167" stroke="#263238" stroke-width="0.48" stroke-linecap="round" stroke-linejoin="round"/>
<path d="M35.408 72.316L48.1592 71.092" stroke="#263238" stroke-width="0.48" stroke-linecap="round" stroke-linejoin="round"/>
<path d="M36.7934 73.2514L35.5774 73.3683L35.6943 74.5843L36.9103 74.4674L36.7934 73.2514Z" stroke="#263238" stroke-width="0.24" stroke-linecap="round" stroke-linejoin="round"/>
<path d="M38.9997 73.0415L37.7837 73.1583L37.9006 74.3743L39.1166 74.2574L38.9997 73.0415Z" stroke="#263238" stroke-width="0.24" stroke-linecap="round" stroke-linejoin="round"/>
<path d="M41.2011 72.8272L39.9851 72.9441L40.102 74.1601L41.318 74.0432L41.2011 72.8272Z" stroke="#263238" stroke-width="0.24" stroke-linecap="round" stroke-linejoin="round"/>
<path d="M43.4052 72.6146L42.1892 72.7314L42.3061 73.9474L43.5221 73.8306L43.4052 72.6146Z" stroke="#263238" stroke-width="0.24" stroke-linecap="round" stroke-linejoin="round"/>
<path d="M34.4049 70.2304C34.4113 70.291 34.3996 70.3522 34.3712 70.4061C34.3427 70.46 34.2989 70.5042 34.2453 70.5331C34.1916 70.562 34.1306 70.5744 34.0699 70.5685C34.0093 70.5627 33.9517 70.5389 33.9046 70.5003C33.8575 70.4616 33.8229 70.4098 33.8053 70.3515C33.7877 70.2932 33.7879 70.2309 33.8057 70.1726C33.8236 70.1144 33.8584 70.0628 33.9057 70.0243C33.953 69.9859 34.0106 69.9624 34.0713 69.9568C34.1112 69.9529 34.1515 69.9568 34.1898 69.9684C34.2282 69.98 34.2639 69.999 34.2949 70.0244C34.3259 70.0499 34.3515 70.0811 34.3704 70.1165C34.3893 70.1518 34.401 70.1905 34.4049 70.2304Z" fill="#263238"/>
<path d="M34.364 56.1857L34.5608 56.4329L35.0984 55.6265" stroke="#263238" stroke-width="0.48" stroke-linecap="round" stroke-linejoin="round"/>
<path d="M39.325 61.5088L39.5217 61.756L40.057 60.9496" stroke="#263238" stroke-width="0.48" stroke-linecap="round" stroke-linejoin="round"/>
<path d="M37.6904 67.6624L37.8872 67.9096L38.4248 67.1031" stroke="#263238" stroke-width="0.48" stroke-linecap="round" stroke-linejoin="round"/>
<path d="M42.6416 73.1801L42.8384 73.4273L43.376 72.6208" stroke="#263238" stroke-width="0.48" stroke-linecap="round" stroke-linejoin="round"/>
<path d="M74.6145 33.712H62.2137C61.7758 33.712 61.3558 33.886 61.0461 34.1957C60.7365 34.5053 60.5625 34.9253 60.5625 35.3632V46.0216C60.5625 46.4596 60.7365 46.8796 61.0461 47.1892C61.3558 47.4989 61.7758 47.6728 62.2137 47.6728H67.7097L70.8585 51.4672L70.0689 47.6728H74.6145C75.0512 47.6709 75.4693 47.4961 75.7774 47.1867C76.0855 46.8772 76.2585 46.4583 76.2585 46.0216V35.3632C76.2585 34.9266 76.0855 34.5077 75.7774 34.1982C75.4693 33.8887 75.0512 33.7139 74.6145 33.712Z" fill="white" stroke="#263238" stroke-width="0.24" stroke-linecap="round" stroke-linejoin="round"/>
<path d="M69.4064 39.5584V38.4304L68.5616 38.3584C68.5112 38.1824 68.4411 38.0125 68.3528 37.852L68.8976 37.204L68.0984 36.4072L67.4504 36.952C67.2906 36.8623 67.1206 36.7922 66.944 36.7432L66.872 35.8984H65.744L65.672 36.7432C65.4954 36.7922 65.3254 36.8623 65.1656 36.952L64.5176 36.4072L63.7184 37.204L64.2584 37.8616C64.1689 38.0218 64.098 38.1917 64.0472 38.368L63.2024 38.44V39.568L64.0472 39.6424C64.098 39.8188 64.1689 39.9887 64.2584 40.1488L63.7112 40.7968L64.5104 41.5936L65.1584 41.0488C65.3182 41.1386 65.4882 41.2087 65.6648 41.2576L65.7368 42.1024H66.8648L66.9368 41.2576C67.1134 41.2087 67.2834 41.1386 67.4432 41.0488L68.0912 41.5936L68.8904 40.7968L68.3456 40.1488C68.4339 39.9884 68.504 39.8185 68.5544 39.6424L69.4064 39.5584ZM66.308 40.3072C66.0483 40.3077 65.7944 40.2312 65.5782 40.0873C65.3621 39.9435 65.1934 39.7387 65.0936 39.499C64.9938 39.2593 64.9674 38.9954 65.0176 38.7407C65.0677 38.4859 65.1923 38.2518 65.3756 38.0678C65.5589 37.8839 65.7926 37.7585 66.0471 37.7073C66.3017 37.6562 66.5657 37.6817 66.8058 37.7807C67.0458 37.8796 67.2512 38.0475 67.3958 38.2631C67.5405 38.4787 67.6179 38.7324 67.6184 38.992C67.619 39.1642 67.5857 39.3348 67.5202 39.4941C67.4548 39.6533 67.3585 39.7981 67.237 39.92C67.1155 40.042 66.9711 40.1388 66.8121 40.2048C66.653 40.2708 66.4826 40.3048 66.3104 40.3048L66.308 40.3072Z" fill="#1850DB"/>
<path d="M73.1385 42.0759V41.2743L72.5361 41.2215C72.5011 41.096 72.4512 40.9751 72.3873 40.8615L72.7761 40.4007L72.2097 39.8343L71.7465 40.2207C71.6325 40.1579 71.5117 40.108 71.3865 40.0719L71.3361 39.4719H70.5321L70.4817 40.0719C70.3558 40.108 70.2343 40.1579 70.1193 40.2207L69.6585 39.8343L69.0921 40.4007L69.4785 40.8615C69.4155 40.9752 69.3663 41.0961 69.3321 41.2215L68.7297 41.2743V42.0759L69.3321 42.1287C69.3663 42.2542 69.4155 42.375 69.4785 42.4887L69.0921 42.9495L69.6585 43.5183L70.1193 43.1295C70.2333 43.1944 70.3551 43.2444 70.4817 43.2783L70.5321 43.8807H71.3361L71.3865 43.2783C71.5124 43.2444 71.6334 43.1944 71.7465 43.1295L72.2097 43.5183L72.7761 42.9495L72.3873 42.4887C72.4522 42.3756 72.5022 42.2546 72.5361 42.1287L73.1385 42.0759ZM70.9329 42.6087C70.7483 42.6087 70.5678 42.554 70.4143 42.4514C70.2607 42.3488 70.1411 42.203 70.0704 42.0324C69.9997 41.8618 69.9813 41.6741 70.0173 41.493C70.0533 41.3119 70.1422 41.1455 70.2728 41.015C70.4033 40.8844 70.5697 40.7955 70.7508 40.7595C70.9319 40.7234 71.1196 40.7419 71.2902 40.8126C71.4608 40.8833 71.6066 41.0029 71.7092 41.1564C71.8118 41.31 71.8665 41.4905 71.8665 41.6751C71.8665 41.9227 71.7682 42.1602 71.5931 42.3353C71.418 42.5104 71.1805 42.6087 70.9329 42.6087Z" fill="#1850DB"/>
<path d="M69.212 43.9457V43.3817L68.7824 43.3433C68.7578 43.2537 68.7224 43.1674 68.6768 43.0865L68.9528 42.7601L68.5496 42.3545L68.2208 42.6305C68.1397 42.5869 68.0545 42.5515 67.9664 42.5249L67.928 42.0977H67.3568L67.3208 42.5249C67.2316 42.5505 67.1454 42.5859 67.064 42.6305L66.7352 42.3545L66.332 42.7601L66.608 43.0865C66.5634 43.1679 66.528 43.254 66.5024 43.3433L66.0752 43.3817V43.9505L66.5024 43.9889C66.528 44.0781 66.5634 44.1642 66.608 44.2457L66.332 44.5817L66.7352 44.9873L67.064 44.7113C67.1459 44.7548 67.2319 44.7902 67.3208 44.8169L67.3568 45.2441H67.928L67.9664 44.8169C68.0545 44.7902 68.1397 44.7548 68.2208 44.7113L68.5496 44.9873L68.9528 44.5817L68.6768 44.2553C68.7224 44.1743 68.7578 44.0881 68.7824 43.9985L69.212 43.9457ZM67.6424 44.3249C67.5109 44.3249 67.3824 44.2859 67.273 44.2128C67.1637 44.1398 67.0785 44.0359 67.0282 43.9145C66.9779 43.793 66.9647 43.6593 66.9904 43.5304C67.016 43.4014 67.0793 43.2829 67.1723 43.19C67.2653 43.097 67.3837 43.0337 67.5127 43.008C67.6417 42.9824 67.7753 42.9955 67.8968 43.0459C68.0183 43.0962 68.1221 43.1814 68.1952 43.2907C68.2682 43.4 68.3072 43.5286 68.3072 43.6601C68.3066 43.836 68.2362 44.0044 68.1116 44.1286C67.987 44.2527 67.8183 44.3225 67.6424 44.3225V44.3249Z" fill="#1850DB"/>
<path d="M68.0818 74.6705L77.749 110.33H79.1938L69.529 74.6705H68.0818Z" fill="#757575" stroke="#263238" stroke-width="0.24" stroke-linecap="round" stroke-linejoin="round"/>
<path d="M89.8545 100.221H71.5305V101.714H89.8545V100.221Z" fill="#999999" stroke="#263238" stroke-width="0.24" stroke-linecap="round" stroke-linejoin="round"/>
<path d="M99.6297 66.6617L87.7905 110.342H86.3505L98.1873 66.6617C98.6241 65.0513 97.6233 63.7409 95.9553 63.7409H85.7553C84.0897 63.7409 82.3761 65.0513 81.9393 66.6617L70.0977 110.342H68.6577L80.4969 66.6617C81.1425 64.2785 83.6673 62.3417 86.1345 62.3417H96.3369C98.7969 62.3417 100.275 64.2761 99.6297 66.6617Z" fill="#757575" stroke="#263238" stroke-width="0.24" stroke-linecap="round" stroke-linejoin="round"/>
<path d="M99.8171 66.6737L96.8795 77.5169C96.738 77.9734 96.4584 78.3747 96.0793 78.6657C95.7002 78.9567 95.2402 79.123 94.7627 79.1417H78.0011C77.799 79.1576 77.5961 79.1226 77.411 79.04C77.2259 78.9573 77.0644 78.8296 76.9413 78.6686C76.8181 78.5075 76.7373 78.3182 76.7061 78.1179C76.6749 77.9175 76.6944 77.7126 76.7627 77.5217L79.7027 66.6785C79.8454 66.2232 80.1254 65.8231 80.5044 65.533C80.8833 65.243 81.3427 65.0773 81.8195 65.0585H98.5787C98.7385 65.0471 98.899 65.0673 99.051 65.1179C99.203 65.1685 99.3436 65.2486 99.4646 65.3536C99.5856 65.4586 99.6848 65.5864 99.7564 65.7297C99.828 65.8731 99.8707 66.0291 99.8819 66.1889C99.8928 66.3532 99.8708 66.5181 99.8171 66.6737Z" fill="#1850DB"/>
<mask id="mask2_619_20264" style="mask-type:luminance" maskUnits="userSpaceOnUse" x="76" y="65" width="24" height="15">
<path d="M99.8171 66.6741L96.8795 77.5173C96.738 77.9737 96.4584 78.3751 96.0793 78.6661C95.7002 78.957 95.2402 79.1233 94.7627 79.1421H78.0011C77.799 79.158 77.5961 79.123 77.411 79.0403C77.2259 78.9577 77.0644 78.83 76.9413 78.669C76.8181 78.5079 76.7373 78.3186 76.7061 78.1182C76.6749 77.9179 76.6944 77.713 76.7627 77.5221L79.7027 66.6789C79.8454 66.2235 80.1254 65.8234 80.5044 65.5334C80.8833 65.2434 81.3427 65.0777 81.8195 65.0589H98.5787C98.7385 65.0475 98.899 65.0676 99.051 65.1183C99.203 65.1689 99.3436 65.249 99.4646 65.354C99.5856 65.459 99.6848 65.5868 99.7564 65.7301C99.828 65.8734 99.8707 66.0295 99.8819 66.1893C99.8928 66.3536 99.8708 66.5184 99.8171 66.6741Z" fill="white"/>
</mask>
<g mask="url(#mask2_619_20264)">
<path opacity="0.2" d="M99.8174 66.6741L96.8798 77.5173C96.7382 77.9737 96.4586 78.3751 96.0795 78.666C95.7004 78.957 95.2405 79.1233 94.763 79.1421H78.0014C77.7992 79.1579 77.5964 79.123 77.4112 79.0403C77.2261 78.9577 77.0646 78.83 76.9415 78.6689C76.8184 78.5079 76.7375 78.3185 76.7063 78.1182C76.6752 77.9179 76.6946 77.7129 76.763 77.5221L79.703 66.6789C79.8456 66.2235 80.1257 65.8234 80.5046 65.5334C80.8836 65.2434 81.3429 65.0776 81.8198 65.0589H90.4862C94.2326 68.8989 93.755 75.9765 93.5102 78.1125C93.9011 78.0182 94.2612 77.8246 94.5555 77.5505C94.8498 77.2764 95.0684 76.931 95.1902 76.5477L98.123 65.7021C98.1828 65.4922 98.1951 65.2717 98.159 65.0565H98.579C98.7804 65.042 98.9823 65.0779 99.1665 65.1608C99.3507 65.2437 99.5115 65.371 99.6342 65.5314C99.757 65.6918 99.838 65.8802 99.87 66.0796C99.902 66.2791 99.8839 66.4833 99.8174 66.6741Z" fill="black" fill-opacity="0.7"/>
</g>
<path d="M99.8171 66.6737L96.8795 77.5169C96.738 77.9734 96.4584 78.3747 96.0793 78.6657C95.7002 78.9567 95.2402 79.123 94.7627 79.1417H78.0011C77.799 79.1576 77.5961 79.1226 77.411 79.04C77.2259 78.9573 77.0644 78.8296 76.9413 78.6686C76.8181 78.5075 76.7373 78.3182 76.7061 78.1179C76.6749 77.9175 76.6944 77.7126 76.7627 77.5217L79.7027 66.6785C79.8454 66.2232 80.1254 65.8231 80.5044 65.533C80.8833 65.243 81.3427 65.0773 81.8195 65.0585H98.5787C98.7385 65.0471 98.899 65.0673 99.051 65.1179C99.203 65.1685 99.3436 65.2486 99.4646 65.3536C99.5856 65.4586 99.6848 65.5864 99.7564 65.7297C99.828 65.8731 99.8707 66.0291 99.8819 66.1889C99.8928 66.3532 99.8708 66.5181 99.8171 66.6737Z" stroke="#263238" stroke-width="0.24" stroke-linecap="round" stroke-linejoin="round"/>
<path d="M89.9624 90.1119L95.444 110.33H96.8888L91.4096 90.1119H89.9624Z" fill="#757575" stroke="#263238" stroke-width="0.24" stroke-linecap="round" stroke-linejoin="round"/>
<path d="M91.4145 87.7818V89.7594H69.8337V87.7818C69.8337 87.3961 69.987 87.0261 70.2597 86.7534C70.5325 86.4806 70.9024 86.3274 71.2881 86.3274H89.9577C90.149 86.3268 90.3385 86.3639 90.5154 86.4368C90.6923 86.5096 90.853 86.6167 90.9884 86.7518C91.1238 86.887 91.2311 87.0475 91.3042 87.2243C91.3774 87.4011 91.4149 87.5905 91.4145 87.7818Z" fill="#1850DB"/>
<mask id="mask3_619_20264" style="mask-type:luminance" maskUnits="userSpaceOnUse" x="69" y="86" width="23" height="4">
<path d="M91.4143 87.7819V89.7595H69.8335V87.7819C69.8335 87.3962 69.9867 87.0263 70.2595 86.7535C70.5322 86.4808 70.9022 86.3275 71.2879 86.3275H89.9575C90.1488 86.3269 90.3383 86.3641 90.5152 86.4369C90.6921 86.5097 90.8528 86.6168 90.9882 86.7519C91.1235 86.8871 91.2309 87.0477 91.304 87.2244C91.3771 87.4012 91.4146 87.5906 91.4143 87.7819Z" fill="white"/>
</mask>
<g mask="url(#mask3_619_20264)">
<path opacity="0.2" d="M91.3639 87.4099C90.6655 88.2307 89.4127 89.0659 87.2575 89.7691H69.8335V87.7819C69.8335 87.3962 69.9867 87.0263 70.2595 86.7535C70.5322 86.4807 70.9022 86.3275 71.2879 86.3275H89.9575C90.2784 86.3278 90.5902 86.4341 90.8445 86.6298C91.0989 86.8256 91.2814 87.0998 91.3639 87.4099Z" fill="black" fill-opacity="0.7"/>
</g>
<path d="M91.4145 87.7818V89.7594H69.8337V87.7818C69.8337 87.3961 69.987 87.0261 70.2597 86.7534C70.5325 86.4806 70.9024 86.3274 71.2881 86.3274H89.9577C90.149 86.3268 90.3385 86.3639 90.5154 86.4368C90.6923 86.5096 90.853 86.6167 90.9884 86.7518C91.1238 86.887 91.2311 87.0475 91.3042 87.2243C91.3774 87.4011 91.4149 87.5905 91.4145 87.7818Z" stroke="#263238" stroke-width="0.24" stroke-linecap="round" stroke-linejoin="round"/>
<path d="M92.1467 89.1616H69.2891C69.0624 89.1616 68.8787 89.3454 68.8787 89.572V90.6064C68.8787 90.8331 69.0624 91.0168 69.2891 91.0168H92.1467C92.3733 91.0168 92.5571 90.8331 92.5571 90.6064V89.572C92.5571 89.3454 92.3733 89.1616 92.1467 89.1616Z" fill="#999999" stroke="#263238" stroke-width="0.24" stroke-linecap="round" stroke-linejoin="round"/>
<path d="M69.133 89.2217C68.0986 90.2753 73.1122 106.83 73.1122 106.83C72.565 107.31 71.7586 107.531 70.9954 107.632C70.2938 107.719 69.5848 107.73 68.881 107.663C68.881 107.663 61.6954 90.2345 63.673 85.9097C65.6506 81.5849 77.9218 79.6217 77.9218 79.6217L78.445 78.3257L84.793 77.4329L85.8418 85.2065C85.8418 85.2065 84.8002 85.3073 83.233 85.5089C79.0306 86.0417 71.0338 87.3017 69.133 89.2217Z" fill="#263238"/>
<mask id="mask4_619_20264" style="mask-type:luminance" maskUnits="userSpaceOnUse" x="63" y="77" width="23" height="31">
<path d="M69.133 89.2217C68.0986 90.2753 73.1122 106.83 73.1122 106.83C72.565 107.31 71.7586 107.531 70.9954 107.632C70.2938 107.719 69.5848 107.73 68.881 107.663C68.881 107.663 61.6954 90.2345 63.673 85.9097C65.6506 81.5849 77.9218 79.6217 77.9218 79.6217L78.445 78.3257L84.793 77.4329L85.8418 85.2065C85.8418 85.2065 84.8002 85.3073 83.233 85.5089C79.0306 86.0417 71.0338 87.3017 69.133 89.2217Z" fill="white"/>
</mask>
<g mask="url(#mask4_619_20264)">
<path opacity="0.3" d="M73.1122 106.84C72.565 107.32 71.7586 107.541 70.9954 107.642C69.601 102.458 66.0514 88.624 67.3954 86.932C69.0538 84.844 77.2618 82.9456 77.2618 82.9456C77.2954 81.88 80.173 80.92 80.173 80.92L83.2306 85.5016C79.0282 86.0416 71.0314 87.3016 69.1306 89.2216C68.0986 90.2848 73.1122 106.84 73.1122 106.84Z" fill="black"/>
</g>
<path d="M69.133 89.2217C68.0986 90.2753 73.1122 106.83 73.1122 106.83C72.565 107.31 71.7586 107.531 70.9954 107.632C70.2938 107.719 69.5848 107.73 68.881 107.663C68.881 107.663 61.6954 90.2345 63.673 85.9097C65.6506 81.5849 77.9218 79.6217 77.9218 79.6217L78.445 78.3257L84.793 77.4329L85.8418 85.2065C85.8418 85.2065 84.8002 85.3073 83.233 85.5089C79.0306 86.0417 71.0338 87.3017 69.133 89.2217Z" stroke="#263238" stroke-width="0.24" stroke-linecap="round" stroke-linejoin="round"/>
<path d="M65.5809 73.5521C64.5273 73.3721 72.0273 66.7961 72.0273 66.7961L75.6441 69.2297C75.6441 69.2297 69.4905 73.5641 68.5233 73.6817C67.5561 73.7993 65.5809 73.5521 65.5809 73.5521Z" fill="white"/>
<mask id="mask5_619_20264" style="mask-type:luminance" maskUnits="userSpaceOnUse" x="65" y="66" width="11" height="8">
<path d="M65.5809 73.5524C64.5273 73.3724 72.0273 66.7964 72.0273 66.7964L75.6441 69.23C75.6441 69.23 69.4905 73.5644 68.5233 73.682C67.5561 73.7996 65.5809 73.5524 65.5809 73.5524Z" fill="white"/>
</mask>
<g mask="url(#mask5_619_20264)">
<path opacity="0.2" d="M65.5809 73.5524C64.5273 73.3724 72.0273 66.7964 72.0273 66.7964L75.6441 69.23C75.6441 69.23 69.4905 73.5644 68.5233 73.682C67.5561 73.7996 65.5809 73.5524 65.5809 73.5524Z" fill="black" fill-opacity="0.7"/>
</g>
<path d="M65.5809 73.5521C64.5273 73.3721 72.0273 66.7961 72.0273 66.7961L75.6441 69.2297C75.6441 69.2297 69.4905 73.5641 68.5233 73.6817C67.5561 73.7993 65.5809 73.5521 65.5809 73.5521Z" stroke="#263238" stroke-width="0.24" stroke-linecap="round" stroke-linejoin="round"/>
<path d="M66.8984 70.7874C66.8984 70.7874 68.4704 71.1786 68.9528 71.5074C69.4352 71.8362 69.296 73.0242 69.296 73.0242C69.296 73.0242 67.2008 72.4338 66.8984 70.7874Z" fill="white" stroke="#263238" stroke-width="0.24" stroke-linecap="round" stroke-linejoin="round"/>
<path d="M65.8955 67.7753L68.8187 73.3817H69.1643L66.3875 67.4993L65.8955 67.7753Z" fill="#263238"/>
<path d="M68.5306 71.829C68.5306 71.829 66.6874 70.5186 66.2362 70.5186C65.785 70.5186 64.4338 72.1146 64.4338 72.9186C64.4338 73.7226 67.381 74.1618 67.957 73.4826C68.245 73.1442 67.6738 72.3281 67.6738 72.3281C68.0169 72.6933 68.385 73.0341 68.7754 73.3481C69.0154 73.4825 69.4738 73.3074 69.4738 73.3074C69.4738 73.3074 68.8594 72.3234 68.5306 71.829Z" fill="white" stroke="#263238" stroke-width="0.24" stroke-linecap="round" stroke-linejoin="round"/>
<path d="M67.6737 73.6672C67.2487 73.1277 66.727 72.6719 66.1353 72.3232" stroke="#263238" stroke-width="0.24" stroke-linecap="round" stroke-linejoin="round"/>
<path d="M67.6737 72.3232C67.6737 72.3232 67.0353 71.7664 66.6057 71.644" stroke="#263238" stroke-width="0.24" stroke-linecap="round" stroke-linejoin="round"/>
<path d="M65.665 73.0312C66.1113 73.26 66.5419 73.5181 66.9538 73.8041" stroke="#263238" stroke-width="0.24" stroke-linecap="round" stroke-linejoin="round"/>
<path d="M74.377 63.9209C73.4338 64.5785 69.1978 68.9345 69.1978 68.9345C69.1978 68.9345 71.1826 71.1929 72.9226 71.5193L77.6386 69.2297L74.377 63.9209Z" fill="#1850DB" stroke="#263238" stroke-width="0.24" stroke-linecap="round" stroke-linejoin="round"/>
<path opacity="0.4" d="M74.377 63.9209C73.4338 64.5785 69.1978 68.9345 69.1978 68.9345C69.1978 68.9345 71.1826 71.1929 72.9226 71.5193L77.6386 69.2297L74.377 63.9209Z" fill="white" stroke="#263238" stroke-width="0.24" stroke-linecap="round" stroke-linejoin="round"/>
<path d="M72.0993 105.083L74.0985 110.342C74.0985 110.342 74.4297 111.693 68.4009 111.266L65.0793 110.982L72.0993 105.083Z" fill="#1850DB"/>
<mask id="mask6_619_20264" style="mask-type:luminance" maskUnits="userSpaceOnUse" x="65" y="105" width="10" height="7">
<path d="M72.0993 105.083L74.0985 110.342C74.0985 110.342 74.4297 111.693 68.4009 111.266L65.0793 110.982L72.0993 105.083Z" fill="white"/>
</mask>
<g mask="url(#mask6_619_20264)">
<path opacity="0.3" d="M72.0993 105.083L74.0985 110.342C74.0985 110.342 74.4297 111.693 68.4009 111.266L65.0793 110.982L72.0993 105.083Z" fill="black"/>
</g>
<path d="M72.0993 105.083L74.0985 110.342C74.0985 110.342 74.4297 111.693 68.4009 111.266L65.0793 110.982L72.0993 105.083Z" stroke="#263238" stroke-width="0.24" stroke-linecap="round" stroke-linejoin="round"/>
<path d="M71.3411 107.598C71.3411 107.598 71.7683 109.641 71.3411 111.16C71.3411 111.16 64.9787 112.156 63.5555 111.777C62.1323 111.398 61.2683 110.687 61.2251 110.337C61.2251 110.337 61.2755 109.362 62.7011 109.077C64.1267 108.791 66.9611 108.597 68.0819 106.989C69.2027 105.381 71.3411 107.598 71.3411 107.598Z" fill="#1850DB" stroke="#263238" stroke-width="0.24" stroke-linecap="round" stroke-linejoin="round"/>
<path d="M79.736 78.1146C81.7688 75.2154 91.1144 78.705 91.1144 78.705C91.1144 78.705 92.0048 85.6842 88.2824 87.5466C84.56 89.409 79.1936 89.3082 77.744 90.8178L71.8448 108.237C71.8448 108.237 69.7256 109.123 66.644 107.728C66.644 107.728 70.3904 94.5738 71.4896 89.9034C72.5768 85.281 79.616 82.1442 79.616 82.1442C79.2532 81.7156 78.9784 81.2198 78.8072 80.685" fill="#263238"/>
<path d="M79.736 78.1146C81.7688 75.2154 91.1144 78.705 91.1144 78.705C91.1144 78.705 92.0048 85.6842 88.2824 87.5466C84.56 89.409 79.1936 89.3082 77.744 90.8178L71.8448 108.237C71.8448 108.237 69.7256 109.123 66.644 107.728C66.644 107.728 70.3904 94.5738 71.4896 89.9034C72.5768 85.281 79.616 82.1442 79.616 82.1442C79.2532 81.7156 78.9784 81.2198 78.8072 80.685" stroke="#263238" stroke-width="0.24" stroke-linecap="round" stroke-linejoin="round"/>
<path d="M89.1969 84.7866C88.8987 85.0509 88.5854 85.2978 88.2585 85.5258" stroke="white" stroke-width="0.24" stroke-linecap="round" stroke-linejoin="round"/>
<path d="M89.9627 78.8754C90.7259 80.5314 90.7859 82.6338 89.7227 84.1674" stroke="white" stroke-width="0.24" stroke-linecap="round" stroke-linejoin="round"/>
<path d="M87.8338 79.1416C87.8338 79.1416 87.6394 80.4184 88.2082 80.9248C88.777 81.4312 90.5218 81.688 90.5218 81.688" stroke="white" stroke-width="0.24" stroke-linecap="round" stroke-linejoin="round"/>
<path d="M80.173 79.1993C80.173 79.1993 80.2522 80.4713 79.7362 80.4113C79.2202 80.3513 79.1938 80.9201 79.1938 80.9201" stroke="white" stroke-width="0.24" stroke-linecap="round" stroke-linejoin="round"/>
<path d="M74.5018 64.9001C74.4231 64.5795 74.3812 64.251 74.377 63.9209C74.377 63.9209 77.2569 61.4921 80.9649 61.5065C85.3809 61.5209 88.081 62.9105 89.161 64.8401C90.8746 67.8929 91.1145 78.7049 91.1145 78.7049C91.1145 78.7049 80.0337 80.4137 78.4449 78.3185C78.1689 77.9537 78.3802 75.3785 78.3802 75.3785C78.3802 75.3785 77.1393 72.1241 76.8777 69.5993C76.5132 69.0968 76.1743 68.5762 75.8626 68.0393C75.468 67.3785 75.1261 66.6875 74.8402 65.9729" fill="#1850DB"/>
<path d="M74.5018 64.9001C74.4231 64.5795 74.3812 64.251 74.377 63.9209C74.377 63.9209 77.2569 61.4921 80.9649 61.5065C85.3809 61.5209 88.081 62.9105 89.161 64.8401C90.8746 67.8929 91.1145 78.7049 91.1145 78.7049C91.1145 78.7049 80.0337 80.4137 78.4449 78.3185C78.1689 77.9537 78.3802 75.3785 78.3802 75.3785C78.3802 75.3785 77.1393 72.1241 76.8777 69.5993C76.5132 69.0968 76.1743 68.5762 75.8626 68.0393C75.468 67.3785 75.1261 66.6875 74.8402 65.9729" stroke="#263238" stroke-width="0.24" stroke-linecap="round" stroke-linejoin="round"/>
<g opacity="0.6">
<path d="M74.5018 64.9001C74.4231 64.5795 74.3812 64.251 74.377 63.9209C74.377 63.9209 77.2569 61.4921 80.9649 61.5065C85.3809 61.5209 88.081 62.9105 89.161 64.8401C90.8746 67.8929 91.1145 78.7049 91.1145 78.7049C91.1145 78.7049 80.0337 80.4137 78.4449 78.3185C78.1689 77.9537 78.3802 75.3785 78.3802 75.3785C78.3802 75.3785 77.1393 72.1241 76.8777 69.5993C76.5132 69.0968 76.1743 68.5762 75.8626 68.0393C75.468 67.3785 75.1261 66.6875 74.8402 65.9729" fill="white"/>
<path d="M74.5018 64.9001C74.4231 64.5795 74.3812 64.251 74.377 63.9209C74.377 63.9209 77.2569 61.4921 80.9649 61.5065C85.3809 61.5209 88.081 62.9105 89.161 64.8401C90.8746 67.8929 91.1145 78.7049 91.1145 78.7049C91.1145 78.7049 80.0337 80.4137 78.4449 78.3185C78.1689 77.9537 78.3802 75.3785 78.3802 75.3785C78.3802 75.3785 77.1393 72.1241 76.8777 69.5993C76.5132 69.0968 76.1743 68.5762 75.8626 68.0393C75.468 67.3785 75.1261 66.6875 74.8402 65.9729" stroke="#263238" stroke-width="0.24" stroke-linecap="round" stroke-linejoin="round"/>
</g>
<path d="M78.7451 67.4993C78.7451 67.4993 80.4371 74.0633 80.1851 75.5081C80.1249 76.0066 80.2082 76.512 80.4251 76.9649C80.204 77.1974 80.0618 77.4937 80.0188 77.8117C79.9757 78.1296 80.0339 78.4531 80.1851 78.7361" stroke="#263238" stroke-width="0.24" stroke-linecap="round" stroke-linejoin="round"/>
<path d="M83.233 72.9304C82.9308 72.9189 82.6373 72.826 82.3834 72.6616L81.8818 70.4632C82.877 70.5537 83.8803 70.4832 84.853 70.2544L85.3906 72.6544C85.0884 72.7387 84.7815 72.8052 84.4714 72.8536" stroke="#263238" stroke-width="0.24" stroke-linecap="round" stroke-linejoin="round"/>
<path d="M77.5425 68.3538C77.5425 68.3538 76.1025 62.2194 79.7361 61.5066C83.3697 60.7938 84.1161 62.4906 83.9025 63.6402C83.6169 65.1738 80.6049 68.9346 80.6049 68.9346L78.7449 67.4946L77.5425 68.3538Z" fill="#1850DB" stroke="#263238" stroke-width="0.24" stroke-linecap="round" stroke-linejoin="round"/>
<path opacity="0.4" d="M77.5425 68.3538C77.5425 68.3538 76.1025 62.2194 79.7361 61.5066C83.3697 60.7938 84.1161 62.4906 83.9025 63.6402C83.6169 65.1738 80.6049 68.9346 80.6049 68.9346L78.7449 67.4946L77.5425 68.3538Z" fill="white" stroke="#263238" stroke-width="0.24" stroke-linecap="round" stroke-linejoin="round"/>
<path d="M72.7761 87.3016C72.7761 87.3016 75.1233 84.592 80.4225 82.5448C80.4225 82.5448 79.0497 82.1248 78.7425 81.5536" stroke="white" stroke-width="0.24" stroke-linecap="round" stroke-linejoin="round"/>
<path d="M70.0162 95.5936L67.8706 103.384" stroke="white" stroke-width="0.24" stroke-linecap="round" stroke-linejoin="round"/>
<path d="M86.5952 73.1416C86.5952 73.1416 87.5552 74.7616 91.508 74.6128C90.7724 73.8252 89.8418 73.2456 88.8104 72.9328C87.1952 72.5008 86.5952 73.1416 86.5952 73.1416Z" fill="#1850DB" stroke="#263238" stroke-width="0.24" stroke-linecap="round" stroke-linejoin="round"/>
<path d="M71.2593 73.7921C71.2593 73.7921 72.1761 72.3713 73.0161 72.0857C73.8561 71.8001 76.3233 71.7761 76.7049 71.7665C77.0865 71.7569 83.8665 73.4801 87.0489 74.5409L86.7705 69.2297L91.0473 69.5681C91.0473 69.5681 90.8745 76.0481 90.2097 77.7641C89.5449 79.4801 88.5921 79.0625 86.9673 78.3617C80.5761 75.6089 76.8321 73.6913 76.4841 73.8017C76.1361 73.9121 71.2593 73.7921 71.2593 73.7921Z" fill="white" stroke="#263238" stroke-width="0.24" stroke-linecap="round" stroke-linejoin="round"/>
<path d="M85.7027 66.1433C85.5909 66.5836 85.5552 67.0398 85.5971 67.4921C85.7867 69.1529 86.5955 73.1417 86.5955 73.1417C86.5955 73.1417 90.5819 73.7105 91.5083 74.6129C91.5083 74.6129 92.1659 69.3329 90.8267 66.6521C89.4875 63.9713 88.1027 63.6761 88.1027 63.6761C87.2267 63.4601 86.4226 64.2761 85.9786 65.3249" fill="#1850DB"/>
<path d="M85.7027 66.1433C85.5909 66.5836 85.5552 67.0398 85.5971 67.4921C85.7867 69.1529 86.5955 73.1417 86.5955 73.1417C86.5955 73.1417 90.5819 73.7105 91.5083 74.6129C91.5083 74.6129 92.1659 69.3329 90.8267 66.6521C89.4875 63.9713 88.1027 63.6761 88.1027 63.6761C87.2267 63.4601 86.4226 64.2761 85.9786 65.3249" stroke="#263238" stroke-width="0.24" stroke-linecap="round" stroke-linejoin="round"/>
<g opacity="0.4">
<path d="M85.7027 66.1433C85.5909 66.5836 85.5552 67.0398 85.5971 67.4921C85.7867 69.1529 86.5955 73.1417 86.5955 73.1417C86.5955 73.1417 90.5819 73.7105 91.5083 74.6129C91.5083 74.6129 92.1659 69.3329 90.8267 66.6521C89.4875 63.9713 88.1027 63.6761 88.1027 63.6761C87.2267 63.4601 86.4226 64.2761 85.9786 65.3249" fill="white"/>
<path d="M85.7027 66.1433C85.5909 66.5836 85.5552 67.0398 85.5971 67.4921C85.7867 69.1529 86.5955 73.1417 86.5955 73.1417C86.5955 73.1417 90.5819 73.7105 91.5083 74.6129C91.5083 74.6129 92.1659 69.3329 90.8267 66.6521C89.4875 63.9713 88.1027 63.6761 88.1027 63.6761C87.2267 63.4601 86.4226 64.2761 85.9786 65.3249" stroke="#263238" stroke-width="0.24" stroke-linecap="round" stroke-linejoin="round"/>
</g>
<path d="M73.9907 68.1978C74.5875 68.6861 75.2837 69.0383 76.0307 69.2298" stroke="#263238" stroke-width="0.24" stroke-linecap="round" stroke-linejoin="round"/>
<path d="M86.5952 68.1978C86.5952 68.1978 88.0352 70.9194 89.8544 71.5194" stroke="#263238" stroke-width="0.24" stroke-linecap="round" stroke-linejoin="round"/>
<path d="M77.2642 89.1616C77.2642 89.1616 77.5306 89.3632 77.6386 90.0904" stroke="white" stroke-width="0.24" stroke-linecap="round" stroke-linejoin="round"/>
<path d="M76.2776 90.0905C76.5095 90.1156 76.7336 90.1888 76.9356 90.3053C77.1377 90.4218 77.3133 90.5792 77.4512 90.7673" stroke="white" stroke-width="0.24" stroke-linecap="round" stroke-linejoin="round"/>
<path d="M68.3386 87.3016C68.3386 87.3016 69.1066 87.6904 68.941 88.792" stroke="white" stroke-width="0.24" stroke-linecap="round" stroke-linejoin="round"/>
<path d="M67.5298 88.2378C67.5298 88.2378 68.5786 88.8594 68.653 89.4162" stroke="white" stroke-width="0.24" stroke-linecap="round" stroke-linejoin="round"/>
<path d="M79.6858 81.5225C79.6858 81.5225 82.021 81.8489 82.5442 81.5225" stroke="white" stroke-width="0.24" stroke-linecap="round" stroke-linejoin="round"/>
<path d="M78.7449 67.2353C78.5433 66.6637 78.4616 66.0566 78.5049 65.4521C78.5145 65.247 78.5361 65.0426 78.5697 64.8401L78.1641 64.1969L77.6433 63.3689L78.2457 60.9689C78.2457 60.9689 82.0857 61.7081 82.3737 62.7785C82.6617 63.8489 78.7449 67.2353 78.7449 67.2353Z" fill="white"/>
<mask id="mask7_619_20264" style="mask-type:luminance" maskUnits="userSpaceOnUse" x="77" y="60" width="6" height="8">
<path d="M78.7447 67.2354C78.5431 66.6638 78.4614 66.0568 78.5047 65.4522C78.5143 65.2471 78.5359 65.0427 78.5695 64.8402L78.1639 64.197L77.6431 63.369L78.2455 60.969C78.2455 60.969 82.0855 61.7082 82.3735 62.7786C82.6615 63.849 78.7447 67.2354 78.7447 67.2354Z" fill="white"/>
</mask>
<g mask="url(#mask7_619_20264)">
<path opacity="0.2" d="M78.5 65.4618C78.5096 65.2567 78.5312 65.0523 78.5648 64.8498L78.1592 64.2066C78.8902 64.0935 79.5559 63.7202 80.0336 63.1554C80.0537 63.6524 79.9163 64.1431 79.6409 64.5573C79.3654 64.9716 78.9661 65.2881 78.5 65.4618Z" fill="black" fill-opacity="0.7"/>
</g>
<path d="M78.7449 67.2353C78.5433 66.6637 78.4616 66.0566 78.5049 65.4521C78.5145 65.247 78.5361 65.0426 78.5697 64.8401L78.1641 64.1969L77.6433 63.3689L78.2457 60.9689C78.2457 60.9689 82.0857 61.7081 82.3737 62.7785C82.6617 63.8489 78.7449 67.2353 78.7449 67.2353Z" stroke="#263238" stroke-width="0.24" stroke-linecap="round" stroke-linejoin="round"/>
<path d="M81.1547 61.1705C82.3547 58.0505 81.5579 52.7393 75.7979 53.7569C72.4187 54.3569 72.0107 58.4417 73.1387 60.2561C74.2667 62.0705 73.0691 62.1281 74.7659 63.4721C75.4547 64.0169 76.0091 64.9409 76.8299 65.0009C77.8067 65.0681 79.0571 64.1441 79.9907 63.1457" fill="white"/>
<path d="M81.1547 61.1705C82.3547 58.0505 81.5579 52.7393 75.7979 53.7569C72.4187 54.3569 72.0107 58.4417 73.1387 60.2561C74.2667 62.0705 73.0691 62.1281 74.7659 63.4721C75.4547 64.0169 76.0091 64.9409 76.8299 65.0009C77.8067 65.0681 79.0571 64.1441 79.9907 63.1457" stroke="#263238" stroke-width="0.24" stroke-linecap="round" stroke-linejoin="round"/>
<path d="M75.4785 60.2561C75.4785 60.2561 76.3281 59.4833 77.3385 59.8025" stroke="#263238" stroke-width="0.24" stroke-linecap="round" stroke-linejoin="round"/>
<path d="M73.8875 60.2561C73.7735 60.0556 73.6148 59.8842 73.4238 59.7552C73.2327 59.6261 73.0144 59.5429 72.7859 59.5121" stroke="#263238" stroke-width="0.24" stroke-linecap="round" stroke-linejoin="round"/>
<path d="M74.449 61.3816C74.449 61.3816 74.3266 62.0032 74.1658 62.632C74.005 63.2608 75.1738 62.9176 75.1258 62.8216" fill="white"/>
<path d="M74.449 61.3816C74.449 61.3816 74.3266 62.0032 74.1658 62.632C74.005 63.2608 75.1738 62.9176 75.1258 62.8216" stroke="#263238" stroke-width="0.24" stroke-linecap="round" stroke-linejoin="round"/>
<path d="M75.7283 63.6066C76.2238 63.4647 76.6648 63.176 76.9931 62.7786" stroke="#263238" stroke-width="0.24" stroke-linecap="round" stroke-linejoin="round"/>
<path d="M76.6618 61.0457C76.6788 61.076 76.6898 61.1093 76.6939 61.1438C76.6981 61.1782 76.6954 61.2132 76.6861 61.2466C76.6767 61.2801 76.6608 61.3113 76.6394 61.3386C76.6179 61.3659 76.5913 61.3887 76.561 61.4057C76.4995 61.4393 76.4272 61.4474 76.3598 61.4281C76.2924 61.4087 76.2353 61.3636 76.201 61.3025C76.179 61.2655 76.1674 61.2232 76.1674 61.1801C76.1503 61.1499 76.1394 61.1166 76.1352 61.0821C76.131 61.0476 76.1337 61.0126 76.1431 60.9792C76.1524 60.9458 76.1683 60.9145 76.1898 60.8872C76.2112 60.8599 76.2379 60.8371 76.2682 60.8201C76.3297 60.7865 76.402 60.7785 76.4694 60.7978C76.5368 60.8171 76.5938 60.8622 76.6282 60.9233C76.6502 60.9604 76.6618 61.0026 76.6618 61.0457Z" fill="#263238"/>
<path d="M74.0984 60.9929C74.1464 61.1657 74.1128 61.3289 74.0216 61.3529C73.9304 61.3769 73.8176 61.2569 73.7816 61.0817C73.7456 60.9065 73.7696 60.7457 73.8608 60.7217C73.952 60.6977 74.0456 60.8177 74.0984 60.9929Z" fill="#263238"/>
<path d="M77.6026 57.0425C77.6026 57.0425 76.7098 59.3777 74.5018 59.3249C74.5018 59.3249 75.2674 58.7417 75.4786 58.1849C75.4786 58.1849 73.7794 59.8649 72.0826 59.0105C70.3858 58.1561 71.2186 54.1817 73.8226 52.6121C76.4266 51.0425 79.0906 51.4625 79.993 52.9625C79.993 52.9625 81.817 52.7945 82.621 55.4753C83.341 57.8753 82.189 61.5137 81.0634 61.5545C79.3186 61.6193 78.9682 59.7257 78.9682 59.7257C78.2479 58.9931 77.771 58.0561 77.6026 57.0425Z" fill="#263238" stroke="#263238" stroke-width="0.24" stroke-linecap="round" stroke-linejoin="round"/>
<path d="M79.5153 61.1824C79.5153 61.1824 79.4601 58.9792 80.7153 59.2456C81.9705 59.512 81.0608 62.0584 80.1176 62.032" fill="white"/>
<path d="M79.5153 61.1824C79.5153 61.1824 79.4601 58.9792 80.7153 59.2456C81.9705 59.512 81.0608 62.0584 80.1176 62.032" stroke="#263238" stroke-width="0.24" stroke-linecap="round" stroke-linejoin="round"/>
<path d="M75.6394 73.552H56.2882C56.0721 73.552 55.897 73.7271 55.897 73.9432V74.6176C55.897 74.8337 56.0721 75.0088 56.2882 75.0088H75.6394C75.8554 75.0088 76.0306 74.8337 76.0306 74.6176V73.9432C76.0306 73.7271 75.8554 73.552 75.6394 73.552Z" fill="#1850DB" stroke="#263238" stroke-width="0.24" stroke-linecap="round" stroke-linejoin="round"/>
<path d="M27.7278 102.868H19.5654L20.4198 110.33H26.8734L27.7278 102.868Z" fill="#263238" stroke="#263238" stroke-width="0.24" stroke-linecap="round" stroke-linejoin="round"/>
<path d="M28.6952 97.6744C28.6952 97.6744 25.1312 97.9552 24.9824 100.586C24.9824 100.586 28.592 102.246 28.6952 97.6744Z" fill="#1850DB" stroke="#263238" stroke-width="0.24" stroke-linecap="round" stroke-linejoin="round"/>
<path d="M21.644 98.327C21.644 98.327 19.652 95.6342 16.4336 97.0142C16.4336 97.0142 18.3992 100.261 21.644 98.327Z" fill="#1850DB" stroke="#263238" stroke-width="0.24" stroke-linecap="round" stroke-linejoin="round"/>
<path d="M16.7073 89.8265C16.7073 89.8265 16.1337 95.0057 20.8497 93.5801C20.8497 93.5801 19.3521 89.7713 16.7073 89.8265Z" fill="#1850DB" stroke="#263238" stroke-width="0.24" stroke-linecap="round" stroke-linejoin="round"/>
<path d="M22.4985 86.9417C22.4985 86.9417 18.7689 88.9529 21.5121 92.0057C21.5097 92.0057 24.1233 89.8241 22.4985 86.9417Z" fill="#1850DB" stroke="#263238" stroke-width="0.24" stroke-linecap="round" stroke-linejoin="round"/>
<path d="M27.0848 91.5713C27.0848 91.5713 23.0288 91.1609 23.0288 94.9145C23.0288 94.9145 27.0848 95.0753 27.0848 91.5713Z" fill="#1850DB" stroke="#263238" stroke-width="0.24" stroke-linecap="round" stroke-linejoin="round"/>
<path d="M23.2617 105.942C23.2617 105.942 25.1097 102.064 23.3361 98.1136C21.5625 94.1632 20.9601 90.8344 21.8961 88.4896" stroke="#263238" stroke-width="0.24" stroke-linecap="round" stroke-linejoin="round"/>
<path d="M25.7527 92.5817C25.7527 92.5817 23.3215 93.5417 22.4983 96.0497" stroke="#263238" stroke-width="0.24" stroke-linecap="round" stroke-linejoin="round"/>
<path d="M17.9888 91.8977C17.9888 91.8977 19.3928 93.8177 21.7712 93.6041" stroke="#263238" stroke-width="0.24" stroke-linecap="round" stroke-linejoin="round"/>
<path d="M17.9888 97.5662C17.9888 97.5662 21.8768 98.6846 23.4224 98.3198" stroke="#263238" stroke-width="0.24" stroke-linecap="round" stroke-linejoin="round"/>
<path d="M27.5385 98.8577C27.5385 98.8577 25.7985 100.778 24.0513 100.737" stroke="#263238" stroke-width="0.24" stroke-linecap="round" stroke-linejoin="round"/>
<path d="M28.0783 102.702H19.2151V103.756H28.0783V102.702Z" fill="#263238" stroke="#263238" stroke-width="0.24" stroke-linecap="round" stroke-linejoin="round"/>
<path d="M92.396 95.9417C90.324 97.2952 88.5854 99.1003 87.3104 101.222C85.196 104.75 83.5208 109.713 86.1224 110.342L88.5968 110.248L93.3584 108.614L92.8592 107.654C92.8592 107.654 88.6904 109.862 87.9776 109.862C87.2648 109.862 86.336 110.039 85.9448 109.754C85.5536 109.468 87.3152 103.053 91.0856 100.914C94.856 98.7761 92.396 95.9417 92.396 95.9417Z" fill="#1850DB"/>
<mask id="mask8_619_20264" style="mask-type:luminance" maskUnits="userSpaceOnUse" x="84" y="95" width="10" height="16">
<path d="M92.3963 95.9414C90.3243 97.295 88.5856 99.1001 87.3107 101.221C85.1963 104.749 83.5211 109.713 86.1227 110.341L88.5971 110.248L93.3587 108.613L92.8595 107.653C92.8595 107.653 88.6907 109.861 87.9779 109.861C87.2651 109.861 86.3363 110.039 85.9451 109.753C85.5539 109.468 87.3155 103.053 91.0859 100.914C94.8563 98.7758 92.3963 95.9414 92.3963 95.9414Z" fill="white"/>
</mask>
<g mask="url(#mask8_619_20264)">
<path opacity="0.5" d="M92.3963 95.9414C90.3243 97.295 88.5856 99.1001 87.3107 101.221C85.1963 104.749 83.5211 109.713 86.1227 110.341L88.5971 110.248L93.3587 108.613L92.8595 107.653C92.8595 107.653 88.6907 109.861 87.9779 109.861C87.2651 109.861 86.3363 110.039 85.9451 109.753C85.5539 109.468 87.3155 103.053 91.0859 100.914C94.8563 98.7758 92.3963 95.9414 92.3963 95.9414Z" fill="black" fill-opacity="0.7"/>
</g>
<path d="M92.396 95.9417C90.324 97.2952 88.5854 99.1003 87.3104 101.222C85.196 104.75 83.5208 109.713 86.1224 110.342L88.5968 110.248L93.3584 108.614L92.8592 107.654C92.8592 107.654 88.6904 109.862 87.9776 109.862C87.2648 109.862 86.336 110.039 85.9448 109.754C85.5536 109.468 87.3152 103.053 91.0856 100.914C94.856 98.7761 92.396 95.9417 92.396 95.9417Z" stroke="#263238" stroke-width="0.24" stroke-linecap="round" stroke-linejoin="round"/>
<path d="M95.1055 93.628C95.1055 93.628 95.1055 92.5936 96.6727 92.452C98.2399 92.3104 98.4631 93.82 98.4631 93.82H97.9231C97.9231 93.82 97.9351 92.9152 96.7831 92.8456C95.6311 92.776 95.6743 93.82 95.6743 93.82L95.1055 93.628Z" fill="#1850DB" stroke="#263238" stroke-width="0.24" stroke-linecap="round" stroke-linejoin="round"/>
<path d="M92.7873 110.342C89.4729 110.342 90.1017 95.4785 90.4833 94.7417C90.8649 94.0049 100.482 93.6377 101.43 93.9497C102.378 94.2617 106.179 109.07 104.082 110.253L92.7873 110.342Z" fill="#1850DB"/>
<mask id="mask9_619_20264" style="mask-type:luminance" maskUnits="userSpaceOnUse" x="90" y="93" width="15" height="18">
<path d="M92.7873 110.342C89.4729 110.342 90.1017 95.4785 90.4833 94.7417C90.8649 94.0049 100.482 93.6377 101.43 93.9497C102.378 94.2617 106.179 109.07 104.082 110.253L92.7873 110.342Z" fill="white"/>
</mask>
<g mask="url(#mask9_619_20264)">
<path opacity="0.2" d="M92.7873 110.342C89.4729 110.342 90.1017 95.4785 90.4833 94.7417C90.8649 94.0049 100.482 93.6377 101.43 93.9497C102.378 94.2617 106.179 109.07 104.082 110.253L92.7873 110.342Z" fill="black" fill-opacity="0.7"/>
</g>
<path d="M92.7873 110.342C89.4729 110.342 90.1017 95.4785 90.4833 94.7417C90.8649 94.0049 100.482 93.6377 101.43 93.9497C102.378 94.2617 106.179 109.07 104.082 110.253L92.7873 110.342Z" stroke="#263238" stroke-width="0.24" stroke-linecap="round" stroke-linejoin="round"/>
<path d="M90.4834 94.7249C91.6834 94.9817 92.3746 99.8465 93.9898 101.085C95.605 102.323 103.22 102.057 104.082 101.085C104.943 100.113 103.259 94.6553 102.035 93.8201C100.811 92.9849 99.9394 93.7961 96.4954 93.4145C91.3906 92.8457 90.4834 94.7249 90.4834 94.7249Z" fill="#1850DB" stroke="#263238" stroke-width="0.24" stroke-linecap="round" stroke-linejoin="round"/>
<path d="M99.2241 97.5207L100.635 98.6727C100.655 98.689 100.67 98.709 100.682 98.7315C100.693 98.754 100.7 98.7786 100.702 98.8038C100.704 98.829 100.701 98.8543 100.694 98.8784C100.686 98.9024 100.673 98.9247 100.657 98.9439L99.5577 100.129C99.5226 100.164 99.4751 100.184 99.4257 100.184C99.3762 100.184 99.3288 100.164 99.2937 100.129L97.8897 98.8215C97.8554 98.7861 97.8362 98.7387 97.8362 98.6895C97.8362 98.6402 97.8554 98.5928 97.8897 98.5575L98.9769 97.5471C99.0077 97.5132 99.0499 97.4918 99.0955 97.4869C99.141 97.482 99.1868 97.494 99.2241 97.5207Z" fill="#1850DB"/>
<mask id="mask10_619_20264" style="mask-type:luminance" maskUnits="userSpaceOnUse" x="97" y="97" width="4" height="4">
<path d="M99.2241 97.5207L100.635 98.6727C100.655 98.689 100.67 98.709 100.682 98.7315C100.693 98.754 100.7 98.7786 100.702 98.8038C100.704 98.829 100.701 98.8543 100.694 98.8784C100.686 98.9024 100.673 98.9247 100.657 98.9439L99.5577 100.129C99.5226 100.164 99.4751 100.184 99.4257 100.184C99.3762 100.184 99.3288 100.164 99.2937 100.129L97.8897 98.8215C97.8554 98.7861 97.8362 98.7387 97.8362 98.6895C97.8362 98.6402 97.8554 98.5928 97.8897 98.5575L98.9769 97.5471C99.0077 97.5132 99.0499 97.4918 99.0955 97.4869C99.141 97.482 99.1868 97.494 99.2241 97.5207Z" fill="white"/>
</mask>
<g mask="url(#mask10_619_20264)">
<path opacity="0.2" d="M99.2241 97.5207L100.635 98.6727C100.655 98.689 100.67 98.709 100.682 98.7315C100.693 98.754 100.7 98.7786 100.702 98.8038C100.704 98.829 100.701 98.8543 100.694 98.8784C100.686 98.9024 100.673 98.9247 100.657 98.9439L99.5577 100.129C99.5226 100.164 99.4751 100.184 99.4257 100.184C99.3762 100.184 99.3288 100.164 99.2937 100.129L97.8897 98.8215C97.8554 98.7861 97.8362 98.7387 97.8362 98.6895C97.8362 98.6402 97.8554 98.5928 97.8897 98.5575L98.9769 97.5471C99.0077 97.5132 99.0499 97.4918 99.0955 97.4869C99.141 97.482 99.1868 97.494 99.2241 97.5207Z" fill="black" fill-opacity="0.7"/>
</g>
<path d="M99.2241 97.5207L100.635 98.6727C100.655 98.689 100.67 98.709 100.682 98.7315C100.693 98.754 100.7 98.7786 100.702 98.8038C100.704 98.829 100.701 98.8543 100.694 98.8784C100.686 98.9024 100.673 98.9247 100.657 98.9439L99.5577 100.129C99.5226 100.164 99.4751 100.184 99.4257 100.184C99.3762 100.184 99.3288 100.164 99.2937 100.129L97.8897 98.8215C97.8554 98.7861 97.8362 98.7387 97.8362 98.6895C97.8362 98.6402 97.8554 98.5928 97.8897 98.5575L98.9769 97.5471C99.0077 97.5132 99.0499 97.4918 99.0955 97.4869C99.141 97.482 99.1868 97.494 99.2241 97.5207Z" stroke="#263238" stroke-width="0.24" stroke-linecap="round" stroke-linejoin="round"/>
<path d="M94.5704 103.571C94.5704 103.571 100.95 104.097 104.082 103.286C104.501 103.615 104.812 104.062 104.977 104.57C105.262 105.424 105.858 108.347 104.082 109.096C102.306 109.845 95.9216 109.701 95.0696 108.856C94.2176 108.011 94.5704 103.571 94.5704 103.571Z" fill="#1850DB"/>
<mask id="mask11_619_20264" style="mask-type:luminance" maskUnits="userSpaceOnUse" x="94" y="103" width="12" height="7">
<path d="M94.5702 103.571C94.5702 103.571 100.949 104.096 104.081 103.285C104.5 103.615 104.812 104.062 104.977 104.569C105.262 105.423 105.857 108.347 104.081 109.095C102.305 109.844 95.9214 109.7 95.0694 108.855C94.2174 108.011 94.5702 103.571 94.5702 103.571Z" fill="white"/>
</mask>
<g mask="url(#mask11_619_20264)">
<path opacity="0.4" d="M94.5702 103.571C94.5702 103.571 100.949 104.096 104.081 103.285C104.5 103.615 104.812 104.062 104.977 104.569C105.262 105.423 105.857 108.347 104.081 109.095C102.305 109.844 95.9214 109.7 95.0694 108.855C94.2174 108.011 94.5702 103.571 94.5702 103.571Z" fill="black" fill-opacity="0.7"/>
</g>
<path d="M94.5704 103.571C94.5704 103.571 100.95 104.097 104.082 103.286C104.501 103.615 104.812 104.062 104.977 104.57C105.262 105.424 105.858 108.347 104.082 109.096C102.306 109.845 95.9216 109.701 95.0696 108.856C94.2176 108.011 94.5704 103.571 94.5704 103.571Z" stroke="#263238" stroke-width="0.24" stroke-linecap="round" stroke-linejoin="round"/>
<path d="M94.5706 103.571C94.5706 103.571 95.3194 105.59 95.7106 105.899C96.1018 106.209 104.389 106.209 105.311 105.46C106.232 104.711 104.97 103.358 104.084 103.286C104.082 103.286 98.2762 103.962 94.5706 103.571Z" fill="#1850DB" stroke="#263238" stroke-width="0.24" stroke-linecap="round" stroke-linejoin="round"/>
<path d="M91.897 103.141C91.897 103.141 92.1106 107.382 92.5378 108.345C92.2207 108.51 91.8683 108.597 91.5106 108.597C91.1529 108.597 90.8005 108.51 90.4834 108.345C89.4034 107.773 89.581 104.121 89.7946 104.13C90.0082 104.14 91.897 103.141 91.897 103.141Z" fill="#1850DB"/>
<mask id="mask12_619_20264" style="mask-type:luminance" maskUnits="userSpaceOnUse" x="89" y="103" width="4" height="6">
<path d="M91.8967 103.142C91.8967 103.142 92.1103 107.383 92.5375 108.345C92.2204 108.511 91.868 108.597 91.5103 108.597C91.1526 108.597 90.8002 108.511 90.4831 108.345C89.4031 107.774 89.5807 104.121 89.7943 104.131C90.0079 104.14 91.8967 103.142 91.8967 103.142Z" fill="white"/>
</mask>
<g mask="url(#mask12_619_20264)">
<path opacity="0.4" d="M91.8967 103.142C91.8967 103.142 92.1103 107.383 92.5375 108.345C92.2204 108.511 91.868 108.597 91.5103 108.597C91.1526 108.597 90.8002 108.511 90.4831 108.345C89.4031 107.774 89.5807 104.121 89.7943 104.131C90.0079 104.14 91.8967 103.142 91.8967 103.142Z" fill="black" fill-opacity="0.7"/>
</g>
<path d="M91.897 103.141C91.897 103.141 92.1106 107.382 92.5378 108.345C92.2207 108.51 91.8683 108.597 91.5106 108.597C91.1529 108.597 90.8005 108.51 90.4834 108.345C89.4034 107.773 89.581 104.121 89.7946 104.13C90.0082 104.14 91.897 103.141 91.897 103.141Z" stroke="#263238" stroke-width="0.24" stroke-linecap="round" stroke-linejoin="round"/>
<path d="M91.8968 103.141L90.2912 103.463C90.2912 103.463 88.76 104.639 89.4368 105.03C90.1136 105.421 91.8584 104.461 91.8968 103.141Z" fill="#1850DB" stroke="#263238" stroke-width="0.24" stroke-linecap="round" stroke-linejoin="round"/>
</svg>
