<svg width="181" height="121" viewBox="0 0 181 121" fill="none" xmlns="http://www.w3.org/2000/svg">
<path d="M144.762 9.37831C126.071 6.94471 115.448 17.3127 90.3273 18.4383C65.3673 16.4847 55.8585 5.78311 36.9369 7.59511C16.5849 9.54391 0.821735 36.0639 5.30734 62.5935C9.79294 89.1231 37.5921 103.953 51.8025 103.874C63.1617 103.799 73.1937 99.1767 86.1441 98.0727C98.9577 99.6015 108.488 104.553 119.819 104.997C133.995 105.558 163.304 91.6719 170.564 65.3391C177.824 39.0063 164.874 12.0015 144.762 9.37831Z" fill="#336EFF" fill-opacity="0.3"/>
<path opacity="0.7" d="M144.762 9.37831C126.071 6.94471 115.448 17.3127 90.3273 18.4383C65.3673 16.4847 55.8585 5.78311 36.9369 7.59511C16.5849 9.54391 0.821736 36.0639 5.30734 62.5935C9.79294 89.1231 37.5921 103.953 51.8025 103.874C63.1617 103.799 73.1937 99.1767 86.1441 98.0727C98.9577 99.6015 108.488 104.553 119.819 104.997C133.995 105.558 163.304 91.6719 170.564 65.3391C177.824 39.0063 164.874 12.0015 144.762 9.37831Z" fill="white"/>
<g opacity="0.3">
<path d="M152.681 9.61353H141.958V28.7439H152.681V9.61353Z" stroke="black" stroke-linejoin="round"/>
<path d="M164.456 9.61353H153.733V28.7439H164.456V9.61353Z" stroke="black" stroke-linejoin="round"/>
<path d="M176.233 9.61353H165.51V28.7439H176.233V9.61353Z" stroke="black" stroke-linejoin="round"/>
<path d="M152.681 30.376H141.958V49.5064H152.681V30.376Z" stroke="black" stroke-linejoin="round"/>
<path d="M164.456 30.376H153.733V49.5064H164.456V30.376Z" stroke="black" stroke-linejoin="round"/>
<path d="M176.233 30.376H165.51V49.5064H176.233V30.376Z" stroke="black" stroke-linejoin="round"/>
<path d="M152.681 51.1384H141.958V70.2688H152.681V51.1384Z" stroke="black" stroke-linejoin="round"/>
<path d="M164.456 51.1384H153.733V70.2688H164.456V51.1384Z" stroke="black" stroke-linejoin="round"/>
<path d="M176.233 51.1384H165.51V70.2688H176.233V51.1384Z" stroke="black" stroke-linejoin="round"/>
<path d="M152.681 71.9006H141.958V91.031H152.681V71.9006Z" stroke="black" stroke-linejoin="round"/>
<path d="M164.456 71.9006H153.733V91.031H164.456V71.9006Z" stroke="black" stroke-linejoin="round"/>
<path d="M176.233 71.9006H165.51V91.031H176.233V71.9006Z" stroke="black" stroke-linejoin="round"/>
</g>
<g opacity="0.3">
<path d="M19.3711 9.61353H8.64795V28.7439H19.3711V9.61353Z" stroke="black" stroke-linejoin="round"/>
<path d="M31.1456 9.61353H20.4224V28.7439H31.1456V9.61353Z" stroke="black" stroke-linejoin="round"/>
<path d="M42.9224 9.61353H32.1992V28.7439H42.9224V9.61353Z" stroke="black" stroke-linejoin="round"/>
<path d="M19.3711 30.376H8.64795V49.5064H19.3711V30.376Z" stroke="black" stroke-linejoin="round"/>
<path d="M31.1456 30.376H20.4224V49.5064H31.1456V30.376Z" stroke="black" stroke-linejoin="round"/>
<path d="M42.9224 30.376H32.1992V49.5064H42.9224V30.376Z" stroke="black" stroke-linejoin="round"/>
<path d="M19.3711 51.1384H8.64795V70.2688H19.3711V51.1384Z" stroke="black" stroke-linejoin="round"/>
<path d="M31.1456 51.1384H20.4224V70.2688H31.1456V51.1384Z" stroke="black" stroke-linejoin="round"/>
<path d="M42.9224 51.1384H32.1992V70.2688H42.9224V51.1384Z" stroke="black" stroke-linejoin="round"/>
<path d="M19.3711 71.9006H8.64795V91.031H19.3711V71.9006Z" stroke="black" stroke-linejoin="round"/>
<path d="M31.1456 71.9006H20.4224V91.031H31.1456V71.9006Z" stroke="black" stroke-linejoin="round"/>
<path d="M42.9224 71.9006H32.1992V91.031H42.9224V71.9006Z" stroke="black" stroke-linejoin="round"/>
</g>
<path d="M5.73438 112.182H176.185" stroke="#263238" stroke-linejoin="round"/>
<path d="M162.358 73.3576C162.362 73.3536 162.364 73.3485 162.364 73.3432C162.364 73.3378 162.362 73.3327 162.358 73.3288C162.355 73.3272 162.352 73.3262 162.349 73.326C162.346 73.3257 162.343 73.3262 162.34 73.3274C162.337 73.3285 162.334 73.3303 162.332 73.3326C162.33 73.3349 162.328 73.3377 162.327 73.3408C161.636 74.996 161.09 76.708 160.695 78.4576C160.29 80.2069 159.984 81.9778 159.778 83.7616L159.649 85.1032C159.629 85.3264 159.605 85.5496 159.589 85.7752L159.553 86.4472C159.533 86.896 159.507 87.3448 159.493 87.7936V89.1424L159.509 89.8144C159.509 90.04 159.536 90.2632 159.55 90.4888C159.584 90.9352 159.61 98.848 159.651 99.2944C159.737 100.187 159.872 101.078 160.011 101.961C160.01 101.964 160.01 101.968 160.01 101.972C160.011 101.976 160.012 101.979 160.014 101.982C160.017 101.985 160.02 101.988 160.023 101.99C160.026 101.991 160.03 101.992 160.034 101.992C160.038 101.992 160.041 101.991 160.045 101.99C160.048 101.988 160.051 101.985 160.053 101.982C160.056 101.979 160.057 101.976 160.058 101.972C160.058 101.968 160.058 101.964 160.057 101.961C160.057 101.512 160.037 101.066 160.025 100.617C160.013 100.168 159.975 99.7264 159.98 99.28C159.985 98.8336 159.98 90.9232 159.965 90.4792L159.953 89.8096L159.965 89.1424V87.808L160.001 86.4712L160.013 85.804C160.013 85.5808 160.04 85.36 160.052 85.1368L160.133 83.8024C160.286 82.0296 160.539 80.2668 160.889 78.5224C161.23 76.7617 161.721 75.0337 162.358 73.3576Z" fill="#263238"/>
<path d="M162.55 80.3415C162.551 80.3385 162.552 80.3354 162.552 80.3322C162.552 80.329 162.551 80.3259 162.55 80.323C162.548 80.3201 162.546 80.3175 162.544 80.3153C162.542 80.3131 162.539 80.3114 162.536 80.3103C162.533 80.3092 162.53 80.3087 162.527 80.3089C162.523 80.309 162.52 80.3097 162.517 80.3111C162.514 80.3124 162.512 80.3143 162.51 80.3167C162.508 80.319 162.506 80.3217 162.505 80.3247C161.742 82.553 161.235 84.8606 160.993 87.2031C160.875 88.3719 160.753 89.5431 160.729 90.7167C160.705 91.8903 160.729 100.53 160.854 101.704C160.854 101.71 160.856 101.715 160.86 101.719C160.864 101.723 160.869 101.726 160.875 101.726C160.878 101.726 160.881 101.726 160.884 101.725C160.887 101.724 160.89 101.722 160.892 101.72C160.894 101.718 160.896 101.716 160.897 101.713C160.899 101.71 160.899 101.707 160.899 101.704C161.036 100.535 161.12 91.9047 161.199 90.7383C161.278 89.5719 161.293 88.4007 161.37 87.2343C161.533 84.9032 161.929 82.5942 162.55 80.3415Z" fill="#263238"/>
<path d="M166.422 82.8014C166.417 82.7977 166.412 82.7957 166.406 82.7957C166.4 82.7957 166.395 82.7977 166.39 82.8014C165.422 83.4244 164.55 84.1852 163.801 85.0598C163.424 85.4989 163.085 85.9694 162.788 86.4662L162.579 86.8598L162.419 87.2678C162.362 87.4024 162.314 87.5403 162.275 87.6806C162.234 87.8198 162.188 87.959 162.15 88.0982C161.859 89.219 161.67 97.8278 161.615 98.975C161.556 100.124 161.599 101.275 161.742 102.417C161.743 102.422 161.746 102.426 161.75 102.429C161.753 102.433 161.758 102.435 161.763 102.436C161.767 102.437 161.77 102.437 161.773 102.436C161.776 102.435 161.779 102.434 161.782 102.431C161.784 102.429 161.786 102.427 161.788 102.424C161.789 102.421 161.79 102.418 161.79 102.414L162.085 99.0086C162.202 97.883 162.274 89.2886 162.517 88.1894C162.546 88.0526 162.587 87.9182 162.62 87.7814C162.653 87.6457 162.693 87.5119 162.74 87.3806L162.879 86.987L163.057 86.615C163.326 86.1214 163.636 85.651 163.983 85.2086C164.674 84.3055 165.493 83.5083 166.415 82.8422C166.419 82.8417 166.423 82.8397 166.427 82.8365C166.43 82.8333 166.433 82.8291 166.433 82.8245C166.434 82.8199 166.433 82.8152 166.431 82.811C166.429 82.8069 166.426 82.8035 166.422 82.8014Z" fill="#263238"/>
<path d="M164.547 87.1719C164.045 87.54 163.641 88.0263 163.371 88.5879C163.087 89.1389 162.865 89.7202 162.711 90.3207C162.666 90.4695 162.627 90.6183 162.596 90.7695L162.49 91.2231C162.435 91.5279 162.392 99.2967 162.375 99.6063C162.358 99.9159 162.363 100.223 162.375 100.53C162.399 100.839 162.44 101.146 162.498 101.449C162.498 101.449 162.498 101.469 162.517 101.469C162.52 101.469 162.523 101.469 162.526 101.469C162.529 101.468 162.532 101.467 162.534 101.465C162.537 101.463 162.539 101.461 162.54 101.458C162.542 101.456 162.543 101.453 162.543 101.449C162.616 101.151 162.67 100.849 162.706 100.545C162.754 100.245 162.802 99.9471 162.838 99.6495C162.874 99.3519 162.92 99.0567 162.944 98.7567C162.968 98.4567 163.006 90.6975 163.071 90.4071C163.176 89.8173 163.346 89.2409 163.578 88.6887C163.784 88.1253 164.122 87.6193 164.564 87.2127C164.568 87.2083 164.57 87.2028 164.57 87.1971C164.57 87.1914 164.568 87.1858 164.564 87.1815C164.562 87.1788 164.559 87.1766 164.557 87.1749C164.554 87.1733 164.55 87.1722 164.547 87.1719Z" fill="#263238"/>
<path d="M159.118 90.5823C158.991 89.0703 158.742 87.5751 158.506 86.0775C158.271 84.5799 158.01 83.0919 157.736 81.6039C157.462 80.1159 157.155 78.6327 156.836 77.1543C156.835 77.1511 156.834 77.1481 156.832 77.1454C156.831 77.1427 156.828 77.1403 156.826 77.1386C156.823 77.1368 156.82 77.1355 156.817 77.1349C156.814 77.1343 156.81 77.1344 156.807 77.1351C156.801 77.1363 156.796 77.1396 156.792 77.1445C156.789 77.1494 156.787 77.1555 156.788 77.1615C157.047 78.6519 157.282 80.1471 157.508 81.6423C157.734 83.1375 157.947 84.6327 158.137 86.1327C158.326 87.6327 158.466 89.1351 158.653 90.6327L159.207 102.594C159.207 102.597 159.208 102.6 159.209 102.603C159.21 102.605 159.212 102.608 159.214 102.61C159.216 102.612 159.218 102.613 159.221 102.614C159.223 102.615 159.226 102.616 159.229 102.616C159.232 102.616 159.235 102.616 159.238 102.615C159.242 102.614 159.244 102.612 159.247 102.61C159.249 102.607 159.251 102.605 159.252 102.602C159.253 102.598 159.253 102.595 159.253 102.592C159.272 102.213 159.272 101.833 159.282 101.454C159.291 101.075 159.265 100.696 159.258 100.317C159.241 99.5583 159.176 91.3383 159.118 90.5823Z" fill="#263238"/>
<path d="M158.211 90.5607C158.132 89.9607 158.021 89.3607 157.906 88.7727L157.695 87.8919C157.625 87.5967 157.558 87.3015 157.472 87.0111C157.171 85.8389 156.786 84.6902 156.317 83.5743L156.137 83.1591L155.936 82.7511C155.806 82.4775 155.653 82.2159 155.504 81.9519C155.207 81.4252 154.84 80.9408 154.414 80.5119C154.41 80.508 154.404 80.5059 154.397 80.5059C154.391 80.5059 154.385 80.508 154.381 80.5119C154.379 80.5139 154.377 80.5163 154.376 80.519C154.375 80.5217 154.374 80.5246 154.374 80.5275C154.374 80.5304 154.375 80.5333 154.376 80.536C154.377 80.5387 154.379 80.5411 154.381 80.5431C154.778 80.9898 155.114 81.4879 155.379 82.0239C155.511 82.2927 155.65 82.5567 155.761 82.8327L155.938 83.2455L156.097 83.6655C156.515 84.7863 156.851 85.9357 157.105 87.1047C157.241 87.6855 157.345 88.2783 157.445 88.8639L157.587 89.7495C157.637 90.0447 157.702 90.3375 157.743 90.6327C157.837 91.2255 157.945 99.2727 158.048 99.8679C158.151 100.463 158.249 101.053 158.374 101.646C158.376 101.651 158.378 101.656 158.382 101.659C158.386 101.663 158.391 101.665 158.396 101.665C158.402 101.665 158.408 101.663 158.413 101.658C158.417 101.654 158.42 101.648 158.42 101.641C158.42 101.037 158.42 100.441 158.379 99.8295C158.338 99.2175 158.273 91.1607 158.211 90.5607Z" fill="#263238"/>
<path d="M156.961 90.6374C156.68 89.8454 156.356 89.0678 156.001 88.307C155.645 87.5481 155.244 86.8108 154.801 86.099C154.796 86.0955 154.79 86.0936 154.784 86.0936C154.778 86.0936 154.772 86.0955 154.767 86.099C154.763 86.1038 154.761 86.1097 154.761 86.1158C154.761 86.122 154.763 86.1279 154.767 86.1326C155.155 86.8698 155.498 87.6296 155.794 88.4078C156.102 89.1806 156.378 89.9654 156.61 90.7622C156.843 91.559 157.016 99.8342 157.227 100.633C157.438 101.433 157.618 102.241 157.858 103.041C157.86 103.046 157.863 103.05 157.868 103.054C157.872 103.057 157.877 103.059 157.882 103.06C157.889 103.059 157.894 103.057 157.899 103.052C157.903 103.048 157.906 103.042 157.906 103.036C157.914 102.191 157.834 101.348 157.666 100.521C157.532 99.6878 157.239 91.4414 156.961 90.6374Z" fill="#263238"/>
<path d="M156.898 100.741C156.745 100.247 156.522 99.7773 156.234 99.3471C155.962 98.9079 155.646 91.0311 155.274 90.6807C155.081 90.5085 154.875 90.3528 154.657 90.2151C154.441 90.0761 154.206 89.9701 153.958 89.9007C153.953 89.9001 153.948 89.9013 153.943 89.904C153.939 89.9067 153.935 89.9109 153.934 89.9158C153.932 89.9207 153.931 89.9261 153.933 89.9312C153.934 89.9363 153.937 89.9407 153.942 89.9439C154.387 90.1588 154.782 90.4655 155.101 90.8439C155.427 91.2087 155.689 99.0927 155.907 99.5295C156.126 99.9663 156.255 100.444 156.454 100.89C156.543 101.13 156.63 101.351 156.733 101.579C156.819 101.818 156.92 102.051 157.035 102.277C157.037 102.281 157.039 102.284 157.043 102.287C157.046 102.289 157.05 102.29 157.054 102.289C157.061 102.29 157.067 102.287 157.072 102.283C157.076 102.28 157.08 102.274 157.081 102.268C157.088 102.01 157.078 101.752 157.052 101.495C157.023 101.245 156.97 100.993 156.898 100.741Z" fill="#263238"/>
<path d="M157.002 79.3167C156.247 79.1062 155.565 78.6935 155.027 78.1234C154.49 77.5532 154.119 76.8472 153.954 76.0815C153.382 73.4127 155.226 74.5551 153.574 70.3647C151.923 66.1743 152.302 65.2215 152.874 64.0143C153.445 62.8071 153.764 63.1887 154.273 64.7751C154.782 66.3615 156.622 68.8407 157.321 73.4775C158.019 78.1143 157.002 79.3167 157.002 79.3167Z" fill="#336EFF"/>
<path d="M161.893 74.807C161.893 74.807 160.242 74.2358 160.179 71.1254C160.117 68.015 161.379 68.6486 161.576 64.7726C161.773 60.8966 162.02 58.1678 162.718 58.1054C163.417 58.043 165.258 60.0014 165.894 64.3214C166.53 68.6414 165.068 71.4974 163.798 72.7694C162.529 74.0414 161.893 74.807 161.893 74.807Z" fill="#336EFF"/>
<path d="M156.113 83.0631C156.113 83.0631 155.732 80.7783 154.971 79.7031C154.21 78.6279 152.557 77.6703 151.477 75.5751C150.397 73.4799 149.192 72.4551 149.254 75.4479C149.317 78.4407 150.651 79.9575 152.302 80.9679C153.953 81.9783 156.113 83.0631 156.113 83.0631Z" fill="#336EFF"/>
<path d="M155.415 87.0014C155.415 87.0014 153.891 84.0806 151.669 81.9206C149.446 79.7606 147.668 78.6806 148.309 79.7606C148.95 80.8406 149.706 80.7782 150.786 82.6838C151.866 84.5894 151.549 85.9862 153.073 87.0638C154.597 88.1414 155.415 87.0014 155.415 87.0014Z" fill="#336EFF"/>
<path d="M155.218 90.7478C155.154 90.5582 155.091 89.1614 152.931 88.0166C150.771 86.8718 148.738 87.3182 148.993 87.8894C149.247 88.4606 150.582 89.4158 151.914 89.987C153.246 90.5582 155.218 90.7478 155.218 90.7478Z" fill="#336EFF"/>
<path d="M161.766 83.1902C161.766 83.1902 160.806 81.9902 161.322 79.4438C161.838 76.8974 162.973 77.5382 164.242 76.2038C165.512 74.8694 165.258 74.6798 166.53 73.283C167.802 71.8862 168.93 71.123 169.45 71.6966C169.971 72.2702 169.196 74.0462 168.435 75.0566C167.674 76.067 166.465 76.5806 165.894 77.8526C165.322 79.1246 165.577 81.155 164.115 82.1054C162.654 83.0558 161.766 83.1902 161.766 83.1902Z" fill="#336EFF"/>
<path d="M164.941 83.8888C164.941 83.8888 167.228 81.2848 168.879 79.3816C170.531 77.4784 171.164 76.0216 171.229 77.284C171.294 78.5464 171.8 79.5712 170.466 81.2224C169.131 82.8736 164.941 83.8888 164.941 83.8888Z" fill="#336EFF"/>
<path d="M163.733 88.0816C163.733 88.0816 163.671 87.064 167.29 84.7216C170.909 82.3792 172.436 81.928 172.054 82.8808C171.673 83.8336 170.086 84.7864 168.37 86.5C166.654 88.2136 163.733 88.0816 163.733 88.0816Z" fill="#336EFF"/>
<path d="M157.153 79.0455C157.153 79.0455 156.303 74.4855 155.415 71.2503C154.527 68.0151 153.954 66.0447 153.954 66.0447" stroke="white" stroke-linecap="round" stroke-linejoin="round"/>
<path d="M161.746 74.855C161.746 74.855 163.29 69.9182 163.798 66.935C164.307 63.9518 163.734 61.727 163.482 60.3926" stroke="white" stroke-linecap="round" stroke-linejoin="round"/>
<path d="M155.914 82.9694C155.231 81.7929 154.448 80.6768 153.574 79.6334C152.175 77.9822 151.095 77.0942 150.454 75.5054" stroke="white" stroke-linecap="round" stroke-linejoin="round"/>
<path d="M161.766 83.1902C161.766 83.1902 162.274 80.1422 163.482 78.5558C164.689 76.9694 167.101 74.4902 168.054 72.9014" stroke="white" stroke-linecap="round" stroke-linejoin="round"/>
<path d="M155.074 90.6782C155.074 90.6782 152.938 89.2886 151.414 88.5182" stroke="white" stroke-linecap="round" stroke-linejoin="round"/>
<path d="M160.959 112.182H158.163C157.921 112.182 157.685 112.111 157.483 111.976C157.282 111.842 157.124 111.652 157.03 111.429C156.116 109.24 155.146 98.771 155.146 98.771H163.974C163.974 98.771 163.014 109.24 162.092 111.429C161.998 111.652 161.841 111.842 161.639 111.976C161.438 112.11 161.201 112.182 160.959 112.182Z" fill="#263238"/>
<path d="M161.156 83.0415C161.156 83.0415 159.956 84.3063 158.996 83.9343C158.036 83.5623 157.352 82.7919 156.315 83.5863C155.278 84.3807 155.95 85.9215 157.138 87.5679C158.326 89.2143 159.104 89.9679 159.98 89.1375C160.856 88.3071 163.014 87.1959 163.088 85.0383C163.162 82.8807 163.314 82.1367 161.156 83.0415Z" fill="#336EFF"/>
<path d="M162.867 89.2815C162.428 89.7929 161.822 90.1328 161.156 90.2415C159.982 90.4815 158.598 89.3799 158.648 90.6303C158.698 91.8807 159.817 92.9943 161.528 92.9199C163.239 92.8455 164.427 93.2175 164.725 93.8799C165.022 94.5423 165.925 93.9543 165.543 91.9455C165.162 89.9367 164.427 88.9791 162.867 89.2815Z" fill="#336EFF"/>
<path d="M157.808 92.5503C157.338 92.4637 156.855 92.4892 156.397 92.6247C155.578 92.8479 155.355 93.4431 155.653 94.2615C155.95 95.0799 156.694 95.8215 156.992 95.2215C157.29 94.6215 157.362 94.2615 158.192 94.0335C159.022 93.8055 158.775 92.5503 157.808 92.5503Z" fill="#336EFF"/>
<path d="M21.2143 73.3576C21.2155 73.3549 21.2161 73.352 21.2161 73.3491C21.2161 73.3462 21.2156 73.3433 21.2145 73.3406C21.2133 73.3379 21.2117 73.3355 21.2096 73.3334C21.2075 73.3314 21.205 73.3298 21.2023 73.3288C21.1995 73.3272 21.1964 73.3262 21.1933 73.326C21.1901 73.3257 21.1869 73.3262 21.1839 73.3274C21.1809 73.3285 21.1782 73.3303 21.176 73.3326C21.1738 73.3349 21.1721 73.3377 21.1711 73.3408C20.4803 74.996 19.9342 76.708 19.5391 78.4576C19.1399 80.2073 18.8394 81.9781 18.6391 83.7616L18.5095 85.1032C18.4903 85.3264 18.4663 85.5496 18.4495 85.7752L18.4135 86.4472C18.3943 86.896 18.3655 87.3448 18.3535 87.7936V89.1424L18.3703 89.8144C18.3703 90.04 18.3943 90.2632 18.4111 90.4888C18.4447 90.9352 18.4711 98.848 18.5119 99.2944C18.5983 100.187 18.7327 101.078 18.8719 101.961C18.8725 101.967 18.8753 101.972 18.8797 101.976C18.8842 101.98 18.8899 101.982 18.8959 101.982C18.9017 101.981 18.9069 101.978 18.9108 101.974C18.9147 101.97 18.9171 101.964 18.9175 101.958C18.9175 101.51 18.8959 101.063 18.8863 100.614C18.8767 100.166 18.8359 99.724 18.8407 99.2776C18.8455 98.8312 18.8407 90.9208 18.8263 90.4768V89.8072V89.14V87.8056L18.8647 86.4688V85.8016C18.8647 85.5784 18.8911 85.3576 18.9031 85.1344L18.9847 83.8C19.1377 82.0272 19.3901 80.2644 19.7407 78.52C20.0826 76.76 20.5756 75.0328 21.2143 73.3576Z" fill="#263238"/>
<path d="M21.4065 80.3415C21.4076 80.3385 21.4081 80.3354 21.408 80.3322C21.4078 80.329 21.4071 80.3259 21.4058 80.323C21.4044 80.3201 21.4025 80.3175 21.4002 80.3153C21.3978 80.3131 21.3951 80.3114 21.3921 80.3103C21.3891 80.3092 21.3859 80.3087 21.3827 80.3089C21.3795 80.309 21.3764 80.3097 21.3735 80.3111C21.3706 80.3124 21.368 80.3143 21.3658 80.3167C21.3637 80.319 21.362 80.3217 21.3609 80.3247C20.6018 82.5534 20.0978 84.8609 19.8585 87.2031C19.7409 88.3719 19.6185 89.5431 19.5945 90.7167C19.5705 91.8903 19.5945 100.53 19.7193 101.704C19.7193 101.709 19.7212 101.714 19.7247 101.718C19.7283 101.722 19.7332 101.725 19.7385 101.726C19.7417 101.726 19.745 101.726 19.7482 101.726C19.7514 101.725 19.7544 101.723 19.757 101.721C19.7595 101.719 19.7616 101.716 19.7629 101.713C19.7643 101.71 19.765 101.707 19.7649 101.704C19.9017 100.535 19.9833 91.9047 20.0649 90.7383C20.1465 89.5719 20.1585 88.4007 20.2353 87.2343C20.3988 84.9032 20.7943 82.5942 21.4161 80.3415H21.4065Z" fill="#263238"/>
<path d="M25.2777 82.8014C25.2729 82.7975 25.267 82.7954 25.2609 82.7954C25.2547 82.7954 25.2488 82.7975 25.2441 82.8014C24.2769 83.4251 23.4054 84.1858 22.6569 85.0598C22.2798 85.4989 21.941 85.9694 21.6441 86.4662L21.4353 86.8598L21.2745 87.2678C21.2183 87.4024 21.1702 87.5403 21.1305 87.6806C21.0897 87.8198 21.0417 87.959 21.0057 88.0982C20.7153 89.219 20.5257 97.8278 20.4705 98.975C20.412 100.124 20.4545 101.275 20.5977 102.417C20.599 102.422 20.6018 102.426 20.6056 102.429C20.6094 102.433 20.6142 102.435 20.6193 102.436C20.6225 102.437 20.6258 102.437 20.629 102.436C20.6322 102.435 20.6352 102.434 20.6377 102.432C20.6403 102.429 20.6423 102.427 20.6437 102.424C20.6451 102.421 20.6457 102.418 20.6457 102.414L20.9409 99.0086C21.0585 97.883 21.1305 89.2886 21.3705 88.1894C21.4017 88.0526 21.4425 87.9182 21.4761 87.7814C21.5087 87.6458 21.5488 87.512 21.5961 87.3806L21.7329 86.987L21.9129 86.615C22.181 86.1184 22.4909 85.6455 22.8393 85.2014C23.5299 84.2983 24.349 83.5011 25.2705 82.835C25.2735 82.8336 25.2761 82.8315 25.2782 82.8289C25.2802 82.8263 25.2817 82.8233 25.2824 82.82C25.2831 82.8168 25.283 82.8134 25.2822 82.8102C25.2814 82.807 25.2798 82.804 25.2777 82.8014Z" fill="#263238"/>
<path d="M23.4032 87.1719C22.8995 87.5387 22.4953 88.0254 22.2272 88.5879C21.9429 89.1389 21.7215 89.7202 21.5672 90.3207C21.5216 90.4695 21.4832 90.6183 21.452 90.7695L21.344 91.2231C21.2912 91.5279 21.248 99.2967 21.2312 99.6063C21.2144 99.9159 21.2168 100.223 21.2312 100.53C21.2538 100.839 21.2947 101.146 21.3536 101.449C21.3536 101.449 21.3536 101.469 21.3728 101.469C21.3758 101.469 21.3789 101.469 21.382 101.469C21.385 101.468 21.3879 101.467 21.3904 101.465C21.3929 101.463 21.395 101.461 21.3965 101.458C21.398 101.456 21.3989 101.453 21.3992 101.449C21.4708 101.151 21.5253 100.849 21.5624 100.545C21.6104 100.245 21.6584 99.9471 21.6944 99.6495C21.7304 99.3519 21.776 99.0567 21.8 98.7567C21.824 98.4567 21.8624 90.6975 21.9272 90.4071C22.0306 89.817 22.2005 89.2405 22.4336 88.6887C22.6404 88.1253 22.9785 87.6193 23.42 87.2127C23.4233 87.2082 23.4251 87.2027 23.4251 87.1971C23.4251 87.1915 23.4233 87.186 23.42 87.1815C23.418 87.1788 23.4155 87.1766 23.4126 87.1749C23.4097 87.1733 23.4065 87.1722 23.4032 87.1719Z" fill="#263238"/>
<path d="M17.9744 90.5822C17.8472 89.0702 17.5976 87.575 17.3624 86.0774C17.1272 84.5798 16.8656 83.0918 16.592 81.6014C16.3184 80.111 16.0184 78.6326 15.692 77.1542C15.6903 77.148 15.6864 77.1427 15.6812 77.1392C15.6759 77.1357 15.6695 77.1342 15.6632 77.135C15.6572 77.1361 15.652 77.1395 15.6484 77.1444C15.6448 77.1493 15.6432 77.1554 15.644 77.1614C15.9032 78.6518 16.1384 80.147 16.364 81.6422C16.5896 83.1374 16.8032 84.6326 16.9928 86.1326C17.1824 87.6326 17.3216 89.135 17.5088 90.6326L18.0632 102.594C18.0632 102.6 18.0654 102.605 18.0695 102.609C18.0735 102.613 18.079 102.616 18.0848 102.616C18.0879 102.616 18.091 102.615 18.094 102.614C18.0969 102.613 18.0995 102.611 18.1017 102.609C18.104 102.607 18.1057 102.604 18.1069 102.601C18.1081 102.598 18.1088 102.595 18.1088 102.592C18.128 102.213 18.128 101.833 18.1376 101.454C18.1472 101.075 18.1208 100.696 18.1136 100.317C18.0968 99.5582 18.032 91.3382 17.9744 90.5822Z" fill="#263238"/>
<path d="M17.0673 90.5607C16.9881 89.9607 16.8777 89.3607 16.7625 88.7727L16.5513 87.8919C16.4817 87.5967 16.4145 87.3015 16.3281 87.0111C16.0276 85.8389 15.6418 84.6902 15.1737 83.5743L14.9913 83.1591L14.7921 82.7511C14.6625 82.4775 14.5089 82.2159 14.3601 81.9519C14.0632 81.4252 13.6967 80.9408 13.2705 80.5119C13.2658 80.508 13.2598 80.5059 13.2537 80.5059C13.2476 80.5059 13.2416 80.508 13.2369 80.5119C13.2348 80.5139 13.2331 80.5163 13.232 80.519C13.2308 80.5217 13.2302 80.5246 13.2302 80.5275C13.2302 80.5304 13.2308 80.5333 13.232 80.536C13.2331 80.5387 13.2348 80.5411 13.2369 80.5431C13.6344 80.9898 13.9702 81.4879 14.2353 82.0239C14.3673 82.2927 14.5065 82.5567 14.6169 82.8327L14.7945 83.2455L14.9529 83.6655C15.3707 84.7863 15.7076 85.9357 15.9609 87.1047C16.0977 87.6855 16.1889 88.2783 16.3017 88.8639L16.4433 89.7495C16.4937 90.0447 16.5561 90.3375 16.5993 90.6327C16.6929 91.2255 16.8009 99.2727 16.9041 99.8679C17.0073 100.463 17.1057 101.053 17.2305 101.646C17.2318 101.651 17.2346 101.656 17.2384 101.659C17.2423 101.663 17.247 101.665 17.2521 101.665C17.2585 101.665 17.2646 101.663 17.2691 101.658C17.2736 101.654 17.2761 101.648 17.2761 101.641C17.2761 101.037 17.2761 100.441 17.2353 99.8295C17.1945 99.2175 17.1297 91.1607 17.0673 90.5607Z" fill="#263238"/>
<path d="M15.8168 90.6374C15.536 89.8454 15.212 89.0678 14.8568 88.307C14.5006 87.5481 14.0999 86.8108 13.6568 86.099C13.6519 86.0955 13.6461 86.0936 13.64 86.0936C13.634 86.0936 13.6281 86.0955 13.6232 86.099C13.6193 86.1038 13.6172 86.1097 13.6172 86.1158C13.6172 86.122 13.6193 86.1279 13.6232 86.1326C14.0108 86.8698 14.3539 87.6296 14.6504 88.4078C14.9576 89.1806 15.2336 89.9654 15.4664 90.7622C15.6992 91.559 15.872 99.8342 16.0832 100.633C16.2944 101.433 16.4864 102.239 16.7312 103.048C16.733 103.053 16.7362 103.058 16.7404 103.061C16.7447 103.064 16.7498 103.066 16.7552 103.067C16.7612 103.066 16.7668 103.063 16.7711 103.059C16.7754 103.055 16.7783 103.049 16.7792 103.043C16.7872 102.199 16.7068 101.356 16.5392 100.528C16.388 99.6878 16.0952 91.4414 15.8168 90.6374Z" fill="#263238"/>
<path d="M15.7639 100.741C15.6109 100.247 15.387 99.7773 15.0991 99.347C14.8279 98.9078 14.5111 91.031 14.1391 90.6806C13.9469 90.5085 13.7406 90.3527 13.5223 90.215C13.3065 90.0761 13.0711 89.9701 12.8239 89.9006C12.8185 89.8993 12.8128 89.8998 12.8076 89.9019C12.8024 89.9041 12.798 89.9078 12.7951 89.9126C12.7927 89.9184 12.7926 89.9249 12.7948 89.9307C12.7971 89.9365 12.8015 89.9412 12.8071 89.9438C13.2523 90.1582 13.6467 90.465 13.9639 90.8438C14.2927 91.2086 14.5543 99.0926 14.7727 99.5294C14.9911 99.9662 15.1207 100.444 15.3199 100.89C15.4087 101.13 15.4951 101.351 15.5983 101.579C15.683 101.819 15.784 102.052 15.9007 102.277C15.9031 102.281 15.9063 102.284 15.91 102.286C15.9138 102.288 15.918 102.289 15.9223 102.289C15.9254 102.29 15.9284 102.289 15.9313 102.289C15.9342 102.288 15.9369 102.286 15.9392 102.284C15.9415 102.282 15.9433 102.279 15.9445 102.277C15.9457 102.274 15.9464 102.271 15.9463 102.268C15.956 102.01 15.9463 101.752 15.9175 101.495C15.8791 101.241 15.8279 100.99 15.7639 100.741Z" fill="#263238"/>
<path d="M15.8575 79.3167C15.103 79.1062 14.4203 78.6935 13.8831 78.1234C13.346 77.5532 12.9747 76.8472 12.8095 76.0815C12.2383 73.4127 14.0791 74.5551 12.4279 70.3647C10.7767 66.1743 11.1583 65.2215 11.7295 64.0143C12.3007 62.8071 12.6199 63.1887 13.1263 64.7751C13.6327 66.3615 15.4783 68.8407 16.1767 73.4775C16.8751 78.1143 15.8575 79.3167 15.8575 79.3167Z" fill="#336EFF"/>
<path d="M20.7487 74.807C20.7487 74.807 19.0975 74.2358 19.0327 71.1254C18.9679 68.015 20.2327 68.6486 20.4319 64.7726C20.6311 60.8966 20.8759 58.1678 21.5743 58.1054C22.2727 58.043 24.1135 60.0014 24.7495 64.3214C25.3855 68.6414 23.9239 71.4974 22.6543 72.7694C21.3847 74.0414 20.7487 74.807 20.7487 74.807Z" fill="#336EFF"/>
<path d="M14.9697 83.0631C14.9697 83.0631 14.5881 80.7783 13.8273 79.7031C13.0665 78.6279 11.4129 77.6703 10.3329 75.5751C9.25288 73.4799 8.04808 72.4551 8.11048 75.4479C8.17288 78.4407 9.50728 79.9575 11.1585 80.9679C12.8097 81.9783 14.9697 83.0631 14.9697 83.0631Z" fill="#336EFF"/>
<path d="M14.2712 87.0014C14.2712 87.0014 12.7472 84.0806 10.5248 81.9206C8.30239 79.7606 6.52159 78.6806 7.16479 79.7606C7.80799 80.8406 8.56159 80.7782 9.64159 82.6838C10.7216 84.5894 10.4048 85.9862 11.9288 87.0638C13.4528 88.1414 14.2712 87.0014 14.2712 87.0014Z" fill="#336EFF"/>
<path d="M14.0792 90.7478C14.0168 90.5582 13.952 89.1614 11.7944 88.0166C9.6368 86.8718 7.6016 87.3182 7.8584 87.8894C8.1152 88.4606 9.4472 89.4158 10.7792 89.987C12.1112 90.5582 14.0792 90.7478 14.0792 90.7478Z" fill="#336EFF"/>
<path d="M20.6215 83.1902C20.6215 83.1902 19.6615 81.9902 20.1775 79.4438C20.6935 76.8974 21.8287 77.5382 23.0983 76.2038C24.3679 74.8694 24.1135 74.6798 25.3855 73.283C26.6575 71.8862 27.7855 71.123 28.3063 71.6966C28.8271 72.2702 28.0519 74.0462 27.2887 75.0566C26.5255 76.067 25.3207 76.5806 24.7495 77.8526C24.1783 79.1246 24.4327 81.1598 22.9783 82.1102C21.5239 83.0606 20.6215 83.1902 20.6215 83.1902Z" fill="#336EFF"/>
<path d="M23.7969 83.8888C23.7969 83.8888 26.0841 81.2848 27.7353 79.3816C29.3865 77.4784 30.0201 76.0216 30.0849 77.284C30.1497 78.5464 30.6561 79.5712 29.3217 81.2224C27.9873 82.8736 23.7969 83.8888 23.7969 83.8888Z" fill="#336EFF"/>
<path d="M22.5897 88.0816C22.5897 88.0816 22.5273 87.064 26.1465 84.7216C29.7657 82.3792 31.2921 81.928 30.9105 82.8808C30.5289 83.8336 28.9425 84.7864 27.2265 86.5C25.5105 88.2136 22.5897 88.0816 22.5897 88.0816Z" fill="#336EFF"/>
<path d="M16.0183 79.0455C16.0183 79.0455 15.1687 74.4855 14.2807 71.2503C13.3927 68.0151 12.8191 66.0447 12.8191 66.0447" stroke="white" stroke-linecap="round" stroke-linejoin="round"/>
<path d="M20.6023 74.855C20.6023 74.855 22.1455 69.9182 22.6543 66.935C23.1631 63.9518 22.5895 61.727 22.3351 60.3926" stroke="white" stroke-linecap="round" stroke-linejoin="round"/>
<path d="M14.7679 82.9694C14.0821 81.7919 13.296 80.6757 12.4183 79.6334C11.0215 77.9822 9.94154 77.0942 9.29834 75.5054" stroke="white" stroke-linecap="round" stroke-linejoin="round"/>
<path d="M20.6216 83.1902C20.6216 83.1902 21.1304 80.1422 22.3352 78.5558C23.54 76.9694 25.9568 74.4902 26.9096 72.9014" stroke="white" stroke-linecap="round" stroke-linejoin="round"/>
<path d="M13.9305 90.6782C13.9305 90.6782 11.7945 89.2886 10.2705 88.5182" stroke="white" stroke-linecap="round" stroke-linejoin="round"/>
<path d="M19.8152 112.182H17.0192C16.7772 112.182 16.5406 112.111 16.339 111.976C16.1375 111.842 15.98 111.652 15.8864 111.429C14.972 109.24 14.0024 98.771 14.0024 98.771H22.8296C22.8296 98.771 21.8696 109.24 20.948 111.429C20.8542 111.652 20.6967 111.842 20.4952 111.976C20.2937 112.11 20.0572 112.182 19.8152 112.182Z" fill="#263238"/>
<path d="M19.1383 84.2102C19.1383 84.2102 17.4199 84.6638 16.5127 83.8502C15.6055 83.0366 14.2519 82.8542 13.9783 84.0302C13.7047 85.2062 14.0695 86.3846 14.8855 88.1102C15.7015 89.8358 16.9447 88.6334 16.9663 87.9302C16.9879 87.227 17.8351 86.6702 18.8863 86.8934C19.9375 87.1166 21.7639 84.5726 19.1383 84.2102Z" fill="#336EFF"/>
<path d="M22.1263 88.8278C22.1263 88.8278 22.9087 89.8214 20.8423 89.2334C18.7759 88.6454 17.8879 88.1654 17.6983 89.4014C17.5087 90.6374 19.1383 90.9086 20.2255 91.1798C21.3127 91.451 22.2151 93.3542 22.9399 94.5398C23.6647 95.7254 25.0999 94.3574 24.2983 91.5518C23.4967 88.7462 23.6311 87.5174 22.1263 88.8278Z" fill="#336EFF"/>
<path opacity="0.3" d="M138.529 9.67578H46.2537V61.679H138.529V9.67578Z" stroke="black" stroke-linejoin="round"/>
<path opacity="0.3" d="M138.529 56.843H46.2537V61.6814H138.529V56.843Z" stroke="black" stroke-linejoin="round"/>
<g opacity="0.3">
<path d="M69.9176 18.4165H55.2344V28.1077H69.9176V18.4165Z" stroke="black" stroke-linejoin="round"/>
<path d="M58.4624 36.4812H53.012V42.3444H58.4624V36.4812Z" stroke="black" stroke-linejoin="round"/>
<path d="M67.3591 36.4812H61.9087V42.3444H67.3591V36.4812Z" stroke="black" stroke-linejoin="round"/>
<path d="M76.2583 36.4812H70.8079V42.3444H76.2583V36.4812Z" stroke="black" stroke-linejoin="round"/>
<path d="M119.192 28.9453H113.741V34.8085H119.192V28.9453Z" stroke="black" stroke-linejoin="round"/>
<path d="M70.0281 22.8445H85.6017V17.1013H116.3V29.0653" stroke="black" stroke-linejoin="round"/>
<path d="M132.092 27.75H121.637V30.1428H132.092V27.75Z" stroke="black" stroke-linejoin="round"/>
<path d="M132.092 32.0557H121.637V34.4485H132.092V32.0557Z" stroke="black" stroke-linejoin="round"/>
<path d="M132.092 36.3638H121.637V38.7566H132.092V36.3638Z" stroke="black" stroke-linejoin="round"/>
<path d="M132.092 40.6694H121.637V43.0622H132.092V40.6694Z" stroke="black" stroke-linejoin="round"/>
<path d="M132.092 44.9773H121.637V47.3701H132.092V44.9773Z" stroke="black" stroke-linejoin="round"/>
<path d="M61.9087 28.2278V33.371" stroke="black" stroke-linejoin="round"/>
<path d="M55.6807 36.3638V33.2534H73.5943V36.3638" stroke="black" stroke-linejoin="round"/>
<path d="M64.6904 36.4813V33.3708" stroke="black" stroke-linejoin="round"/>
<path d="M59.7393 21.2893H65.4129" stroke="black" stroke-linejoin="round"/>
<path d="M59.7393 25.2373H65.4129" stroke="black" stroke-linejoin="round"/>
<path d="M57.9607 23.2021H67.1911" stroke="black" stroke-linejoin="round"/>
</g>
<path d="M149.516 94.4462H24.8914V112.18H149.516V94.4462Z" fill="#7D7D7D" stroke="#263238" stroke-linejoin="round"/>
<path d="M80.4489 89.0702C80.4489 89.0702 80.1273 91.0598 80.0721 91.2302C80.0169 91.4006 79.1577 93.2198 79.0497 93.7046C78.9417 94.1894 79.6425 94.4582 80.0721 94.4582C80.5017 94.4582 82.8705 94.619 83.1393 94.4054C83.4081 94.1918 83.6793 93.4886 83.6193 92.951C83.5593 92.4134 83.1897 89.1302 83.1897 89.1302L80.4489 89.0702Z" fill="white" stroke="#263238" stroke-linejoin="round"/>
<path d="M94.6041 89.3942C94.6041 89.3942 95.2497 90.4166 95.5641 90.6854C95.8785 90.9542 97.8248 92.9462 98.4704 93.1598C99.116 93.3734 99.0081 93.8606 98.6313 94.2374C98.2545 94.6142 96.2097 94.5062 95.1345 94.3982C94.0593 94.2902 92.8209 94.3982 92.6601 94.3382C92.4993 94.2782 91.4769 94.2854 90.9921 94.0142C90.5073 93.743 90.7232 91.7558 90.7232 91.7558L94.6041 89.3942Z" fill="white" stroke="#263238" stroke-linejoin="round"/>
<path d="M83.1391 54.0686C83.1391 54.0686 81.9031 59.0198 82.0183 62.4014C82.1335 65.783 81.3727 74.5118 81.3727 74.7806C81.3727 75.0494 80.7823 76.6094 80.7823 78.0638C80.7823 79.5182 80.6191 87.7166 80.6191 87.7166C80.6191 87.7166 79.9735 87.8246 80.0815 88.4174C80.1895 89.0102 80.2975 89.8694 80.2975 89.8694C80.2975 89.8694 81.2575 89.9222 82.0183 90.0302C82.4843 90.0939 82.9577 90.076 83.4175 89.9774C83.4175 89.9774 83.8975 88.631 83.9575 87.9326C84.0175 87.2342 83.8495 86.9966 83.8495 86.1902C83.8495 85.3838 88.4767 62.1902 88.4767 62.1902L90.1999 75.8582C90.1999 75.8582 90.3079 82.7942 90.6319 84.7382C90.8223 85.8487 90.9298 86.9718 90.9535 88.0982C90.9535 88.0982 90.7927 89.5502 90.7399 89.7134C90.6871 89.8766 90.4711 89.9822 90.5767 90.4118C90.6603 90.8566 90.7149 91.3064 90.7399 91.7582C91.3682 91.3704 92.035 91.0487 92.7295 90.7982C93.8047 90.4214 95.0431 89.8382 95.0431 89.8382C94.9457 89.4667 94.8735 89.0891 94.8271 88.7078C94.8271 88.439 94.5583 88.331 94.5583 88.1174C94.5583 87.9038 94.9903 78.2462 95.1511 74.855C95.3119 71.4638 95.3119 59.6798 95.3119 59.6798L94.0183 54.0686L93.7495 52.991L83.3623 52.9382L83.1391 54.0686Z" fill="#263238" stroke="#263238" stroke-linejoin="round"/>
<path d="M84.4832 54.0206C84.4832 54.0206 87.38 54.899 89.4008 54.7238C91.4216 54.5486 92.2976 54.1526 92.2976 54.1526L92.8184 47.0846L93.2144 37.4702L93.2576 35.891C93.2576 35.891 90.5816 35.099 89.7896 35.0126C88.9976 34.9262 86.6312 34.7966 86.6312 34.7966L83.9912 36.2366L84.4832 54.0206Z" fill="white" stroke="#263238" stroke-linejoin="round"/>
<path d="M86.408 32.4014L86.636 34.8014C86.7397 35.1614 86.9019 35.5019 87.116 35.8094C87.4424 36.2318 88.58 37.0454 88.58 37.0454L89.132 38.8646L89.684 36.9806C90.1009 36.7962 90.4523 36.49 90.692 36.1022C90.9425 35.6001 91.118 35.064 91.2128 34.511L91.3424 33.3398C91.3424 33.3398 90.0104 33.8198 89.0024 33.5798C87.9944 33.3398 86.408 32.4014 86.408 32.4014Z" fill="white" stroke="#263238" stroke-linejoin="round"/>
<path d="M88.5873 37.0405L87.5553 39.3589L86.9409 37.9093" stroke="#263238" stroke-linejoin="round"/>
<path d="M89.6912 36.9758L90.4976 39.0518L91.0688 38.1734" stroke="#263238" stroke-linejoin="round"/>
<path d="M85.4432 29.6414C85.4432 29.6414 84.8264 29.0558 84.6416 29.951C84.4568 30.8462 85.1984 31.5854 85.4144 31.7078C85.5997 31.7973 85.7969 31.8595 86 31.8926C86.2247 32.5412 86.6064 33.1241 87.1112 33.5894C87.8816 34.2374 89.1152 34.9166 90.6584 34.2686C92.2016 33.6206 92.0768 31.7078 91.9856 30.227C91.8944 28.7462 91.5536 26.0942 91.0592 25.1078C90.5648 24.1214 88.6208 23.843 87.08 24.1814C85.5392 24.5198 84.7664 26.1854 84.704 27.1118C84.6416 28.0382 85.4432 29.6414 85.4432 29.6414Z" fill="white" stroke="#263238" stroke-linejoin="round"/>
<path d="M85.4433 29.6413C85.3372 29.5415 85.2033 29.4762 85.0593 29.4541L85.4433 29.6413Z" fill="white" stroke="#263238" stroke-linejoin="round"/>
<path d="M87.1113 33.6014C87.8817 34.2494 89.1153 34.9286 90.6585 34.2806C92.2017 33.6326 92.0769 31.7198 91.9857 30.239C91.9665 29.9558 91.9401 29.6294 91.9041 29.279L91.8921 29.2526L91.5537 31.6526C91.5537 31.6526 91.4601 31.4126 90.5049 30.8198C89.5497 30.227 88.6521 30.8198 88.1601 31.127C87.791 31.3787 87.4491 31.6683 87.1401 31.991C86.7575 31.7716 86.4555 31.435 86.2785 31.031C86.0668 30.5719 85.9306 30.0816 85.8753 29.579C85.8753 29.579 86.4921 28.8398 86.3073 28.3142C86.1225 27.7886 85.9689 27.9758 85.8465 27.3542C85.7241 26.7326 85.5681 26.0582 86.0001 25.6886C86.4321 25.319 87.5433 25.2878 88.0041 25.595C88.4649 25.9022 88.8993 26.0894 89.4249 25.7798C89.9505 25.4702 90.1641 25.1318 90.5337 25.2254C90.8066 25.334 91.059 25.4882 91.2801 25.6814C91.2219 25.4831 91.1481 25.2897 91.0593 25.103C90.5649 24.1142 88.6209 23.8382 87.0801 24.1766C85.5393 24.515 84.7665 26.1806 84.7041 27.107C84.6417 28.0334 85.4433 29.6366 85.4433 29.6366L86.0001 31.8878C86.2224 32.5425 86.6043 33.1314 87.1113 33.6014Z" fill="#263238" stroke="#263238" stroke-linejoin="round"/>
<path d="M89.5472 27.8823C89.5472 27.8823 89.6696 30.1047 89.9792 30.5679C90.2888 31.0311 90.2576 31.2159 89.7632 31.1223C89.2688 31.0287 88.8032 30.5055 88.8032 30.1983" fill="white"/>
<path d="M88.376 31.5854C88.376 31.5854 88.9928 32.3558 90.38 31.9238" stroke="white" stroke-linecap="round" stroke-linejoin="round"/>
<path d="M88.0953 28.9934C88.1313 29.2334 88.0641 29.4374 87.9417 29.4566C87.8193 29.4758 87.7017 29.2982 87.6561 29.063C87.6105 28.8278 87.6897 28.619 87.8097 28.5998C87.9297 28.5806 88.0593 28.7582 88.0953 28.9934Z" fill="#263238"/>
<path d="M90.7855 28.8015C90.8239 29.0415 90.7543 29.2431 90.6319 29.2623C90.5095 29.2815 90.3919 29.1039 90.3463 28.8687C90.3007 28.6335 90.3799 28.4247 90.4999 28.4055C90.6199 28.3863 90.7495 28.5615 90.7855 28.8015Z" fill="#263238"/>
<path d="M87.1423 28.0383C87.1423 28.0383 87.4759 27.7047 88.2751 27.6831" stroke="#263238" stroke-linecap="round" stroke-linejoin="round"/>
<path d="M89.9673 27.5702C89.9673 27.5702 90.3897 27.1045 91.1673 27.7045" stroke="#263238" stroke-linecap="round" stroke-linejoin="round"/>
<path d="M91.8584 28.6382C91.8584 28.6382 92.3048 28.4174 92.3696 29.1494C92.4004 29.615 92.2926 30.0793 92.06 30.4838L91.8584 28.6382Z" fill="white" stroke="#263238" stroke-linejoin="round"/>
<path d="M77.5016 41.0415C77.5016 41.0415 76.9808 39.5127 77.0216 39.3831C77.0141 38.934 76.9144 38.4913 76.7288 38.0823C76.5344 37.7583 76.5656 37.8567 76.2728 37.3623C75.98 36.8679 75.5528 36.2583 75.4616 35.9991C75.3704 35.7399 75.0392 36.3879 75.2336 36.7791C75.428 37.1703 75.884 37.8519 75.884 37.8519C75.771 37.8673 75.6562 37.8445 75.5576 37.7871C75.4539 37.7246 75.3456 37.67 75.2336 37.6239L74.6816 37.3311C74.6816 37.3311 73.8368 36.5823 73.7048 36.5175C73.5728 36.4527 73.0232 34.7943 72.7304 34.9911C72.4376 35.1879 72.764 35.6079 72.7952 35.9319C72.9031 36.5462 73.0441 37.1543 73.2176 37.7535C73.2824 37.9167 73.9976 38.8575 74.3888 39.3783C74.7524 39.7979 75.1677 40.1696 75.6248 40.4847L76.208 42.4671L77.5016 41.0415Z" fill="white" stroke="#263238" stroke-linejoin="round"/>
<path d="M74.4153 39.0086C74.4153 39.0086 74.4369 38.5286 74.4801 38.255C74.5233 37.9814 75.2001 36.2894 75.3153 36.5198C75.43 36.7847 75.4453 37.0821 75.3585 37.3574C75.2745 37.523 75.0225 38.1302 75.0225 38.1302L75.2625 39.0518C75.2625 39.0518 75.8697 39.1142 76.1409 39.3638C76.3428 39.6021 76.4924 39.8801 76.5801 40.1798" fill="white"/>
<path d="M74.4153 39.0086C74.4153 39.0086 74.4369 38.5286 74.4801 38.255C74.5233 37.9814 75.2001 36.2894 75.3153 36.5198C75.43 36.7847 75.4453 37.0821 75.3585 37.3574C75.2745 37.523 75.0225 38.1302 75.0225 38.1302L75.2625 39.0518C75.2625 39.0518 75.8697 39.1142 76.1409 39.3638C76.3428 39.6021 76.4924 39.8801 76.5801 40.1798" stroke="#263238" stroke-linejoin="round"/>
<path d="M74.0984 38.675C74.0984 38.675 73.8584 38.1086 73.8872 37.8374C73.916 37.5662 74.348 35.8934 74.348 35.8934C74.348 35.8934 74.6408 35.747 74.6624 36.059C74.6383 36.5114 74.5683 36.9601 74.4536 37.3982C74.4373 37.684 74.4445 37.9705 74.4752 38.255" fill="white"/>
<path d="M74.0984 38.675C74.0984 38.675 73.8584 38.1086 73.8872 37.8374C73.916 37.5662 74.348 35.8934 74.348 35.8934C74.348 35.8934 74.6408 35.747 74.6624 36.059C74.6383 36.5114 74.5683 36.9601 74.4536 37.3982C74.4373 37.684 74.4445 37.9705 74.4752 38.255" stroke="#263238" stroke-linejoin="round"/>
<path d="M73.8728 38.0053C73.8728 38.0053 73.4336 37.4413 73.4336 37.1461C73.4534 36.4748 73.5087 35.8051 73.5992 35.1397C73.664 34.9501 73.8392 34.9933 73.892 35.4733C73.9178 35.9278 73.8969 36.3838 73.8296 36.8341L73.9976 37.3357" fill="white"/>
<path d="M73.8728 38.0053C73.8728 38.0053 73.4336 37.4413 73.4336 37.1461C73.4534 36.4748 73.5087 35.8051 73.5992 35.1397C73.664 34.9501 73.8392 34.9933 73.892 35.4733C73.9178 35.9278 73.8969 36.3838 73.8296 36.8341L73.9976 37.3357" stroke="#263238" stroke-linejoin="round"/>
<path d="M86.5063 34.5061L86.6695 40.6165C86.6695 40.6165 87.2215 48.2965 87.3511 49.3597C87.4807 50.4229 85.8895 61.6813 85.8895 61.6813C85.8895 61.6813 84.0679 61.4197 82.1839 60.9973C80.2999 60.5749 79.5439 60.1525 79.5439 60.1525L82.3783 48.9373C82.3783 48.9373 79.5175 52.0573 79.3231 52.1245C79.1287 52.1917 78.9655 52.1245 78.7039 51.7333C78.4423 51.3421 75.2983 42.5989 75.2983 42.5989L77.5087 41.0389L79.6879 44.5813C79.6879 44.5813 80.9863 37.3981 81.1279 37.1413C81.2695 36.8845 86.5063 34.5061 86.5063 34.5061Z" fill="#336EFF" stroke="#263238" stroke-linejoin="round"/>
<path d="M85.3353 35.219C85.3353 35.219 84.6153 39.6422 85.1097 41.939C85.6041 44.2358 86.9625 48.5702 86.9625 48.5702" stroke="#263238" stroke-linejoin="round"/>
<path d="M82.3783 48.9373L82.6063 47.7997L81.7927 39.6733" stroke="#263238" stroke-linejoin="round"/>
<path d="M79.6809 44.5813L80.2977 46.4989" stroke="#263238" stroke-linejoin="round"/>
<path d="M103.138 41.6918C103.138 41.6918 104.079 40.3814 104.086 40.2518C104.224 39.8246 104.448 39.43 104.744 39.0926C105.025 38.8382 104.965 38.9222 105.387 38.5406C105.796 38.2039 106.188 37.8466 106.561 37.4702C106.731 37.2494 106.854 37.9646 106.561 38.2814C106.268 38.5982 105.627 39.119 105.627 39.119C105.729 39.1688 105.846 39.1807 105.956 39.1526C106.073 39.1228 106.193 39.102 106.314 39.0902L106.928 38.9702C106.928 38.9702 107.953 38.5022 108.097 38.4758C108.241 38.4494 109.251 37.0358 109.474 37.2974C109.698 37.559 109.263 37.8806 109.138 38.1806C108.858 38.7378 108.546 39.2786 108.205 39.8006C108.097 39.9374 107.137 40.631 106.614 41.015C106.144 41.311 105.64 41.5464 105.111 41.7158L103.971 43.4414L103.138 41.6918Z" fill="white" stroke="#263238" stroke-linejoin="round"/>
<path d="M106.683 40.6453C106.683 40.6453 106.803 40.1773 106.842 39.9061C106.88 39.6349 106.731 37.8181 106.547 38.0029C106.358 38.2212 106.257 38.5017 106.263 38.7901C106.295 38.9749 106.359 39.6277 106.359 39.6277L105.879 40.4413C105.57 40.3785 105.25 40.3941 104.948 40.4869C104.685 40.6554 104.461 40.878 104.291 41.1397" fill="white"/>
<path d="M106.683 40.6453C106.683 40.6453 106.803 40.1773 106.842 39.9061C106.88 39.6349 106.731 37.8181 106.547 38.0029C106.358 38.2212 106.257 38.5017 106.263 38.7901C106.295 38.9749 106.359 39.6277 106.359 39.6277L105.879 40.4413C105.57 40.3785 105.25 40.3941 104.948 40.4869C104.685 40.6554 104.461 40.878 104.291 41.1397" stroke="#263238" stroke-linejoin="round"/>
<path d="M107.082 40.4149C107.082 40.4149 107.485 39.9493 107.523 39.6757C107.562 39.4021 107.648 37.6813 107.648 37.6813C107.648 37.6813 107.408 37.4557 107.3 37.7509C107.191 38.1904 107.127 38.64 107.11 39.0925C107.043 39.3706 106.953 39.6426 106.842 39.9061" fill="white"/>
<path d="M107.082 40.4149C107.082 40.4149 107.485 39.9493 107.523 39.6757C107.562 39.4021 107.648 37.6813 107.648 37.6813C107.648 37.6813 107.408 37.4557 107.3 37.7509C107.191 38.1904 107.127 38.64 107.11 39.0925C107.043 39.3706 106.953 39.6426 106.842 39.9061" stroke="#263238" stroke-linejoin="round"/>
<path d="M107.494 39.8413C107.494 39.8413 108.08 39.4285 108.164 39.1477C108.341 38.5 108.482 37.843 108.586 37.1797C108.586 36.9805 108.409 36.9709 108.21 37.4197C108.055 37.8466 107.943 38.288 107.876 38.7373L107.569 39.1693" fill="white"/>
<path d="M107.494 39.8413C107.494 39.8413 108.08 39.4285 108.164 39.1477C108.341 38.5 108.482 37.843 108.586 37.1797C108.586 36.9805 108.409 36.9709 108.21 37.4197C108.055 37.8466 107.943 38.288 107.876 38.7373L107.569 39.1693" stroke="#263238" stroke-linejoin="round"/>
<path d="M91.22 34.5061C91.3062 36.4162 91.2846 38.3296 91.1552 40.2373C90.9368 42.7381 90.0584 49.1053 90.1472 49.2805C90.236 49.4557 91.4624 61.5205 91.4624 61.5205C91.4624 61.5205 93.9656 61.6093 95.3696 61.3021C96.2258 61.114 97.0635 60.8497 97.8728 60.5125C97.8728 60.5125 94.6687 48.7213 94.6231 48.5341C94.5775 48.3469 95.1031 46.8205 95.1031 46.8205C95.1031 46.8205 98.2232 50.3773 98.7464 50.2909C99.2696 50.2045 104.766 42.9613 104.766 42.9613L103.054 41.1157L99.2336 44.4013C99.2336 44.4013 96.776 38.3437 96.512 37.8157C96.2339 37.3482 95.894 36.9203 95.5016 36.5437C95.3696 36.4165 91.22 34.5061 91.22 34.5061Z" fill="#336EFF" stroke="#263238" stroke-linejoin="round"/>
<path d="M92.2975 35.4062C92.5987 37.069 92.6577 38.7666 92.4727 40.4462C92.1655 43.2566 90.4543 48.743 90.4543 48.743" stroke="#263238" stroke-linejoin="round"/>
<path d="M95.1079 46.8207L96.1159 40.5447" stroke="#263238" stroke-linejoin="round"/>
<path d="M99.2336 44.4062L99.1904 46.163" stroke="#263238" stroke-linejoin="round"/>
<path d="M134.408 58.3213C134.408 58.3213 132.301 58.8013 131.725 59.7109C131.149 60.6205 130.479 62.7757 130.671 63.5917C130.863 64.4077 131.773 66.6565 132.49 67.2325C133.208 67.8085 134.65 68.6221 135.702 68.6221C136.753 68.6221 138.721 67.2325 138.91 66.5605C139.1 65.8885 139.63 63.9733 139.678 63.1117C139.726 62.2501 140.11 60.8605 138.433 59.5669C136.755 58.2733 136.182 57.9325 134.408 58.3213Z" fill="white" stroke="#263238" stroke-linejoin="round"/>
<path d="M138.911 66.5558C139.103 65.8862 139.631 63.9686 139.679 63.107C139.715 62.4566 139.94 61.5062 139.328 60.5222C139.273 60.9398 139.043 62.0294 138.673 62.4854C138.241 63.011 136.323 64.0166 133.832 63.491C132.039 63.1118 131.291 61.9646 131.012 61.3502C130.736 62.2118 130.561 63.119 130.671 63.587C130.863 64.4006 131.773 66.6518 132.491 67.2278C133.208 67.8038 134.651 68.6174 135.702 68.6174C136.753 68.6174 138.721 67.2278 138.911 66.5558Z" fill="white" stroke="#263238" stroke-linejoin="round"/>
<path d="M130.671 63.5868C130.671 63.5868 130.047 63.3468 129.951 63.9684C129.855 64.59 130.239 65.8884 130.767 66.174C130.922 66.257 131.095 66.3004 131.27 66.3004C131.446 66.3004 131.618 66.257 131.773 66.174L130.671 63.5868Z" fill="white" stroke="#263238" stroke-linejoin="round"/>
<path d="M139.678 63.491C139.678 63.491 140.638 62.723 140.54 63.9206C140.442 65.1182 139.15 66.0302 139.15 66.0302L139.678 63.491Z" fill="white" stroke="#263238" stroke-linejoin="round"/>
<path d="M140.339 70.1508C140.339 70.1508 138.997 68.0412 138.853 67.8972C138.709 67.7532 136.554 67.4172 135.212 67.4172C133.871 67.4172 131.667 67.9908 131.667 67.9908L130.518 70.3908C130.518 70.3908 135.894 69.0012 140.339 70.1508Z" fill="#263238" stroke="#263238" stroke-linejoin="round"/>
<path d="M123.915 84.6205C123.915 84.6205 123.538 86.5837 123.778 87.1213C124.018 87.6589 124.928 88.1749 125.408 88.1749C125.909 88.1348 126.406 88.0546 126.894 87.9349L127.086 85.1557L123.915 84.6205Z" stroke="#263238" stroke-linejoin="round"/>
<path d="M146.434 83.1349C146.434 83.1349 146.626 85.4341 146.482 85.8181C146.338 86.2021 145.522 86.9197 144.949 87.0637C144.449 87.1975 143.933 87.2621 143.415 87.2557C143.271 87.2077 142.791 83.8045 142.791 83.8045L146.434 83.1349Z" stroke="#263238" stroke-linejoin="round"/>
<path d="M134.264 107.857C134.264 107.857 134.168 111.306 134.408 111.642C134.648 111.978 135.798 112.408 137.048 112.264C138.298 112.12 138.822 111.738 138.822 111.498C138.822 111.258 138.774 108.191 138.774 108.191C138.774 108.191 134.888 107.953 134.264 107.857Z" fill="#263238" stroke="#263238" stroke-linejoin="round"/>
<path d="M138.817 111.498C138.817 111.445 138.817 111.258 138.817 110.984C137.168 111.704 135.289 111.304 134.298 110.984C134.297 111.207 134.337 111.429 134.415 111.637C134.655 111.973 135.805 112.403 137.055 112.259C138.306 112.115 138.817 111.738 138.817 111.498Z" fill="white" stroke="#263238" stroke-linejoin="round"/>
<path d="M133.163 95.2549C133.163 95.2549 134.264 102.969 134.216 104.025C134.179 104.551 134.195 105.08 134.264 105.604C134.264 105.604 133.832 105.844 133.832 106.228C133.832 106.612 134.264 107.857 134.264 107.857C134.264 107.857 134.216 108.049 135.464 108.287C136.712 108.525 138.435 108.431 138.771 108.191C139.107 107.951 139.105 106.849 139.057 106.132C139.009 105.414 138.435 103.929 138.435 103.353C138.435 102.777 139.201 94.7773 139.201 94.7773C139.201 94.7773 134.888 95.5909 133.163 95.2549Z" fill="#336EFF" stroke="#263238" stroke-linejoin="round"/>
<path d="M141.404 105.462C141.404 105.462 142.124 107.862 142.314 108.287C142.503 108.712 143.274 109.199 143.655 109.199C144.037 109.199 146.098 108.527 146.386 108.383C146.674 108.239 147.2 107.377 146.96 106.612C146.72 105.846 145.52 103.401 145.52 103.401L141.404 105.462Z" fill="#263238" stroke="#263238" stroke-linejoin="round"/>
<path d="M146.387 108.383C146.651 108.251 147.107 107.514 147.003 106.804C146.342 107.242 145.656 107.643 144.949 108.004C144.206 108.35 143.412 108.572 142.597 108.659C142.884 108.946 143.255 109.135 143.655 109.201C144.039 109.201 146.099 108.527 146.387 108.383Z" fill="white" stroke="#263238" stroke-linejoin="round"/>
<path d="M138.001 97.5085C138.001 97.5085 139.871 101.245 140.204 101.828C140.538 102.412 140.78 102.837 140.78 102.837C140.616 103.086 140.544 103.385 140.579 103.681C140.675 104.113 141.395 105.455 141.395 105.455C141.395 105.455 142.496 105.695 143.358 105.407C144.219 105.119 145.227 104.303 145.323 104.113C145.408 103.879 145.471 103.638 145.513 103.393C145.351 102.757 145.143 102.133 144.891 101.526C144.459 100.47 143.982 99.6565 143.79 98.7469C143.598 97.8373 142.544 93.9469 142.544 93.9469L137.024 95.1469L138.001 97.5085Z" fill="#336EFF" stroke="#263238" stroke-linejoin="round"/>
<path d="M126.07 89.7949C126.07 89.7949 125.83 91.4749 125.926 92.2381C126.022 93.0013 126.166 93.9613 128.566 94.8781C130.966 95.7949 133.366 96.4093 135.286 96.2677C137.206 96.1261 140.749 95.2597 141.526 94.8781C142.304 94.4965 142.93 93.7669 143.446 93.2677C143.962 92.7685 144.109 90.9493 144.015 90.2293C143.964 89.8198 143.868 89.4173 143.727 89.0293C143.727 89.0293 135.654 91.1365 126.07 89.7949Z" fill="#336EFF" stroke="#263238" stroke-linejoin="round"/>
<path d="M130.527 70.3886C130.527 70.3886 128.228 72.4982 127.167 73.3118C126.107 74.1254 125.06 75.1334 125.06 75.4214C125.06 75.7094 122.233 84.3806 122.233 84.3806C122.233 84.3806 123.335 85.7702 125.732 86.0078H126.419C126.419 86.0078 126.083 89.459 126.083 89.795C126.083 90.131 130.587 91.715 135.858 91.2782C141.128 90.8414 143.619 89.507 143.715 89.027C143.811 88.547 143.619 87.587 143.619 86.867C143.619 86.147 143.475 84.7574 143.475 84.7574C143.475 84.7574 144.817 84.9014 145.823 84.5174C146.828 84.1334 148.302 82.8014 148.302 82.8014C148.302 82.8014 145.422 76.6214 144.997 75.2318C144.572 73.8422 140.339 70.151 140.339 70.151C140.339 70.151 136.419 68.9054 130.527 70.3886Z" fill="#263238" stroke="#263238" stroke-linejoin="round"/>
<path d="M126.231 78.2556L126.608 89.2332C126.608 89.2332 135.219 91.1724 143.238 89.2332L143.883 78.4164C143.883 78.4164 129.406 78.9612 126.231 78.2556Z" fill="white" stroke="#263238" stroke-linejoin="round"/>
<path d="M126.608 89.2333L125.101 112.364" stroke="#263238" stroke-width="3" stroke-linecap="round" stroke-linejoin="round"/>
<path d="M143.192 89.2333L144.699 112.364" stroke="#263238" stroke-width="3" stroke-linecap="round" stroke-linejoin="round"/>
<path d="M126.299 93.3037C126.299 93.3037 130.935 95.7541 135.315 95.6893C139.875 95.6221 143.423 93.2629 143.423 93.2629L143.663 95.7877C143.663 95.7877 135.743 99.0973 126.227 95.6317L126.299 93.3037Z" fill="#B2B2B2" stroke="#263238" stroke-linejoin="round"/>
<path d="M109.914 95.1062C109.914 95.1062 111.898 103.3 112.213 104.171C112.527 105.042 112.89 104.56 113.295 105.625C113.701 106.691 113.792 107.613 114.243 108.196C114.694 108.779 115.868 109.019 116.228 109.893C116.588 110.766 116.816 111.491 115.417 111.784C114.018 112.077 112.755 111.249 112.17 109.989C111.584 108.729 110.77 105.189 110.77 105.189C110.77 105.189 105.267 97.4822 104.634 96.0278L104.002 94.5734L109.914 95.1062Z" fill="white" stroke="#263238" stroke-linejoin="round"/>
<path d="M112.71 104.898L112.844 104.917C113.06 105.109 113.217 105.359 113.295 105.637C113.703 106.705 113.792 107.624 114.243 108.208C114.695 108.791 115.868 109.031 116.228 109.904C116.588 110.778 116.816 111.503 115.417 111.796C114.018 112.088 112.755 111.26 112.17 110C111.584 108.74 110.771 105.2 110.771 105.2C111.627 103.832 112.71 104.898 112.71 104.898Z" fill="#263238" stroke="#263238" stroke-linejoin="round"/>
<path d="M111.27 95.1062C111.27 95.1062 109.285 103.3 108.968 104.171C108.651 105.042 108.291 104.56 107.886 105.625C107.48 106.691 107.389 107.613 106.938 108.196C106.486 108.779 105.313 109.019 104.953 109.893C104.593 110.766 104.367 111.491 105.764 111.784C107.161 112.077 108.426 111.249 109.014 109.989C109.602 108.729 110.41 105.189 110.41 105.189C110.41 105.189 115.916 97.4822 116.547 96.0278L117.178 94.5734L111.27 95.1062Z" fill="white" stroke="#263238" stroke-linejoin="round"/>
<path d="M108.471 104.898L108.337 104.917C108.121 105.109 107.964 105.359 107.886 105.637C107.48 106.705 107.389 107.624 106.938 108.208C106.486 108.791 105.313 109.031 104.953 109.904C104.593 110.778 104.367 111.503 105.764 111.796C107.161 112.088 108.426 111.26 109.014 110C109.602 108.74 110.41 105.2 110.41 105.2C109.554 103.832 108.471 104.898 108.471 104.898Z" fill="#263238" stroke="#263238" stroke-linejoin="round"/>
<path d="M105.09 69.7285C105.09 69.7285 102.21 70.9477 102.157 71.4877C102.104 72.0277 100.259 79.1125 100.129 79.9213C99.9993 80.7301 99.2265 82.6741 99.8121 83.4853C100.398 84.2965 101.437 84.8389 102.114 84.8845C102.289 84.9107 102.468 84.8914 102.634 84.8283C102.799 84.7653 102.946 84.6606 103.059 84.5245L102.474 88.4941C102.474 88.4941 101.571 91.2901 101.797 92.4181C102.023 93.5461 102.791 94.6741 107.077 95.6221C111.363 96.5701 113.845 96.0733 115.424 95.3509C117.003 94.6285 118.897 93.7261 119.077 92.5981C119.257 91.4701 118.537 87.9061 118.537 87.9061L118.175 84.0661C118.175 84.0661 120.335 84.0205 121.153 82.9813C121.971 81.9421 121.693 80.9077 121.379 80.0053C121.064 79.1029 120.116 75.8101 119.799 74.6365C119.483 73.4629 119.257 71.4325 118.897 70.9381C118.537 70.4437 114.882 69.6301 114.882 69.6301C114.882 69.6301 110.187 67.8805 105.09 69.7285Z" fill="white" stroke="#263238" stroke-linejoin="round"/>
<path d="M103.422 75.5942L104.413 80.2406" stroke="#263238" stroke-linejoin="round"/>
<path d="M118.352 75.9084L117.675 80.0149" stroke="#263238" stroke-linejoin="round"/>
<path d="M119.075 92.6006C119.223 91.6694 118.758 89.0702 118.595 88.199C113.223 89.7062 105.62 88.7174 102.515 88.199L102.471 88.4894C102.471 88.4894 101.569 91.2854 101.795 92.4134C102.02 93.5414 102.788 94.6694 107.075 95.6174C111.361 96.5654 113.843 96.0686 115.422 95.3462C117.001 94.6238 118.895 93.7286 119.075 92.6006Z" fill="#336EFF" stroke="#263238" stroke-linejoin="round"/>
<path d="M108.248 57.1429C108.248 57.1429 106.623 56.5117 106.398 58.5829C106.172 60.6541 107.166 63.1429 107.211 63.6805C107.257 64.2181 104.142 68.8693 104.864 70.4005C105.587 71.9317 107.166 73.9645 109.424 74.2813C111.683 74.5981 113.439 74.1901 115.107 72.7021C116.775 71.2141 117.138 70.8973 117.092 70.0861C117.047 69.2749 115.333 64.4917 115.153 63.3181C114.973 62.1445 116.055 59.8885 114.747 57.7237C113.439 55.5589 110.687 55.0621 109.604 55.6933C108.522 56.3245 108.248 57.1429 108.248 57.1429Z" fill="#263238" stroke="#263238" stroke-linejoin="round"/>
<path d="M101.749 78.2556L102.126 89.2332C102.126 89.2332 110.737 91.1724 118.755 89.2332L119.401 78.4164C119.401 78.4164 104.924 78.9612 101.749 78.2556Z" fill="#B2B2B2" stroke="#263238" stroke-linejoin="round"/>
<path d="M102.126 89.2333L100.621 112.364" stroke="#263238" stroke-width="3" stroke-linecap="round" stroke-linejoin="round"/>
<path d="M118.71 89.2333L120.217 112.364" stroke="#263238" stroke-width="3" stroke-linecap="round" stroke-linejoin="round"/>
<path d="M101.816 93.3037C101.816 93.3037 106.453 95.7541 110.833 95.6893C115.393 95.6221 118.94 93.2629 118.94 93.2629L119.18 95.7877C119.18 95.7877 111.26 99.0973 101.747 95.6317L101.816 93.3037Z" fill="#B2B2B2" stroke="#263238" stroke-linejoin="round"/>
<path d="M62.8881 62.9775L62.5281 67.5447L69.5697 67.3047L69.0297 63.2487L62.8881 62.9775Z" fill="white" stroke="#263238" stroke-linejoin="round"/>
<path d="M70.9785 56.4567C70.6497 55.4679 69.3345 55.4151 68.8953 55.1391C68.4561 54.8631 68.5665 54.1527 67.3593 53.7135C66.1521 53.2743 65.4393 53.3295 64.8345 53.8791C64.3408 54.3682 63.8835 54.8928 63.4665 55.4487C62.8233 55.7703 62.1801 56.1687 61.9281 56.5671C61.3521 57.4767 61.1649 59.6295 61.3569 60.4431C61.5489 61.2567 62.4585 63.5103 63.1785 64.0839C63.8985 64.6575 65.3385 65.4735 66.3873 65.4735C67.4361 65.4735 69.4065 64.0839 69.5985 63.4143C69.7905 62.7447 70.3185 60.8271 70.3641 59.9631C70.4398 59.5884 70.554 59.2224 70.7049 58.8711C70.8033 58.5951 71.2953 57.4431 70.9785 56.4567Z" fill="#263238" stroke="#263238" stroke-linejoin="round"/>
<path d="M61.3448 60.4431C61.3448 60.4431 60.7232 60.2031 60.6248 60.8271C60.5264 61.4511 60.9104 62.7471 61.4384 63.0303C61.5929 63.1135 61.7657 63.157 61.9412 63.157C62.1167 63.157 62.2895 63.1135 62.444 63.0303L61.3448 60.4431Z" fill="white" stroke="#263238" stroke-linejoin="round"/>
<path d="M70.352 60.347C70.352 60.347 71.312 59.5814 71.216 60.779C71.12 61.9766 69.8264 62.8814 69.8264 62.8814L70.352 60.347Z" fill="white" stroke="#263238" stroke-linejoin="round"/>
<path d="M71.9193 69.0662C71.9193 69.0662 70.3329 66.611 70.1625 66.4454C69.9921 66.2798 67.4433 65.8862 65.8569 65.8862C64.2705 65.8862 61.6665 66.5558 61.6665 66.5558L60.3057 69.3446C60.3057 69.3446 66.6585 67.727 71.9193 69.0662Z" fill="#336EFF" stroke="#263238" stroke-linejoin="round"/>
<path d="M54.5889 84.6207C54.5889 84.6207 54.2073 86.5839 54.4449 87.1119C54.6825 87.6399 55.5969 88.1655 56.0745 88.1655C56.5753 88.1257 57.0721 88.0454 57.5601 87.9255L57.7521 85.1463L54.5889 84.6207Z" fill="white" stroke="#263238" stroke-linejoin="round"/>
<path d="M77.1081 83.1351C77.1081 83.1351 77.3001 85.4343 77.1561 85.8183C77.0121 86.2023 76.1961 86.9199 75.6225 87.0639C75.1225 87.1978 74.6065 87.2624 74.0889 87.2559C73.9449 87.2079 73.4673 83.8047 73.4673 83.8047L77.1081 83.1351Z" fill="white" stroke="#263238" stroke-linejoin="round"/>
<path d="M57.1329 108.638L55.5729 109.958C55.5729 109.958 54.3729 110.198 54.6705 111.098C54.8097 111.513 56.8929 112.9 57.7905 113.08C58.6881 113.26 60.3129 113.08 60.7329 112.48C61.1529 111.88 60.8529 109.058 60.8529 109.058L57.1329 108.638Z" fill="white" stroke="#263238" stroke-linejoin="round"/>
<path d="M60.7353 112.48C60.8081 112.358 60.8563 112.224 60.8769 112.084C60.0969 112.312 58.7985 112.528 57.9129 112.36C57.0273 112.192 55.5129 111.102 54.7137 110.493C54.663 110.584 54.6328 110.686 54.6254 110.79C54.6179 110.895 54.6333 111 54.6705 111.097C54.8097 111.513 56.8929 112.9 57.7905 113.08C58.6881 113.26 60.3153 113.08 60.7353 112.48Z" fill="white" stroke="#263238" stroke-linejoin="round"/>
<path d="M58.393 89.4279C58.393 89.4279 56.413 89.6079 55.813 91.3479C55.213 93.0879 56.833 106.948 56.833 106.948C56.833 106.948 56.533 107.848 56.593 108.028C56.653 108.208 56.773 109.168 56.773 109.168C56.773 109.168 57.073 109.708 58.393 109.708C59.254 109.683 60.0972 109.457 60.8554 109.048C60.8554 109.048 60.7354 107.308 60.7354 106.465C60.7354 105.623 60.6754 103.765 60.6754 103.765L61.6954 93.1407C61.6954 93.1407 62.5954 89.9679 58.393 89.4279Z" fill="#263238" stroke="#263238" stroke-linejoin="round"/>
<path d="M73.9738 108.638L75.5362 109.958C75.5362 109.958 76.7362 110.198 76.4362 111.098C76.297 111.513 74.2138 112.9 73.3162 113.08C72.4186 113.26 70.7962 113.08 70.3738 112.48C69.9514 111.88 70.2538 109.058 70.2538 109.058L73.9738 108.638Z" fill="white" stroke="#263238" stroke-linejoin="round"/>
<path d="M70.3713 112.48C70.3006 112.358 70.2526 112.223 70.2297 112.084C71.0097 112.312 72.3081 112.528 73.1937 112.36C74.0793 112.192 75.5937 111.102 76.3929 110.493C76.4448 110.584 76.4756 110.686 76.4831 110.79C76.4905 110.895 76.4745 111 76.4361 111.097C76.2969 111.513 74.2137 112.9 73.3161 113.08C72.4185 113.26 70.7937 113.08 70.3713 112.48Z" fill="white" stroke="#263238" stroke-linejoin="round"/>
<path d="M72.7136 89.4279C72.7136 89.4279 74.6936 89.6079 75.296 91.3479C75.8984 93.0879 74.2736 106.948 74.2736 106.948C74.2736 106.948 74.5736 107.848 74.5136 108.028C74.4536 108.208 74.3336 109.168 74.3336 109.168C74.3336 109.168 74.0336 109.708 72.7136 109.708C71.8559 109.684 71.0153 109.462 70.2584 109.057C70.2584 109.057 70.3784 107.317 70.3784 106.475C70.3784 105.633 70.4408 103.775 70.4408 103.775L69.4184 93.1503C69.4184 93.1503 68.5112 89.9679 72.7136 89.4279Z" fill="#263238" stroke="#263238" stroke-linejoin="round"/>
<path d="M56.7465 89.7951C56.7465 89.7951 56.5065 91.4751 56.6025 92.2383C56.6985 93.0015 56.8425 93.9615 59.2425 94.8783C61.6425 95.7951 64.0425 96.4095 65.9505 96.2679C67.8585 96.1263 71.4105 95.2599 72.1905 94.8783C72.9705 94.4967 73.5945 93.7671 74.1105 93.2679C74.6265 92.7687 74.7753 90.9495 74.6793 90.2295C74.6285 89.82 74.5319 89.4175 74.3913 89.0295C74.3913 89.0295 66.3273 91.1367 56.7465 89.7951Z" fill="#263238" stroke="#263238" stroke-linejoin="round"/>
<path d="M61.2009 68.8574C61.2009 68.8574 58.9017 69.791 57.8409 70.6046C56.7801 71.4182 55.7313 72.4262 55.7313 72.7142C55.7313 73.0022 52.9065 84.3806 52.9065 84.3806C52.9065 84.3806 54.0081 85.7702 56.4033 86.0078H57.0729C57.0729 86.0078 56.7393 89.459 56.7393 89.795C56.7393 90.131 61.2417 91.715 66.5121 91.2782C71.7825 90.8414 74.2737 89.507 74.3697 89.027C74.4657 88.547 74.2737 87.587 74.2737 86.867C74.2737 86.147 74.1297 84.7574 74.1297 84.7574C74.1297 84.7574 75.4713 84.9014 76.4793 84.5174C77.4873 84.1334 78.9777 82.8014 78.9777 82.8014C78.9777 82.8014 76.0977 73.9214 75.6705 72.5246C75.2433 71.1278 71.0241 68.6198 71.0241 68.6198C71.0241 68.6198 67.0953 67.3718 61.2009 68.8574Z" fill="#336EFF" stroke="#263238" stroke-linejoin="round"/>
<path d="M56.9385 74.8096L58.0953 79.6384" stroke="#263238" stroke-linejoin="round"/>
<path d="M74.1776 76.7126L73.448 79.6382" stroke="#263238" stroke-linejoin="round"/>
<path d="M74.605 75.0039L74.3938 75.8511" stroke="#263238" stroke-linejoin="round"/>
<path d="M57.0369 78.2559L57.4137 89.2335C57.4137 89.2335 66.0225 91.1727 74.0433 89.2335L74.6889 78.4167C74.6889 78.4167 60.2121 78.9615 57.0369 78.2559Z" fill="white" stroke="#263238" stroke-linejoin="round"/>
<path d="M57.4137 89.2335L55.9065 112.365" stroke="#263238" stroke-width="3" stroke-linecap="round" stroke-linejoin="round"/>
<path d="M73.9954 89.2335L75.5026 112.365" stroke="#263238" stroke-width="3" stroke-linecap="round" stroke-linejoin="round"/>
<path d="M57.1016 93.3039C57.1016 93.3039 61.7384 95.7615 66.1184 95.6895C70.6784 95.6223 74.2256 93.2631 74.2256 93.2631L74.4656 95.7879C74.4656 95.7879 66.5456 99.0975 57.032 95.6319L57.1016 93.3039Z" fill="#B2B2B2" stroke="#263238" stroke-linejoin="round"/>
<path d="M38.1944 110.428C37.7144 110.651 36.6008 111.628 35.7056 111.822C34.8104 112.017 33.02 111.822 32.7224 111.325C32.456 110.881 33.6824 110.041 34.316 109.3C34.3871 109.216 34.4528 109.128 34.5128 109.036C35.0096 108.239 35.3072 106.648 35.3072 106.648L33.4184 93.3158L38.1944 94.0118L37.9952 105.753C37.9952 105.753 38.8472 107.269 39.0896 108.438C39.3128 109.521 39.1832 109.981 38.1944 110.428Z" fill="white" stroke="#263238" stroke-linejoin="round"/>
<path d="M38.1944 110.428C37.7144 110.651 36.6008 111.628 35.7056 111.822C34.8104 112.017 33.02 111.822 32.7224 111.325C32.7054 111.298 32.694 111.268 32.6888 111.237C32.6048 110.778 33.728 109.996 34.316 109.3L34.556 109.54C34.556 109.54 35.2928 108.407 35.54 107.915C35.7872 107.423 36.032 106.734 36.572 106.235C37.112 105.736 37.9928 105.738 37.9928 105.738C37.9928 105.738 38.8448 107.255 39.0872 108.424C39.1227 108.587 39.1491 108.752 39.1664 108.918C39.2432 109.681 39.0176 110.058 38.1944 110.428Z" fill="white" stroke="#263238" stroke-linejoin="round"/>
<path d="M38.1943 110.428C37.7143 110.651 36.6007 111.628 35.7055 111.822C34.8103 112.017 33.0199 111.822 32.7223 111.325C32.7053 111.298 32.6939 111.268 32.6887 111.237C33.3073 111.565 34.0121 111.695 34.7071 111.609C36.0823 111.409 36.2311 110.085 38.0503 109.209C38.3893 109.013 38.778 108.92 39.1687 108.942C39.2431 109.681 39.0175 110.058 38.1943 110.428Z" fill="white" stroke="#263238" stroke-linejoin="round"/>
<path d="M41.0481 110.428C41.5281 110.651 42.6417 111.628 43.5369 111.822C44.4321 112.017 46.2249 111.822 46.5225 111.325C46.7865 110.881 45.5625 110.041 44.9289 109.3C44.857 109.217 44.7912 109.128 44.7321 109.036C44.2353 108.239 43.9353 106.648 43.9353 106.648L45.8265 93.3158L41.0481 94.0118L41.2473 105.753C41.2473 105.753 40.3977 107.269 40.1529 108.438C39.9297 109.521 40.0617 109.981 41.0481 110.428Z" fill="white" stroke="#263238" stroke-linejoin="round"/>
<path d="M41.0479 110.428C41.5279 110.651 42.6415 111.628 43.5367 111.822C44.4319 112.017 46.2247 111.822 46.5223 111.325C46.5393 111.298 46.5507 111.268 46.5559 111.237C46.6375 110.778 45.5167 109.996 44.9287 109.3L44.6887 109.54C44.6887 109.54 43.9519 108.407 43.7071 107.915C43.4623 107.423 43.2127 106.734 42.6727 106.235C42.1327 105.736 41.2519 105.738 41.2519 105.738C41.2519 105.738 40.4023 107.255 40.1575 108.424C40.1227 108.587 40.0971 108.752 40.0807 108.918C39.9991 109.681 40.2271 110.058 41.0479 110.428Z" fill="white" stroke="#263238" stroke-linejoin="round"/>
<path d="M41.048 110.428C41.528 110.651 42.6416 111.628 43.5368 111.822C44.432 112.017 46.2248 111.822 46.5224 111.325C46.5394 111.298 46.5508 111.268 46.556 111.237C45.9372 111.565 45.2326 111.695 44.5376 111.609C43.1624 111.409 43.0112 110.085 41.192 109.209C40.8538 109.013 40.466 108.921 40.076 108.942C39.9992 109.681 40.2272 110.058 41.048 110.428Z" fill="white" stroke="#263238" stroke-linejoin="round"/>
<path d="M34.7072 69.7286C34.7072 69.7286 31.8272 70.9478 31.7744 71.4878C31.7216 72.0278 29.8808 79.1126 29.7464 79.9238C29.612 80.735 28.844 82.6766 29.4296 83.4878C30.0152 84.299 31.0544 84.8414 31.7312 84.887C31.9064 84.9132 32.0855 84.8939 32.2511 84.8308C32.4167 84.7678 32.5633 84.6631 32.6768 84.527L32.0984 88.4966C32.0984 88.4966 31.196 91.2926 31.4216 92.4206C31.6472 93.5486 32.4152 94.6766 36.7016 95.6246C40.988 96.5726 43.4696 96.0758 45.0488 95.3534C46.628 94.631 48.5216 93.7286 48.7016 92.6006C48.8816 91.4726 48.1616 87.9086 48.1616 87.9086L47.7992 84.0686C47.7992 84.0686 49.9592 84.023 50.7776 82.9838C51.596 81.9446 51.3176 80.9102 51.0032 80.0078C50.6888 79.1054 49.7408 75.8126 49.424 74.639C49.1072 73.4654 48.8816 71.435 48.5216 70.9406C48.1616 70.4462 44.5064 69.6326 44.5064 69.6326C44.5064 69.6326 39.8048 67.8806 34.7072 69.7286Z" fill="#336EFF" stroke="#263238" stroke-linejoin="round"/>
<path d="M33.4639 77.5837L34.0303 80.2405" stroke="#263238" stroke-linejoin="round"/>
<path d="M33.0391 75.5942L33.2455 76.5638" stroke="#263238" stroke-linejoin="round"/>
<path d="M47.972 75.9087L47.2952 80.0151" stroke="#263238" stroke-linejoin="round"/>
<path d="M48.6919 92.6006C48.8407 91.6694 48.3751 89.0702 48.2119 88.199C42.8407 89.7062 35.2375 88.7174 32.1319 88.199L32.0887 88.4894C32.0887 88.4894 31.1863 91.2854 31.4119 92.4134C31.6375 93.5414 32.4055 94.6694 36.6919 95.6174C40.9783 96.5654 43.4599 96.0686 45.0391 95.3462C46.6183 94.6238 48.5119 93.7286 48.6919 92.6006Z" fill="#263238" stroke="#263238" stroke-linejoin="round"/>
<path d="M35.6744 60.8343C35.6744 60.8343 35.4344 60.0303 34.9928 60.7119C34.5512 61.3935 34.9928 62.5695 35.3024 62.9415C35.6157 63.244 35.9755 63.4944 36.368 63.6831L36.788 63.1887L35.6744 60.8343Z" fill="white" stroke="#263238" stroke-linejoin="round"/>
<path d="M44.2879 60.8343C44.2879 60.8343 44.5279 60.0303 44.9695 60.7119C45.4111 61.3935 44.9695 62.5695 44.6599 62.9415C44.3465 63.244 43.9868 63.4944 43.5943 63.6831L43.1719 63.1887L44.2879 60.8343Z" fill="white" stroke="#263238" stroke-linejoin="round"/>
<path d="M37.3783 65.1614L35.7535 72.827C36.5183 73.5982 37.5067 74.1088 38.5783 74.2862C40.7935 74.5958 42.5287 74.207 44.1703 72.7838C43.9015 70.3646 43.1071 64.6862 43.1071 64.6862L43.9279 62.9294C44.3759 61.9948 44.5901 60.9652 44.5519 59.9294C44.5241 59.1527 44.3003 58.3957 43.9015 57.7286C42.5935 55.5686 39.8407 55.067 38.7583 55.6982C37.6759 56.3294 37.4047 57.1382 37.4047 57.1382C37.4047 57.1382 35.7823 56.507 35.5567 58.5782C35.3311 60.6494 35.6743 62.6246 36.3679 63.6758L37.3783 65.1614Z" fill="#263238" stroke="#263238" stroke-linejoin="round"/>
<path d="M40.0713 57.179C39.871 57.1833 39.6739 57.2297 39.4927 57.3153C39.3116 57.4009 39.1506 57.5237 39.0201 57.6758C38.7998 58.0023 38.7139 58.4011 38.7801 58.7894C39.0877 58.4605 39.5091 58.2614 39.9585 58.2326C40.1499 58.2291 40.3385 58.2794 40.5027 58.3779C40.6669 58.4763 40.8001 58.6189 40.8873 58.7894C40.8873 58.7894 41.4345 57.6758 40.0713 57.179Z" fill="white" stroke="#263238" stroke-linejoin="round"/>
<path d="M31.3521 78.2559L31.7289 89.2335C31.7289 89.2335 40.3401 91.1727 48.3584 89.2335L49.0041 78.4167C49.0041 78.4167 34.5273 78.9615 31.3521 78.2559Z" fill="white" stroke="#263238" stroke-linejoin="round"/>
<path d="M31.7289 89.2334L30.2217 112.365" stroke="#263238" stroke-width="3" stroke-linecap="round" stroke-linejoin="round"/>
<path d="M48.3127 89.2334L49.8199 112.365" stroke="#263238" stroke-width="3" stroke-linecap="round" stroke-linejoin="round"/>
<path d="M31.4168 93.3039C31.4168 93.3039 36.0536 95.7543 40.4336 95.6895C44.9936 95.6223 48.5432 93.2631 48.5432 93.2631L48.7832 95.7879C48.7832 95.7879 40.8632 99.0975 31.3472 95.6319L31.4168 93.3039Z" fill="#B2B2B2" stroke="#263238" stroke-linejoin="round"/>
<path d="M102.418 21.2917H96.0296C95.607 21.2917 95.2017 21.4596 94.9028 21.7585C94.6039 22.0574 94.436 22.4627 94.436 22.8853V27.1477C94.436 27.5704 94.6039 27.9757 94.9028 28.2746C95.2017 28.5735 95.607 28.7413 96.0296 28.7413H96.8504L95.792 30.8557L98.672 28.7413H102.418C102.841 28.7413 103.246 28.5735 103.545 28.2746C103.844 27.9757 104.012 27.5704 104.012 27.1477V22.8853C104.012 22.4627 103.844 22.0574 103.545 21.7585C103.246 21.4596 102.841 21.2917 102.418 21.2917Z" fill="white" stroke="#263238" stroke-linejoin="round"/>
<path d="M97.1887 25.4822C97.4459 25.4822 97.6543 25.2738 97.6543 25.0166C97.6543 24.7595 97.4459 24.551 97.1887 24.551C96.9316 24.551 96.7231 24.7595 96.7231 25.0166C96.7231 25.2738 96.9316 25.4822 97.1887 25.4822Z" fill="#263238" stroke="#263238" stroke-linejoin="round"/>
<path d="M99.2193 25.4822C99.4764 25.4822 99.6849 25.2738 99.6849 25.0166C99.6849 24.7595 99.4764 24.551 99.2193 24.551C98.9621 24.551 98.7537 24.7595 98.7537 25.0166C98.7537 25.2738 98.9621 25.4822 99.2193 25.4822Z" fill="#263238" stroke="#263238" stroke-linejoin="round"/>
<path d="M101.252 25.4822C101.509 25.4822 101.718 25.2738 101.718 25.0166C101.718 24.7595 101.509 24.551 101.252 24.551C100.995 24.551 100.786 24.7595 100.786 25.0166C100.786 25.2738 100.995 25.4822 101.252 25.4822Z" fill="#263238" stroke="#263238" stroke-linejoin="round"/>
</svg>
